# Blender v2.79 (sub 0) OBJ File: ''
# www.blender.org
mtllib mjm_greeble01.mtl
o mjm_RAcap_Mesh1_Group1_Model
v -0.176777 0.323223 -0.500000
v -0.250000 0.500000 -0.450000
v -0.250000 0.500000 -0.500000
v 0.000000 0.250000 -0.500000
v -0.176777 0.323223 -0.450000
v 0.176777 0.323223 -0.500000
v 0.000000 0.250000 -0.450000
v 0.250000 0.500000 -0.500000
v 0.176777 0.323223 -0.450000
v -0.200000 0.500000 -0.400000
v 0.250000 0.500000 -0.450000
v 0.141421 0.358579 -0.400000
v 0.200000 0.500000 -0.400000
v 0.125170 0.450000 -0.400000
v -0.125170 0.450000 -0.400000
v -0.141421 0.358579 -0.400000
v 0.000000 0.354120 -0.400000
v 0.000000 0.300000 -0.400000
v -0.103153 0.396847 -0.400000
v -0.125170 0.450000 -0.420000
v -0.103153 0.396847 -0.420000
v 0.103153 0.396847 -0.400000
v 0.000000 0.354120 -0.420000
v 0.103153 0.396847 -0.420000
v 0.125170 0.450000 -0.420000
vt 0.288900 0.135500
vt 0.214300 0.155000
vt 0.214300 0.135500
vt 0.289100 0.135500
vt 0.214500 0.155000
vt 0.214500 0.135500
vt 0.289300 0.135500
vt 0.214600 0.155000
vt 0.214600 0.135500
vt 0.288800 0.135500
vt 0.214200 0.155000
vt 0.214200 0.135500
vt 0.115600 0.966100
vt 0.115600 0.866200
vt 0.133900 0.876200
vt 0.070000 0.866200
vt 0.044200 0.887900
vt 0.037700 0.880800
vt 0.070000 0.876200
vt 0.060900 0.891100
vt 0.060900 0.941200
vt 0.070000 0.956100
vt 0.044200 0.944400
vt 0.070000 0.966100
vt 0.024400 0.916200
vt 0.037700 0.951500
vt 0.043400 0.916200
vt 0.033500 0.916200
vt 0.051200 0.936800
vt 0.046300 0.966100
vt 0.049900 0.977600
vt 0.046300 0.977600
vt 0.150300 0.936900
vt 0.146700 0.916200
vt 0.150300 0.916200
vt 0.150300 0.957500
vt 0.146700 0.936900
vt 0.051200 0.895500
vt 0.046300 0.977600
vt 0.042600 0.966100
vt 0.046300 0.966100
vt 0.143000 0.916200
vt 0.146700 0.966300
vt 0.143000 0.966300
vt 0.752472 0.924897
vt 0.760272 0.904297
vt 0.769972 0.899897
vt 0.070000 0.916200
vt 0.288900 0.155000
vt 0.289100 0.155000
vt 0.289300 0.155000
vt 0.288800 0.155000
vt 0.133900 0.956100
vt 0.124800 0.966100
vt 0.124800 0.866200
vt 0.049900 0.966100
vt 0.146700 0.957500
vt 0.042600 0.977600
vt 0.146700 0.916200
vt 0.769972 0.949897
vt 0.760272 0.945497
vt 0.083400 0.951500
vt 0.083400 0.880800
vn -0.7071 -0.7071 0.0000
vn -0.9239 -0.3827 0.0000
vn -0.0000 -1.0000 0.0000
vn 0.7071 -0.7071 0.0000
vn 0.9239 -0.3827 0.0000
vn 0.0000 1.0000 -0.0000
vn 0.6786 -0.2811 0.6786
vn 0.5000 -0.5000 0.7071
vn -0.0000 0.0000 1.0000
vn -0.6786 -0.2811 0.6786
vn -0.5000 -0.5000 0.7071
vn 0.0000 -0.7071 0.7071
vn 0.7071 0.7071 0.0000
vn 0.9239 0.3827 0.0000
vn -0.7071 0.7071 0.0000
vn -0.9239 0.3827 0.0000
vn 0.0000 0.0000 -1.0000
usemtl Material
s 1
f 1/1/1 2/2/2 3/3/2
f 4/4/3 5/5/1 1/6/1
f 6/7/4 7/8/3 4/9/3
f 8/10/5 9/11/4 6/12/4
f 8/13/6 3/14/6 10/15/6
f 11/16/7 12/17/8 9/18/8
f 13/19/9 14/20/9 12/17/9
f 13/19/9 15/21/9 14/20/9
f 10/22/9 15/21/9 13/19/9
f 15/21/9 10/22/9 16/23/9
f 2/24/10 16/23/11 10/22/10
f 7/25/12 16/23/11 5/26/11
f 12/17/8 7/25/12 9/18/8
f 17/27/9 18/28/9 12/17/9
f 19/29/9 18/28/9 17/27/9
f 19/29/9 16/23/9 18/28/9
f 16/23/9 19/29/9 15/21/9
f 19/30/13 20/31/14 15/32/14
f 17/33/6 21/34/13 19/35/13
f 22/36/15 23/37/6 17/33/6
f 17/27/9 12/17/9 22/38/9
f 22/38/9 12/17/9 14/20/9
f 14/39/16 24/40/15 22/41/15
f 15/42/3 25/43/3 14/44/3
f 23/45/9 24/46/9 25/47/9
f 4/48/17 3/14/17 8/13/17
f 1/1/1 5/49/1 2/2/2
f 4/4/3 7/50/3 5/5/1
f 6/7/4 9/51/4 7/8/3
f 8/10/5 11/52/5 9/11/4
f 10/15/6 13/53/6 8/13/6
f 11/54/6 8/13/6 13/53/6
f 3/14/6 2/55/6 10/15/6
f 11/16/7 13/19/7 12/17/8
f 2/24/10 5/26/11 16/23/11
f 7/25/12 18/28/12 16/23/11
f 12/17/8 18/28/12 7/25/12
f 19/30/13 21/56/13 20/31/14
f 17/33/6 23/37/6 21/34/13
f 22/36/15 24/57/15 23/37/6
f 14/39/16 25/58/16 24/40/15
f 15/42/3 20/59/3 25/43/3
f 25/47/9 20/60/9 23/45/9
f 21/61/9 23/45/9 20/60/9
f 8/13/17 6/62/17 4/48/17
f 4/48/17 1/63/17 3/14/17
