# Blender v2.79 (sub 0) OBJ File: ''
# www.blender.org
mtllib gripper1.mtl
o Mesh3_Group5_Group2_Group1_Model
v 0.250000 -0.250000 -1.000000
v 0.250000 -0.250000 -0.500000
v -0.250000 -0.250000 -0.500000
v -0.250000 -0.250000 -1.000000
v 0.250000 -0.300000 1.500000
v 0.250000 -0.440000 1.500000
v 0.250000 -0.440000 0.500000
v 0.250000 0.250000 -1.000000
v 0.250000 0.250000 -0.500000
v 0.100000 -0.370000 1.500000
v -0.100000 -0.370000 1.500000
v -0.100000 -0.300000 1.500000
v -0.250000 -0.300000 1.500000
v -0.250000 -0.440000 1.500000
v 0.100000 -0.300000 1.500000
v 0.100000 -0.370000 1.480000
v -0.100000 -0.370000 1.480000
v 0.100000 -0.186706 1.012590
v 0.100000 -0.315242 1.480000
v 0.100000 -0.167422 1.017900
v -0.100000 -0.167422 1.017900
v -0.250000 0.250000 -0.500000
v -0.100000 -0.315242 1.480000
v -0.100000 -0.186706 1.012590
v -0.250000 0.250000 -1.000000
v -0.250000 -0.440000 0.500000
v 0.225000 -0.505000 0.550000
v 0.225000 -0.505000 1.450000
v -0.225000 -0.505000 0.550000
v -0.225000 -0.505000 1.450000
v 0.500000 0.176777 -0.823223
v 0.500000 0.250000 -1.000000
v -0.500000 0.250000 -1.000000
v -0.500000 0.176777 -0.823223
v 0.500000 0.000000 -0.750000
v 0.500000 -0.176777 -0.823223
v 0.500000 -0.250000 -1.000000
v 0.500000 -0.176777 -1.176780
v 0.500000 0.000000 -1.250000
v 0.500000 0.176777 -1.176780
v -0.500000 0.000000 -0.750000
v -0.500000 0.176777 -1.176780
v -0.500000 0.000000 -1.250000
v -0.500000 -0.176777 -1.176780
v -0.500000 -0.250000 -1.000000
v -0.500000 -0.176777 -0.823223
v 0.100000 -0.325242 1.470000
v -0.100000 -0.325242 1.470000
v -0.100000 -0.380000 1.470000
v 0.100000 -0.380000 1.470000
v 0.100000 -0.196706 1.002590
v -0.100000 -0.196706 1.002590
v 0.100000 -0.315242 1.480000
v -0.100000 -0.315242 1.480000
v -0.100000 -0.370000 1.480000
v 0.100000 -0.370000 1.480000
v 0.100000 -0.186706 1.012590
v -0.100000 -0.186706 1.012590
v -0.086603 0.050000 -1.300000
v -0.086603 0.000000 -1.300000
v -0.086603 -0.050000 -1.300000
v -0.086603 -0.050000 -1.160000
v -0.086603 0.000000 -1.160000
v -0.086603 0.050000 -1.160000
v 0.086603 0.000000 -1.300000
v 0.086603 -0.050000 -1.300000
v 0.000000 -0.100000 -1.300000
v 0.000000 0.100000 -1.300000
v 0.086603 0.050000 -1.300000
v 0.086603 0.050000 -1.160000
v 0.086603 0.000000 -1.160000
v 0.086603 -0.050000 -1.160000
v 0.000000 0.100000 -1.160000
v 0.000000 -0.100000 -1.160000
vt 0.211998 0.939950
vt 0.211998 0.921294
vt 0.229723 0.921294
vt 0.229723 0.939950
vt 0.056000 0.872146
vt 0.060884 0.871296
vt 0.066664 0.908121
vt 0.065816 0.946099
vt 0.068706 0.964511
vt 0.051264 0.967546
vt 0.048374 0.949133
vt 0.122549 0.884359
vt 0.122549 0.876894
vt 0.120111 0.876894
vt 0.120111 0.871296
vt 0.124988 0.871296
vt 0.124988 0.889958
vt 0.120111 0.889958
vt 0.120111 0.884359
vt 0.117952 0.949667
vt 0.117952 0.957132
vt 0.117246 0.957132
vt 0.117246 0.949667
vt 0.125940 0.961551
vt 0.125940 0.943461
vt 0.124073 0.942922
vt 0.124260 0.942202
vt 0.126647 0.942891
vt 0.126647 0.961550
vt 0.086432 0.966117
vt 0.081114 0.966117
vt 0.081114 0.947739
vt 0.074024 0.947739
vt 0.074024 0.966117
vt 0.068706 0.966117
vt 0.068706 0.889876
vt 0.086432 0.889876
vt 0.129222 0.942203
vt 0.129222 0.960862
vt 0.126835 0.961551
vt 0.126647 0.960831
vt 0.128515 0.960292
vt 0.128514 0.942202
vt 0.117953 0.942202
vt 0.117953 0.949667
vt 0.117246 0.949667
vt 0.117246 0.942202
vt 0.068706 0.871296
vt 0.086432 0.871296
vt 0.104157 0.964753
vt 0.104157 0.983415
vt 0.086432 0.983415
vt 0.086432 0.964753
vt 0.045484 0.892743
vt 0.046332 0.930721
vt 0.040552 0.967546
vt 0.035668 0.966696
vt 0.028041 0.889708
vt 0.030931 0.871296
vt 0.048374 0.874331
vt 0.211998 0.883806
vt 0.229723 0.883806
vt 0.086432 0.908609
vt 0.086432 0.871296
vt 0.104158 0.871296
vt 0.104158 0.908609
vt 0.890972 0.571890
vt 0.888930 0.574136
vt 0.883150 0.537311
vt 0.885770 0.538747
vt 0.944034 0.626880
vt 0.944034 0.608217
vt 0.946339 0.609151
vt 0.946339 0.625947
vt 0.926423 0.570893
vt 0.926423 0.537311
vt 0.942376 0.537311
vt 0.942376 0.570893
vt 0.949846 0.538245
vt 0.949846 0.555041
vt 0.947254 0.555974
vt 0.947254 0.537311
vt 0.865437 0.632126
vt 0.862817 0.633561
vt 0.868597 0.596737
vt 0.870639 0.598983
vt 0.772887 0.961948
vt 0.766405 0.961948
vt 0.766405 0.924624
vt 0.772887 0.924624
vt 0.700631 0.962177
vt 0.695845 0.967216
vt 0.689077 0.967203
vt 0.684291 0.962145
vt 0.684291 0.955006
vt 0.689077 0.949968
vt 0.695845 0.949981
vt 0.700631 0.955038
vt 0.791150 0.924624
vt 0.785472 0.924624
vt 0.785472 0.887299
vt 0.791150 0.887299
vt 0.736510 0.965787
vt 0.729742 0.965774
vt 0.724956 0.960716
vt 0.724956 0.953577
vt 0.729742 0.948539
vt 0.736510 0.948552
vt 0.741296 0.953610
vt 0.741296 0.960748
vt 0.760408 0.961948
vt 0.760408 0.924624
vt 0.760408 0.887299
vt 0.766675 0.887299
vt 0.766675 0.924624
vt 0.772942 0.887299
vt 0.772942 0.924624
vt 0.779271 0.887299
vt 0.779271 0.924624
vt 0.785472 0.887299
vt 0.785472 0.924624
vt 0.797789 0.924624
vt 0.797789 0.887299
vt 0.591589 0.716164
vt 0.591589 0.723629
vt 0.589681 0.723629
vt 0.589681 0.716164
vt 0.580238 0.720927
vt 0.587328 0.720927
vt 0.587328 0.738745
vt 0.580238 0.738745
vt 0.678214 0.721372
vt 0.678214 0.713907
vt 0.680122 0.713907
vt 0.680122 0.721372
vt 0.687575 0.713907
vt 0.694666 0.713907
vt 0.694666 0.731725
vt 0.687575 0.731725
vt 0.895920 0.968865
vt 0.894152 0.968865
vt 0.892384 0.968865
vt 0.892384 0.963640
vt 0.894152 0.963640
vt 0.895920 0.963640
vt 0.962607 0.886985
vt 0.964142 0.887918
vt 0.964142 0.891650
vt 0.961071 0.893517
vt 0.959536 0.892583
vt 0.958001 0.891650
vt 0.958001 0.887918
vt 0.961071 0.886052
vt 0.895920 0.963640
vt 0.897688 0.963640
vt 0.899456 0.963640
vt 0.899456 0.968865
vt 0.897688 0.968865
vt 0.895920 0.968865
vt 0.882437 0.966872
vt 0.882271 0.963640
vt 0.887213 0.963640
vt 0.887379 0.966872
vt 0.964142 0.895351
vt 0.964142 0.897185
vt 0.964142 0.899019
vt 0.961071 0.900853
vt 0.958001 0.899019
vt 0.958001 0.897185
vt 0.958001 0.895351
vt 0.961071 0.893517
vt 0.882271 0.970104
vt 0.887213 0.970104
vt 0.892384 0.966872
vt 0.892340 0.970104
vt 0.887379 0.970104
vt 0.887422 0.966872
vt 0.892340 0.963640
vt 0.887379 0.963640
vn 0.0000 -1.0000 0.0000
vn 1.0000 0.0000 0.0000
vn 0.0000 0.0000 1.0000
vn 0.0000 1.0000 0.0000
vn -1.0000 0.0000 0.0000
vn 0.0000 0.9642 0.2652
vn -0.0000 -0.2652 0.9642
vn 0.0000 0.0000 -1.0000
vn 0.0000 -0.9824 -0.1867
vn 0.9333 -0.3590 0.0000
vn 0.0000 -0.6097 -0.7926
vn 0.0000 -0.6097 0.7926
vn -0.9333 -0.3590 0.0000
vn 0.0000 0.7071 0.7071
vn 0.0000 0.7071 -0.7071
vn 0.0000 -0.7071 -0.7071
vn 0.0000 -0.7071 0.7071
vn 0.5000 0.8660 0.0000
vn -0.5000 0.8660 0.0000
vn -0.5000 -0.8660 0.0000
vn 0.5000 -0.8660 0.0000
usemtl FrontColor
s 1
f 1/1/1 2/2/1 3/3/1 4/4/1
f 5/5/2 6/6/2 7/7/2 2/8/2 1/9/2 8/10/2 9/11/2
f 10/12/3 11/13/3 12/14/3 13/15/3 14/16/3 6/17/3 5/18/3 15/19/3
f 11/20/4 10/21/4 16/22/4 17/23/4
f 18/24/5 19/25/5 16/26/5 10/27/5 15/28/5 20/29/5
f 13/30/6 12/31/6 21/32/6 20/33/6 15/34/6 5/35/6 9/36/6 22/37/6
f 21/38/2 12/39/2 11/40/2 17/41/2 23/42/2 24/43/2
f 20/44/7 21/45/7 24/46/7 18/47/7
f 9/36/4 8/48/4 25/49/4 22/37/4
f 8/50/8 1/51/8 4/52/8 25/53/8
f 3/54/5 26/55/5 14/56/5 13/57/5 22/58/5 25/59/5 4/60/5
f 2/2/9 7/61/9 26/62/9 3/3/9
f 7/63/1 6/64/1 14/65/1 26/66/1
f 27/67/10 7/68/10 6/69/10 28/70/10
f 26/71/11 7/72/11 27/73/11 29/74/11
f 27/75/1 28/76/1 30/77/1 29/78/1
f 30/79/12 28/80/12 6/81/12 14/82/12
f 30/83/13 14/84/13 26/85/13 29/86/13
f 31/87/14 32/88/4 33/89/4 34/90/14
f 31/91/2 35/92/2 36/93/2 37/94/2 38/95/2 39/96/2 40/97/2 32/98/2
f 35/99/3 31/100/14 34/101/14 41/102/3
f 41/103/5 34/104/5 33/105/5 42/106/5 43/107/5 44/108/5 45/109/5 46/110/5
f 32/88/4 40/111/15 42/112/15 33/89/4
f 40/113/15 39/114/8 43/115/8 42/112/15
f 39/114/8 38/116/16 44/117/16 43/115/8
f 38/116/16 37/118/1 45/119/1 44/117/16
f 37/118/1 36/120/17 46/121/17 45/119/1
f 36/122/17 35/99/3 41/102/3 46/123/17
f 47/124/3 48/125/3 49/126/3 50/127/3
f 48/128/6 47/129/6 51/130/6 52/131/6
f 53/132/3 54/133/3 55/134/3 56/135/3
f 54/136/6 53/137/6 57/138/6 58/139/6
f 59/140/5 60/141/5 61/142/5 62/143/5 63/144/5 64/145/5
f 65/146/8 66/147/8 67/148/8 61/149/8 60/150/8 59/151/8 68/152/8 69/153/8
f 66/154/2 65/155/2 69/156/2 70/157/2 71/158/2 72/159/2
f 73/160/18 70/161/18 69/162/18 68/163/18
f 72/164/3 71/165/3 70/166/3 73/167/3 64/168/3 63/169/3 62/170/3 74/171/3
f 64/172/19 73/160/19 68/163/19 59/173/19
f 74/174/20 62/175/20 61/176/20 67/177/20
f 72/178/21 74/174/21 67/177/21 66/179/21
