# Blender v2.77 (sub 0) OBJ File: 'mjm_HublessBearing_sm.blend'
# www.blender.org
mtllib mjm_HublessBearing_sm.mtl
o Mesh1_Group1_Model
v 0.800000 0.218804 -0.500000
v 0.500000 0.207107 -0.500000
v 0.500000 0.207107 -0.400000
v 0.800000 0.218804 -0.400000
v 0.800000 -0.218804 -0.500000
v 0.500000 -0.207107 -0.500000
v 0.800000 -0.218804 -0.400000
v 1.080000 -0.218804 -0.300000
v 1.080000 0.218804 -0.300000
v 1.080000 -0.218804 -0.100000
v 0.850000 -0.218804 -0.100000
v 0.850000 -0.218804 0.100000
v 1.080000 -0.218804 0.100000
v 1.080000 -0.218804 0.500000
v 0.900000 -0.218804 0.500000
v 0.800000 -0.218804 0.200000
v 1.080000 0.218804 -0.100000
v 0.800000 0.218804 0.200000
v 0.900000 0.218804 0.500000
v 1.080000 0.218804 0.500000
v 1.080000 0.218804 0.100000
v 0.850000 0.218804 0.100000
v 0.850000 0.218804 -0.100000
v 0.500000 -0.207107 -0.400000
v 0.400000 0.165685 -0.300000
v 0.400000 -0.165685 -0.300000
v 0.165685 -0.400000 -0.300000
v 0.165685 0.400000 -0.300000
v -0.165685 0.400000 -0.300000
v -0.400000 0.165685 -0.300000
v -0.400000 -0.165685 -0.300000
v -0.165685 -0.400000 -0.300000
v 0.207107 -0.500000 -0.400000
v 0.207107 -0.500000 -0.500000
v -0.207107 -0.500000 -0.500000
v -0.500000 -0.207107 -0.500000
v -0.500000 0.207107 -0.500000
v -0.207107 0.500000 -0.500000
v 0.207107 0.500000 -0.500000
v -0.207107 -0.500000 -0.400000
v -0.500000 -0.207107 -0.400000
v -0.500000 0.207107 -0.400000
v -0.207107 0.500000 -0.400000
v 0.207107 0.500000 -0.400000
v -0.800000 0.218804 -0.500000
v -0.800000 0.218804 -0.400000
v -0.800000 -0.218804 -0.500000
v -0.800000 -0.218804 -0.400000
v -0.800000 0.218804 0.200000
v -0.800000 -0.218804 0.200000
v -1.080000 0.218804 -0.300000
v -1.080000 0.218804 -0.100000
v -0.850000 0.218804 -0.100000
v -0.850000 0.218804 0.100000
v -1.080000 0.218804 0.100000
v -1.080000 0.218804 0.500000
v -0.900000 0.218804 0.500000
v -1.080000 -0.218804 -0.300000
v -0.900000 -0.218804 0.500000
v -1.080000 -0.218804 0.500000
v -1.080000 -0.218804 0.100000
v -0.850000 -0.218804 0.100000
v -0.850000 -0.218804 -0.100000
v -1.080000 -0.218804 -0.100000
vt 0.0368 0.9273
vt 0.0368 0.9185
vt 0.0396 0.9185
vt 0.0396 0.9273
vt 0.1013 0.8893
vt 0.1010 0.8805
vt 0.1133 0.8805
vt 0.1129 0.8893
vt 0.0895 0.9647
vt 0.0772 0.9647
vt 0.0772 0.9618
vt 0.0895 0.9618
vt 0.1133 0.8724
vt 0.1010 0.8724
vt 0.0649 0.8805
vt 0.0706 0.8724
vt 0.0762 0.8724
vt 0.0762 0.8791
vt 0.0818 0.8791
vt 0.0818 0.8724
vt 0.0930 0.8724
vt 0.0930 0.8776
vt 0.0846 0.8805
vt 0.0677 0.8805
vt 0.1212 0.8979
vt 0.1212 0.8851
vt 0.1268 0.8851
vt 0.1268 0.8979
vt 0.0424 0.9354
vt 0.0565 0.9273
vt 0.0649 0.9302
vt 0.0649 0.9354
vt 0.0537 0.9354
vt 0.0537 0.9287
vt 0.0481 0.9287
vt 0.0481 0.9354
vt 0.0772 0.9443
vt 0.0895 0.9443
vt 0.0895 0.9354
vt 0.0772 0.9354
vt 0.1212 0.9235
vt 0.1212 0.9107
vt 0.1262 0.9107
vt 0.1262 0.9235
vt 0.1008 0.9482
vt 0.1008 0.9354
vt 0.1120 0.9354
vt 0.1120 0.9482
vt 0.4336 0.9672
vt 0.4271 0.9672
vt 0.4271 0.9544
vt 0.4336 0.9544
vt 0.4374 0.9041
vt 0.4430 0.9041
vt 0.4430 0.9169
vt 0.4374 0.9169
vt 0.4271 0.9672
vt 0.4207 0.9672
vt 0.4207 0.9544
vt 0.4271 0.9544
vt 0.1204 0.9482
vt 0.1120 0.9479
vt 0.1120 0.9358
vt 0.1204 0.9354
vt 0.4593 0.9370
vt 0.4593 0.9273
vt 0.4623 0.9261
vt 0.4623 0.9382
vt 0.0555 0.9383
vt 0.0621 0.9452
vt 0.0621 0.9549
vt 0.0555 0.9617
vt 0.0462 0.9617
vt 0.0396 0.9549
vt 0.0396 0.9452
vt 0.0462 0.9383
vt 0.3900 0.9261
vt 0.3982 0.9347
vt 0.3954 0.9359
vt 0.3888 0.9290
vt 0.0649 0.8979
vt 0.0649 0.8893
vt 0.0677 0.8893
vt 0.0677 0.8979
vt 0.1212 0.8979
vt 0.1212 0.9099
vt 0.1129 0.9185
vt 0.1013 0.9185
vt 0.0930 0.9099
vt 0.0930 0.8979
vt 0.0649 0.9099
vt 0.0677 0.9099
vt 0.4010 0.9006
vt 0.4010 0.8886
vt 0.4038 0.8898
vt 0.4038 0.8994
vt 0.3783 0.9261
vt 0.3795 0.9290
vt 0.3729 0.9359
vt 0.3701 0.9347
vt 0.4625 0.9135
vt 0.4595 0.9123
vt 0.4595 0.9026
vt 0.4625 0.9014
vt 0.3701 0.9468
vt 0.3729 0.9456
vt 0.3795 0.9524
vt 0.3783 0.9553
vt 0.3757 0.8898
vt 0.3757 0.8994
vt 0.3729 0.9006
vt 0.3729 0.8886
vt 0.3888 0.9524
vt 0.3954 0.9456
vt 0.3982 0.9468
vt 0.3900 0.9553
vt 0.0368 0.9099
vt 0.0396 0.9099
vt 0.0368 0.8979
vt 0.0396 0.8979
vt 0.0368 0.8893
vt 0.0396 0.8893
vt 0.0368 0.8805
vt 0.0396 0.8805
vt 0.1133 0.9273
vt 0.1010 0.9273
vt 0.0649 0.9273
vt 0.0649 0.9185
vt 0.0677 0.9185
vt 0.0677 0.9273
vt 0.0980 0.9610
vt 0.0895 0.9606
vt 0.0895 0.9485
vt 0.0980 0.9482
vt 0.0649 0.9618
vt 0.0649 0.9443
vt 0.0772 0.9443
vt 0.0772 0.9618
vt 0.0424 0.8724
vt 0.0481 0.8724
vt 0.0481 0.8791
vt 0.0537 0.8791
vt 0.0537 0.8724
vt 0.0649 0.8724
vt 0.0649 0.8776
vt 0.0565 0.8805
vt 0.1010 0.9354
vt 0.1133 0.9354
vt 0.0772 0.9647
vt 0.0649 0.9647
vt 0.0706 0.9354
vt 0.0846 0.9273
vt 0.0930 0.9302
vt 0.0930 0.9354
vt 0.0818 0.9354
vt 0.0818 0.9287
vt 0.0762 0.9287
vt 0.0762 0.9354
vt 0.0772 0.9354
vt 0.0649 0.9354
vt 0.1238 0.9610
vt 0.1238 0.9482
vt 0.1289 0.9482
vt 0.1289 0.9610
vt 0.0895 0.9482
vt 0.0895 0.9354
vt 0.1008 0.9354
vt 0.1008 0.9482
vt 0.4336 0.9544
vt 0.4401 0.9544
vt 0.4401 0.9672
vt 0.4336 0.9672
vt 0.4430 0.8913
vt 0.4374 0.8913
vt 0.4374 0.8786
vt 0.4430 0.8786
vt 0.4142 0.9544
vt 0.4207 0.9544
vt 0.4207 0.9672
vt 0.4142 0.9672
vt 0.1204 0.9482
vt 0.1204 0.9354
vt 0.1260 0.9354
vt 0.1260 0.9482
vn -0.0390 0.9992 0.0000
vn 0.0000 -0.0000 -1.0000
vn -1.0000 0.0000 0.0000
vn 0.5812 0.0000 -0.8137
vn -0.0000 -1.0000 -0.0000
vn 1.0000 0.0000 0.0000
vn 0.0000 1.0000 -0.0000
vn -0.9487 0.0000 0.3162
vn 0.0000 0.0000 1.0000
vn 0.7071 0.0000 0.7071
vn 0.5000 -0.5000 0.7071
vn 0.7071 -0.7071 0.0000
vn -0.0000 -0.7071 0.7071
vn -0.5000 -0.5000 0.7071
vn -0.7071 0.0000 0.7071
vn -0.5000 0.5000 0.7071
vn -0.0000 0.7071 0.7071
vn 0.5000 0.5000 0.7071
vn 0.7071 0.7071 0.0000
vn -0.7071 0.7071 0.0000
vn 0.0390 0.9992 0.0000
vn 0.0390 -0.9992 0.0000
vn -0.7071 -0.7071 -0.0000
vn -0.5812 0.0000 -0.8137
vn 0.9487 0.0000 0.3162
vn -0.0390 -0.9992 0.0000
usemtl Material
s 1
f 1/1/1 2/2/1 3/3/1 4/4/1
f 2/5/2 1/6/2 5/7/2 6/8/2
f 1/9/3 5/10/3 7/11/3 4/12/3
f 8/13/4 5/7/4 1/6/4 9/14/4
f 5/15/5 8/16/5 10/17/5 11/18/5 12/19/5 13/20/5 14/21/5 15/22/5 16/23/5 7/24/5
f 8/25/6 9/26/6 17/27/6 10/28/6
f 9/29/7 1/1/7 4/4/7 18/30/7 19/31/7 20/32/7 21/33/7 22/34/7 23/35/7 17/36/7
f 7/11/3 16/37/3 18/38/3 4/12/3
f 19/39/8 18/38/8 16/37/8 15/40/8
f 19/41/9 15/42/9 14/43/9 20/44/9
f 13/45/6 21/46/6 20/47/6 14/48/6
f 13/49/2 12/50/2 22/51/2 21/52/2
f 12/53/6 11/54/6 23/55/6 22/56/6
f 11/57/9 10/58/9 17/59/9 23/60/9
f 4/61/9 3/62/9 24/63/9 7/64/9
f 25/65/10 26/66/10 24/67/10 3/68/10
f 27/69/9 26/70/9 25/71/9 28/72/9 29/73/9 30/74/9 31/75/9 32/76/9
f 33/77/11 24/78/11 26/79/11 27/80/11
f 34/81/12 6/82/12 24/83/12 33/84/12
f 6/8/2 34/85/2 35/86/2 36/87/2 37/88/2 38/89/2 39/90/2 2/5/2
f 35/91/5 34/81/5 33/84/5 40/92/5
f 40/93/13 33/94/13 27/95/13 32/96/13
f 40/97/14 32/98/14 31/99/14 41/100/14
f 41/101/15 31/102/15 30/103/15 42/104/15
f 42/105/16 30/106/16 29/107/16 43/108/16
f 29/109/17 28/110/17 44/111/17 43/112/17
f 28/113/18 25/114/18 3/115/18 44/116/18
f 2/2/19 39/117/19 44/118/19 3/3/19
f 39/117/7 38/119/7 43/120/7 44/118/7
f 38/119/20 37/121/20 42/122/20 43/120/20
f 37/121/21 45/123/21 46/124/21 42/122/21
f 36/87/2 47/125/2 45/126/2 37/88/2
f 47/127/22 36/128/22 41/129/22 48/130/22
f 36/128/23 35/91/23 40/92/23 41/129/23
f 48/131/9 41/132/9 42/133/9 46/134/9
f 46/135/6 49/136/6 50/137/6 48/138/6
f 45/123/7 51/139/7 52/140/7 53/141/7 54/142/7 55/143/7 56/144/7 57/145/7 49/146/7 46/124/7
f 51/147/24 45/126/24 47/125/24 58/148/24
f 47/149/6 45/150/6 46/135/6 48/138/6
f 58/151/5 47/127/5 48/130/5 50/152/5 59/153/5 60/154/5 61/155/5 62/156/5 63/157/5 64/158/5
f 59/159/25 50/137/25 49/136/25 57/160/25
f 59/161/9 57/162/9 56/163/9 60/164/9
f 55/165/3 61/166/3 60/167/3 56/168/3
f 55/169/2 54/170/2 62/171/2 61/172/2
f 54/173/3 53/174/3 63/175/3 62/176/3
f 53/177/9 52/178/9 64/179/9 63/180/9
f 51/181/3 58/182/3 64/183/3 52/184/3
f 6/82/26 5/15/26 7/24/26 24/83/26
