# Blender v2.77 (sub 0) OBJ File: 'mjm_HublessBearing_lg.blend'
# www.blender.org
mtllib mjm_HublessBearing_lg.mtl
o Mesh1_Group1_Model.002
v 0.207107 -0.500000 -0.500000
v 0.500000 -0.207107 -0.500000
v 0.500000 -0.207107 -0.400000
v 0.207107 -0.500000 -0.400000
v -0.207107 -0.500000 -0.500000
v -0.500000 -0.207107 -0.500000
v -0.500000 0.207107 -0.500000
v -0.207107 0.500000 -0.500000
v 0.207107 0.500000 -0.500000
v 0.500000 0.207107 -0.500000
v -0.207107 -0.500000 -0.400000
v 0.165685 -0.400000 -0.300000
v -0.165685 -0.400000 -0.300000
v 0.400000 -0.165685 -0.300000
v 0.400000 0.165685 -0.300000
v 0.500000 0.207107 -0.400000
v 0.165685 0.400000 -0.300000
v -0.165685 0.400000 -0.300000
v -0.400000 0.165685 -0.300000
v -0.400000 -0.165685 -0.300000
v 0.207107 0.500000 -0.400000
v -0.207107 0.500000 -0.400000
v -0.500000 0.207107 -0.400000
v -0.810000 0.218804 -0.500000
v -0.810000 0.218804 -0.400000
v -0.810000 -0.218804 -0.500000
v -0.500000 -0.207107 -0.400000
v -0.810000 -0.218804 -0.400000
v -1.600000 -0.218804 0.400000
v -1.600000 0.218804 0.400000
v -1.880000 -0.218804 0.400000
v -0.991250 -0.218804 -0.500000
v -1.600000 -0.218804 1.200000
v -1.700000 -0.218804 1.500000
v -1.880000 -0.218804 1.500000
v -1.880000 -0.218804 1.100000
v -1.650000 -0.218804 1.100000
v -1.650000 -0.218804 0.900000
v -1.880000 -0.218804 0.900000
v -1.600000 0.218804 1.200000
v -1.880000 0.218804 0.400000
v -1.880000 0.218804 0.407273
v -1.880000 0.218804 0.900000
v -1.650000 0.218804 0.900000
v -1.650000 0.218804 1.100000
v -1.880000 0.218804 1.100000
v -1.880000 0.218804 1.500000
v -1.700000 0.218804 1.500000
v -0.991250 0.218804 -0.500000
v 0.810000 0.218804 -0.500000
v 0.810000 0.218804 -0.400000
v 0.810000 -0.218804 -0.500000
v 0.810000 -0.218804 -0.400000
v 0.991250 -0.218804 -0.500000
v 1.880000 -0.218804 0.400000
v 1.600000 -0.218804 0.400000
v 0.991250 0.218804 -0.500000
v 1.600000 0.218804 0.400000
v 1.880000 0.218804 0.400000
v 1.600000 0.218804 1.200000
v 1.600000 -0.218804 1.200000
v 1.700000 0.218804 1.500000
v 1.880000 0.218804 1.500000
v 1.880000 0.218804 1.100000
v 1.650000 0.218804 1.100000
v 1.650000 0.218804 0.900000
v 1.880000 0.218804 0.900000
v 1.700000 -0.218804 1.500000
v 1.880000 -0.218804 0.407273
v 1.880000 -0.218804 0.900000
v 1.650000 -0.218804 0.900000
v 1.650000 -0.218804 1.100000
v 1.880000 -0.218804 1.100000
v 1.880000 -0.218804 1.500000
vt 0.0230 0.9077
vt 0.0230 0.9001
vt 0.0252 0.9001
vt 0.0252 0.9077
vt 0.1193 0.9258
vt 0.1127 0.9183
vt 0.1127 0.9077
vt 0.1193 0.9001
vt 0.1286 0.9001
vt 0.1352 0.9077
vt 0.1352 0.9183
vt 0.1286 0.9258
vt 0.0230 0.9183
vt 0.0252 0.9183
vt 0.3609 0.9578
vt 0.3609 0.9472
vt 0.3631 0.9482
vt 0.3631 0.9567
vt 0.3674 0.9397
vt 0.3684 0.9422
vt 0.4158 0.9520
vt 0.4158 0.9605
vt 0.4134 0.9615
vt 0.4134 0.9509
vt 0.0252 0.9697
vt 0.0305 0.9637
vt 0.0379 0.9637
vt 0.0432 0.9697
vt 0.0432 0.9782
vt 0.0379 0.9842
vt 0.0305 0.9842
vt 0.0252 0.9782
vt 0.3811 0.9482
vt 0.3758 0.9422
vt 0.3767 0.9397
vt 0.3833 0.9472
vt 0.1127 0.9001
vt 0.1127 0.9077
vt 0.1105 0.9077
vt 0.1105 0.9001
vt 0.1127 0.9183
vt 0.1105 0.9183
vt 0.1127 0.9258
vt 0.1105 0.9258
vt 0.1127 0.9337
vt 0.1105 0.9337
vt 0.1289 0.8922
vt 0.1190 0.8922
vt 0.0230 0.9337
vt 0.0230 0.9258
vt 0.0252 0.9258
vt 0.0252 0.9337
vt 0.3684 0.9627
vt 0.3674 0.9653
vt 0.4110 0.9509
vt 0.4134 0.9520
vt 0.4134 0.9605
vt 0.4110 0.9615
vt 0.3767 0.9653
vt 0.3758 0.9627
vt 0.3811 0.9567
vt 0.3833 0.9578
vt 0.0830 0.9612
vt 0.0899 0.9615
vt 0.0899 0.9721
vt 0.0830 0.9724
vt 0.1450 0.8931
vt 0.1450 0.9148
vt 0.1352 0.9148
vt 0.1352 0.8931
vt 0.0432 0.9540
vt 0.0432 0.9612
vt 0.0230 0.9384
vt 0.0611 0.9540
vt 0.0679 0.9565
vt 0.0679 0.9612
vt 0.0589 0.9612
vt 0.0589 0.9553
vt 0.0544 0.9553
vt 0.0544 0.9612
vt 0.1450 0.8726
vt 0.1352 0.8726
vt 0.0925 0.9540
vt 0.0925 0.9612
vt 0.0924 0.9612
vt 0.0813 0.9612
vt 0.0813 0.9553
vt 0.0768 0.9553
vt 0.0768 0.9612
vt 0.0679 0.9612
vt 0.0679 0.9565
vt 0.0746 0.9540
vt 0.1127 0.9384
vt 0.1190 0.8875
vt 0.1289 0.8875
vt 0.1190 0.8648
vt 0.1289 0.8648
vt 0.0454 0.9612
vt 0.0552 0.9612
vt 0.0552 0.9738
vt 0.0552 0.9740
vt 0.0454 0.9740
vt 0.4503 0.9397
vt 0.4554 0.9397
vt 0.4554 0.9509
vt 0.4503 0.9509
vt 0.4599 0.9397
vt 0.4644 0.9397
vt 0.4644 0.9509
vt 0.4599 0.9509
vt 0.4451 0.9509
vt 0.4399 0.9509
vt 0.4399 0.9397
vt 0.4451 0.9397
vt 0.0651 0.9724
vt 0.0651 0.9612
vt 0.0740 0.9612
vt 0.0740 0.9724
vt 0.0691 0.9836
vt 0.0691 0.9724
vt 0.0731 0.9724
vt 0.0731 0.9836
vt 0.1450 0.8648
vt 0.1352 0.8648
vt 0.1127 0.8922
vt 0.1105 0.8922
vt 0.1190 0.9337
vt 0.1289 0.9337
vt 0.0230 0.8922
vt 0.0252 0.8922
vt 0.0230 0.8875
vt 0.0432 0.8648
vt 0.0432 0.8719
vt 0.1289 0.9384
vt 0.1190 0.9384
vt 0.0925 0.8719
vt 0.0925 0.8648
vt 0.1127 0.8875
vt 0.1352 0.9366
vt 0.1352 0.9148
vt 0.1450 0.9148
vt 0.1450 0.9366
vt 0.0969 0.9724
vt 0.0899 0.9721
vt 0.0899 0.9615
vt 0.0969 0.9612
vt 0.1352 0.9571
vt 0.1450 0.9571
vt 0.0746 0.8719
vt 0.0679 0.8694
vt 0.0679 0.8648
vt 0.0768 0.8648
vt 0.0768 0.8707
vt 0.0813 0.8707
vt 0.0813 0.8648
vt 0.1352 0.9649
vt 0.1450 0.9649
vt 0.0433 0.8648
vt 0.0544 0.8648
vt 0.0544 0.8707
vt 0.0589 0.8707
vt 0.0589 0.8648
vt 0.0679 0.8648
vt 0.0679 0.8694
vt 0.0611 0.8719
vt 0.0552 0.9612
vt 0.0651 0.9612
vt 0.0651 0.9738
vt 0.0651 0.9740
vt 0.0552 0.9740
vt 0.4503 0.9509
vt 0.4451 0.9509
vt 0.4451 0.9397
vt 0.4503 0.9397
vt 0.4554 0.9397
vt 0.4599 0.9397
vt 0.4599 0.9509
vt 0.4554 0.9509
vt 0.4348 0.9397
vt 0.4399 0.9397
vt 0.4399 0.9509
vt 0.4348 0.9509
vt 0.0830 0.9612
vt 0.0830 0.9724
vt 0.0740 0.9724
vt 0.0740 0.9612
vt 0.0651 0.9836
vt 0.0651 0.9724
vt 0.0691 0.9724
vt 0.0691 0.9836
vt 0.1289 0.9612
vt 0.1190 0.9612
vn 0.7071 -0.7071 0.0000
vn 0.0000 -0.0000 -1.0000
vn 0.0000 -1.0000 0.0000
vn -0.0000 -0.7071 0.7071
vn 0.5000 -0.5000 0.7071
vn 0.7071 0.0000 0.7071
vn -0.0000 0.0000 1.0000
vn 0.5000 0.5000 0.7071
vn 0.7071 0.7071 0.0000
vn 0.0000 1.0000 -0.0000
vn -0.7071 0.7071 0.0000
vn 0.0377 0.9993 0.0000
vn 0.0377 -0.9993 0.0000
vn -0.7071 -0.7071 -0.0000
vn -0.5000 -0.5000 0.7071
vn -0.7071 0.0000 0.7071
vn -0.5000 0.5000 0.7071
vn -0.0000 0.7071 0.7071
vn 0.7115 0.0000 0.7026
vn 1.0000 0.0000 0.0000
vn -0.7115 0.0000 -0.7026
vn -1.0000 -0.0000 -0.0000
vn 0.9487 0.0000 0.3162
vn -0.0377 0.9993 0.0000
vn -0.0377 -0.9993 0.0000
vn -0.7115 0.0000 0.7026
vn -0.9487 0.0000 0.3162
vn 0.7115 0.0000 -0.7026
usemtl Material
s 1
f 1/1/1 2/2/1 3/3/1 4/4/1
f 2/5/2 1/6/2 5/7/2 6/8/2 7/9/2 8/10/2 9/11/2 10/12/2
f 5/13/3 1/1/3 4/4/3 11/14/3
f 11/15/4 4/16/4 12/17/4 13/18/4
f 4/16/5 3/19/5 14/20/5 12/17/5
f 15/21/6 14/22/6 3/23/6 16/24/6
f 12/25/7 14/26/7 15/27/7 17/28/7 18/29/7 19/30/7 20/31/7 13/32/7
f 17/33/8 15/34/8 16/35/8 21/36/8
f 10/37/9 9/38/9 21/39/9 16/40/9
f 9/38/10 8/41/10 22/42/10 21/39/10
f 7/43/11 23/44/11 22/42/11 8/41/11
f 7/43/12 24/45/12 25/46/12 23/44/12
f 24/47/2 7/9/2 6/8/2 26/48/2
f 26/49/13 6/50/13 27/51/13 28/52/13
f 6/50/14 5/13/14 11/14/14 27/51/14
f 11/15/15 13/18/15 20/53/15 27/54/15
f 27/55/16 20/56/16 19/57/16 23/58/16
f 23/59/17 19/60/17 18/61/17 22/62/17
f 18/61/18 17/33/18 21/36/18 22/62/18
f 28/63/7 27/64/7 23/65/7 25/66/7
f 29/67/19 28/68/19 25/69/19 30/70/19
f 26/49/3 28/52/3 29/71/3 31/72/3 32/73/3
f 31/72/3 29/71/3 33/74/3 34/75/3 35/76/3 36/77/3 37/78/3 38/79/3 39/80/3
f 33/81/20 29/67/20 30/70/20 40/82/20
f 30/83/10 41/84/10 42/85/10 43/86/10 44/87/10 45/88/10 46/89/10 47/90/10 48/91/10 40/92/10
f 25/46/10 24/45/10 49/93/10 41/84/10 30/83/10
f 26/48/2 32/94/2 49/95/2 24/47/2
f 32/94/21 31/96/21 41/97/21 49/95/21
f 39/98/22 43/99/22 42/100/22 41/101/22 31/102/22
f 44/103/7 43/104/7 39/105/7 38/106/7
f 45/107/22 44/108/22 38/109/22 37/110/22
f 46/111/2 45/112/2 37/113/2 36/114/2
f 46/115/22 36/116/22 35/117/22 47/118/22
f 34/119/7 48/120/7 47/121/7 35/122/7
f 34/123/23 33/81/23 40/82/23 48/124/23
f 50/125/24 10/37/24 16/40/24 51/126/24
f 52/127/2 2/5/2 10/12/2 50/128/2
f 2/2/25 52/129/25 53/130/25 3/3/25
f 53/130/3 52/129/3 54/131/3 55/132/3 56/133/3
f 50/128/2 57/134/2 54/135/2 52/127/2
f 50/125/10 51/126/10 58/136/10 59/137/10 57/138/10
f 58/139/26 51/140/26 53/141/26 56/142/26
f 51/143/7 16/144/7 3/145/7 53/146/7
f 60/147/22 58/139/22 56/142/22 61/148/22
f 59/137/10 58/136/10 60/149/10 62/150/10 63/151/10 64/152/10 65/153/10 66/154/10 67/155/10
f 62/156/27 60/147/27 61/148/27 68/157/27
f 56/133/3 55/132/3 69/158/3 70/159/3 71/160/3 72/161/3 73/162/3 74/163/3 68/164/3 61/165/3
f 67/166/20 70/167/20 69/168/20 55/169/20 59/170/20
f 71/171/7 70/172/7 67/173/7 66/174/7
f 72/175/20 71/176/20 66/177/20 65/178/20
f 73/179/2 72/180/2 65/181/2 64/182/2
f 73/183/20 64/184/20 63/185/20 74/186/20
f 62/187/7 68/188/7 74/189/7 63/190/7
f 57/134/28 59/191/28 55/192/28 54/135/28
