# Blender v2.77 (sub 0) OBJ File: 'mjm_laser_module_off.blend'
# www.blender.org
mtllib mjm_laser_module_off.mtl
o Mesh1_Group3_Group2_Group1_Model
v -0.138508 0.138508 0.292223
v -0.195880 -0.000000 0.092223
v -0.138508 -0.138508 0.292223
v -0.138508 0.138508 0.092223
v 0.000000 0.195880 0.092223
v 0.138508 0.138508 0.292223
v -0.138508 0.138508 0.392223
v 0.138508 0.138508 0.392223
v -0.138508 -0.138508 0.392223
v 0.138508 -0.138508 0.292223
v 0.138508 -0.138508 0.392223
v -0.000000 -0.195880 0.092223
v -0.138508 -0.138508 0.092223
v 0.138508 -0.138508 0.092223
v 0.195880 -0.000000 0.092223
v 0.138508 0.138508 0.092223
v -0.000000 -0.270000 0.152500
v 0.190919 -0.190919 0.152500
v 0.190919 -0.190919 0.197500
v -0.000000 -0.270000 0.197500
v -0.190919 -0.190919 0.152500
v -0.270000 -0.000000 0.152500
v -0.190919 0.190919 0.152500
v 0.000000 0.270000 0.152500
v 0.190919 0.190919 0.152500
v 0.270000 -0.000000 0.152500
v -0.190919 -0.190919 0.197500
v 0.270000 -0.000000 0.197500
v 0.190919 0.190919 0.197500
v 0.000000 0.270000 0.197500
v -0.190919 0.190919 0.197500
v -0.270000 -0.000000 0.197500
v -0.000000 -0.270000 0.252500
v 0.190919 -0.190919 0.252500
v 0.190919 -0.190919 0.297500
v -0.000000 -0.270000 0.297500
v -0.190919 -0.190919 0.252500
v -0.270000 -0.000000 0.252500
v -0.190919 0.190919 0.252500
v 0.000000 0.270000 0.252500
v 0.190919 0.190919 0.252500
v 0.270000 -0.000000 0.252500
v -0.190919 -0.190919 0.297500
v 0.270000 -0.000000 0.297500
v 0.190919 0.190919 0.297500
v 0.000000 0.270000 0.297500
v -0.190919 0.190919 0.297500
v -0.270000 -0.000000 0.297500
v -0.086603 -0.270000 0.050000
v -0.086603 -0.270000 -0.050000
v -0.000000 -0.270000 -0.100000
v 0.086603 -0.270000 -0.050000
v 0.086603 -0.270000 0.050000
v -0.000000 -0.270000 0.100000
v -0.086603 0.270000 0.050000
v -0.086603 0.270000 -0.050000
v -0.000000 0.270000 0.100000
v 0.086603 0.270000 0.050000
v 0.086603 0.270000 -0.050000
v -0.000000 0.270000 -0.100000
v -0.176777 -0.176777 0.500000
v -0.195880 -0.000000 0.500000
v -0.250000 -0.000000 0.500000
v -0.138508 -0.138508 0.500000
v -0.000000 -0.250000 0.500000
v -0.176777 -0.176777 -0.500000
v -0.000000 -0.250000 -0.500000
v 0.176777 -0.176777 -0.500000
v -0.250000 0.000000 -0.500000
v -0.176777 0.176777 -0.500000
v 0.000000 0.250000 -0.500000
v 0.176777 0.176777 -0.500000
v 0.250000 0.000000 -0.500000
v 0.176777 -0.176777 0.500000
v 0.250000 -0.000000 0.500000
v 0.176777 0.176777 0.500000
v 0.000000 0.250000 0.500000
v -0.176777 0.176777 0.500000
v -0.138508 0.138508 0.500000
v -0.195880 -0.000000 0.470000
v -0.138508 0.138508 0.470000
v -0.138508 -0.138508 0.470000
v -0.000000 -0.195880 0.500000
v -0.000000 -0.195880 0.470000
v 0.138508 -0.138508 0.500000
v 0.195880 -0.000000 0.500000
v 0.138508 0.138508 0.500000
v 0.000000 0.195880 0.500000
v 0.000000 0.195880 0.470000
v 0.138508 0.138508 0.470000
v 0.138508 -0.138508 0.470000
v 0.195880 -0.000000 0.470000
v -0.000000 -0.270000 -0.197500
v 0.190919 -0.190919 -0.197500
v 0.190919 -0.190919 -0.152500
v -0.000000 -0.270000 -0.152500
v -0.190919 -0.190919 -0.197500
v -0.270000 0.000000 -0.197500
v -0.190919 0.190919 -0.197500
v 0.000000 0.270000 -0.197500
v 0.190919 0.190919 -0.197500
v 0.270000 0.000000 -0.197500
v -0.190919 -0.190919 -0.152500
v 0.270000 0.000000 -0.152500
v 0.190919 0.190919 -0.152500
v 0.000000 0.270000 -0.152500
v -0.190919 0.190919 -0.152500
v -0.270000 0.000000 -0.152500
v -0.000000 -0.270000 -0.297500
v 0.190919 -0.190919 -0.297500
v 0.190919 -0.190919 -0.252500
v -0.000000 -0.270000 -0.252500
v -0.190919 -0.190919 -0.297500
v -0.270000 0.000000 -0.297500
v -0.190919 0.190919 -0.297500
v 0.000000 0.270000 -0.297500
v 0.190919 0.190919 -0.297500
v 0.270000 0.000000 -0.297500
v -0.190919 -0.190919 -0.252500
v 0.270000 0.000000 -0.252500
v 0.190919 0.190919 -0.252500
v 0.000000 0.270000 -0.252500
v -0.190919 0.190919 -0.252500
v -0.270000 0.000000 -0.252500
v -0.000000 -0.270000 0.352500
v 0.190919 -0.190919 0.352500
v 0.190919 -0.190919 0.397500
v -0.000000 -0.270000 0.397500
v -0.190919 -0.190919 0.352500
v -0.270000 -0.000000 0.352500
v -0.190919 0.190919 0.352500
v 0.000000 0.270000 0.352500
v 0.190919 0.190919 0.352500
v 0.270000 -0.000000 0.352500
v -0.190919 -0.190919 0.397500
v 0.270000 -0.000000 0.397500
v 0.190919 0.190919 0.397500
v 0.000000 0.270000 0.397500
v -0.190919 0.190919 0.397500
v -0.270000 -0.000000 0.397500
v -0.000000 -0.270000 -0.397500
v 0.190919 -0.190919 -0.397500
v 0.190919 -0.190919 -0.352500
v -0.000000 -0.270000 -0.352500
v -0.190919 -0.190919 -0.397500
v -0.270000 0.000000 -0.397500
v -0.190919 0.190919 -0.397500
v 0.000000 0.270000 -0.397500
v 0.190919 0.190919 -0.397500
v 0.270000 0.000000 -0.397500
v -0.190919 -0.190919 -0.352500
v 0.270000 0.000000 -0.352500
v 0.190919 0.190919 -0.352500
v 0.000000 0.270000 -0.352500
v -0.190919 0.190919 -0.352500
v -0.270000 0.000000 -0.352500
v -0.000000 0.000109 1000.000000
v -0.000095 -0.000055 1000.000000
v 0.000095 -0.000055 1000.000000
vt 0.0967 0.7996
vt 0.0830 0.7798
vt 0.0693 0.7996
vt 0.0967 0.7798
vt 0.0693 0.7996
vt 0.0830 0.7798
vt 0.0693 0.7798
vt 0.0967 0.7996
vt 0.0967 0.8095
vt 0.0967 0.8095
vt 0.0967 0.7996
vt 0.0693 0.8095
vt 0.0830 0.7798
vt 0.0693 0.7798
vt 0.0967 0.7798
vt 0.0830 0.7798
vt 0.0693 0.7996
vt 0.0693 0.7798
vt 0.0967 0.7798
vt 0.0693 0.8095
vt 0.0693 0.7196
vt 0.0967 0.7470
vt 0.0693 0.7470
vt 0.9515 0.6039
vt 0.9326 0.6083
vt 0.9326 0.6039
vt 0.9059 0.5888
vt 0.9326 0.6155
vt 0.9326 0.5620
vt 0.9137 0.6083
vt 0.9137 0.6039
vt 0.9515 0.6077
vt 0.9059 0.5888
vt 0.9137 0.5699
vt 0.9326 0.6039
vt 0.9137 0.6083
vt 0.9137 0.6039
vt 0.9515 0.6039
vt 0.9326 0.6083
vt 0.9326 0.6039
vt 0.9515 0.6083
vt 0.9137 0.6039
vt 0.9326 0.6083
vt 0.9326 0.6039
vt 0.9515 0.6083
vt 0.9515 0.6039
vt 0.9326 0.6083
vt 0.9326 0.6138
vt 0.9515 0.6182
vt 0.9326 0.6182
vt 0.9059 0.5888
vt 0.9326 0.6155
vt 0.9326 0.5620
vt 0.9137 0.6182
vt 0.9137 0.6138
vt 0.9515 0.6077
vt 0.9059 0.5888
vt 0.9137 0.5699
vt 0.9326 0.6138
vt 0.9137 0.6182
vt 0.9137 0.6138
vt 0.9515 0.6138
vt 0.9326 0.6182
vt 0.9326 0.6138
vt 0.9515 0.6182
vt 0.9137 0.6138
vt 0.9326 0.6182
vt 0.9326 0.6138
vt 0.9515 0.6182
vt 0.9515 0.6138
vt 0.9326 0.6182
vt 0.8615 0.6131
vt 0.8787 0.6131
vt 0.8701 0.6280
vt 0.8434 0.6230
vt 0.8968 0.6131
vt 0.8434 0.6131
vt 0.8615 0.5913
vt 0.8701 0.6448
vt 0.8615 0.6448
vt 0.8787 0.5913
vt 0.8701 0.5913
vt 0.8434 0.6131
vt 0.8968 0.6230
vt 0.8434 0.6230
vt 0.8701 0.5913
vt 0.8787 0.6448
vt 0.8787 0.5913
vt 0.8615 0.6448
vt 0.8701 0.6448
vt 0.8615 0.6230
vt 0.8787 0.6230
vt 0.8701 0.6082
vt 0.7374 0.9189
vt 0.7355 0.9364
vt 0.7301 0.9364
vt 0.7412 0.9227
vt 0.7549 0.9117
vt 0.7549 0.8869
vt 0.7374 0.9859
vt 0.7374 0.8869
vt 0.7301 0.9364
vt 0.7549 0.9612
vt 0.7796 0.9364
vt 0.7724 0.8869
vt 0.7549 0.9859
vt 0.7549 0.8869
vt 0.7374 0.9859
vt 0.7374 0.8869
vt 0.7724 0.8869
vt 0.7549 0.9859
vt 0.7549 0.8869
vt 0.7724 0.9859
vt 0.7374 0.8869
vt 0.7549 0.9859
vt 0.7549 0.8869
vt 0.7724 0.9859
vt 0.7724 0.8869
vt 0.7549 0.9859
vt 0.7374 0.9539
vt 0.7412 0.9501
vt 0.7549 0.9859
vt 0.7686 0.9829
vt 0.7686 0.9859
vt 0.7412 0.9859
vt 0.7549 0.9829
vt 0.7549 0.9859
vt 0.7412 0.9829
vt 0.7549 0.9170
vt 0.7724 0.9189
vt 0.7686 0.9227
vt 0.7743 0.9364
vt 0.7796 0.9364
vt 0.7724 0.9539
vt 0.7686 0.9501
vt 0.7549 0.9612
vt 0.7549 0.9558
vt 0.7412 0.9859
vt 0.7549 0.9829
vt 0.7549 0.9859
vt 0.8271 0.5822
vt 0.7513 0.6580
vt 0.7513 0.5063
vt 0.7686 0.9859
vt 0.7686 0.9829
vt 0.7549 0.9829
vt 0.7549 0.9859
vt 0.7412 0.9829
vt 0.7412 0.9859
vt 0.7686 0.9859
vt 0.7549 0.9829
vt 0.9515 0.5692
vt 0.9326 0.5737
vt 0.9326 0.5692
vt 0.9059 0.5888
vt 0.9326 0.6155
vt 0.9326 0.5620
vt 0.9137 0.5737
vt 0.9137 0.5692
vt 0.9515 0.6077
vt 0.9059 0.5888
vt 0.9137 0.5699
vt 0.9326 0.5692
vt 0.9137 0.5737
vt 0.9137 0.5692
vt 0.9515 0.5692
vt 0.9326 0.5737
vt 0.9326 0.5692
vt 0.9515 0.5737
vt 0.9137 0.5692
vt 0.9326 0.5737
vt 0.9515 0.5692
vt 0.9326 0.5737
vt 0.9515 0.5737
vt 0.9326 0.5692
vt 0.9515 0.5593
vt 0.9326 0.5638
vt 0.9326 0.5593
vt 0.9059 0.5888
vt 0.9326 0.6155
vt 0.9326 0.5620
vt 0.9137 0.5638
vt 0.9137 0.5593
vt 0.9515 0.6077
vt 0.9059 0.5888
vt 0.9137 0.5699
vt 0.9326 0.5593
vt 0.9137 0.5638
vt 0.9137 0.5593
vt 0.9515 0.5593
vt 0.9326 0.5638
vt 0.9326 0.5593
vt 0.9515 0.5638
vt 0.9137 0.5593
vt 0.9326 0.5638
vt 0.9326 0.5593
vt 0.9515 0.5638
vt 0.9515 0.5593
vt 0.9326 0.5638
vt 0.9515 0.6236
vt 0.9326 0.6281
vt 0.9326 0.6236
vt 0.9059 0.5888
vt 0.9326 0.6155
vt 0.9326 0.5620
vt 0.9137 0.6281
vt 0.9137 0.6236
vt 0.9515 0.6077
vt 0.9059 0.5888
vt 0.9137 0.5699
vt 0.9326 0.6236
vt 0.9137 0.6281
vt 0.9137 0.6236
vt 0.9515 0.6236
vt 0.9326 0.6281
vt 0.9326 0.6236
vt 0.9515 0.6281
vt 0.9137 0.6236
vt 0.9326 0.6281
vt 0.9326 0.6236
vt 0.9515 0.6281
vt 0.9515 0.6236
vt 0.9326 0.6281
vt 0.9515 0.5494
vt 0.9326 0.5539
vt 0.9326 0.5494
vt 0.9059 0.5888
vt 0.9326 0.6155
vt 0.9326 0.5620
vt 0.9137 0.5539
vt 0.9137 0.5494
vt 0.9515 0.6077
vt 0.9059 0.5888
vt 0.9137 0.5699
vt 0.9326 0.5494
vt 0.9137 0.5539
vt 0.9137 0.5494
vt 0.9515 0.5494
vt 0.9326 0.5539
vt 0.9326 0.5494
vt 0.9515 0.5539
vt 0.9137 0.5494
vt 0.9326 0.5539
vt 0.9326 0.5494
vt 0.9515 0.5539
vt 0.9515 0.5494
vt 0.9326 0.5539
vt 0.9014 0.2519
vt 0.8971 0.2445
vt 0.9056 0.2445
vt 0.0693 0.8095
vt 0.0967 0.8095
vt 0.0967 0.7196
vt 0.9515 0.6083
vt 0.9593 0.5888
vt 0.9515 0.5699
vt 0.9137 0.5699
vt 0.9137 0.6077
vt 0.9515 0.6077
vt 0.9326 0.5620
vt 0.9515 0.5699
vt 0.9593 0.5888
vt 0.9326 0.6155
vt 0.9137 0.6077
vt 0.9137 0.6083
vt 0.9515 0.6138
vt 0.9593 0.5888
vt 0.9515 0.5699
vt 0.9137 0.5699
vt 0.9137 0.6077
vt 0.9515 0.6077
vt 0.9326 0.5620
vt 0.9515 0.5699
vt 0.9593 0.5888
vt 0.9326 0.6155
vt 0.9137 0.6077
vt 0.9137 0.6182
vt 0.8615 0.6230
vt 0.8701 0.6082
vt 0.8787 0.6230
vt 0.8968 0.6230
vt 0.8787 0.6448
vt 0.8968 0.6131
vt 0.8615 0.5913
vt 0.8615 0.6131
vt 0.8701 0.6280
vt 0.8787 0.6131
vt 0.7724 0.9189
vt 0.7549 0.9117
vt 0.7374 0.9189
vt 0.7374 0.9539
vt 0.7724 0.9539
vt 0.7724 0.9859
vt 0.7374 0.9859
vt 0.7412 0.9829
vt 0.6755 0.5822
vt 0.6977 0.5285
vt 0.8049 0.5285
vt 0.8049 0.6358
vt 0.6977 0.6358
vt 0.7686 0.9829
vt 0.9515 0.5737
vt 0.9593 0.5888
vt 0.9515 0.5699
vt 0.9137 0.5699
vt 0.9137 0.6077
vt 0.9515 0.6077
vt 0.9326 0.5620
vt 0.9515 0.5699
vt 0.9593 0.5888
vt 0.9326 0.6155
vt 0.9137 0.6077
vt 0.9137 0.5737
vt 0.9515 0.5638
vt 0.9593 0.5888
vt 0.9515 0.5699
vt 0.9137 0.5699
vt 0.9137 0.6077
vt 0.9515 0.6077
vt 0.9326 0.5620
vt 0.9515 0.5699
vt 0.9593 0.5888
vt 0.9326 0.6155
vt 0.9137 0.6077
vt 0.9137 0.5638
vt 0.9515 0.6281
vt 0.9593 0.5888
vt 0.9515 0.5699
vt 0.9137 0.5699
vt 0.9137 0.6077
vt 0.9515 0.6077
vt 0.9326 0.5620
vt 0.9515 0.5699
vt 0.9593 0.5888
vt 0.9326 0.6155
vt 0.9137 0.6077
vt 0.9137 0.6281
vt 0.9515 0.5539
vt 0.9593 0.5888
vt 0.9515 0.5699
vt 0.9137 0.5699
vt 0.9137 0.6077
vt 0.9515 0.6077
vt 0.9326 0.5620
vt 0.9515 0.5699
vt 0.9593 0.5888
vt 0.9326 0.6155
vt 0.9137 0.6077
vt 0.9137 0.5539
vn -0.7021 0.7021 0.1186
vn -0.9952 0.0000 0.0977
vn -0.7021 -0.7021 0.1186
vn -0.7071 0.7071 0.0000
vn 0.0000 0.9952 0.0977
vn 0.7021 0.7021 0.1186
vn 0.5774 0.5774 0.5774
vn -0.5774 0.5774 0.5774
vn 0.6992 -0.7054 0.1162
vn -0.5774 -0.5774 0.5774
vn -0.0000 -0.9952 0.0977
vn -0.7071 -0.7071 -0.0000
vn 0.7071 -0.7071 -0.0000
vn 0.9952 -0.0000 0.0977
vn 0.7071 0.7071 0.0000
vn 0.5774 -0.5774 0.5774
vn -0.0000 -1.0000 0.0000
vn -0.0000 0.0000 -1.0000
vn 0.0000 -0.0000 1.0000
vn 1.0000 0.0000 0.0000
vn 0.0000 1.0000 0.0000
vn -1.0000 0.0000 0.0000
vn -0.8660 -0.0000 0.5000
vn -0.8660 0.0000 -0.5000
vn 0.8660 -0.0000 0.5000
vn 0.8660 0.0000 -0.5000
usemtl Material
s 1
f 1/1/1 2/2/2 3/3/3
f 2/2/2 1/1/1 4/4/4
f 1/5/1 5/6/5 4/7/4
f 5/6/5 1/5/1 6/8/6
f 1/5/1 8/9/7 6/8/6
f 3/3/3 7/10/8 1/1/1
f 10/11/9 9/12/10 3/3/3
f 3/3/3 12/13/11 10/11/9
f 3/3/3 13/14/12 12/13/11
f 3/3/3 2/2/2 13/14/12
f 10/11/9 12/13/11 14/15/13
f 15/16/14 10/17/9 14/18/13
f 10/17/9 15/16/14 6/8/6
f 6/8/6 15/16/14 16/19/15
f 5/6/5 6/8/6 16/19/15
f 6/8/6 11/20/16 10/17/9
f 9/21/10 8/22/7 7/23/8
f 18/24/13 20/25/17 17/26/17
f 22/27/18 24/28/18 17/29/18
f 17/26/17 27/30/12 21/31/12
f 29/32/19 32/33/19 27/34/19
f 26/35/20 19/36/13 18/37/13
f 25/38/15 28/39/20 26/35/20
f 24/40/21 29/41/15 25/38/15
f 23/42/4 30/43/21 24/40/21
f 22/44/22 31/45/4 23/46/4
f 21/31/12 32/47/22 22/44/22
f 33/48/17 35/49/13 36/50/17
f 38/51/18 40/52/18 33/53/18
f 33/48/17 43/54/12 37/55/12
f 45/56/19 48/57/19 43/58/19
f 42/59/20 35/60/13 34/61/13
f 41/62/15 44/63/20 42/59/20
f 40/64/21 45/65/15 41/62/15
f 39/66/4 46/67/21 40/64/21
f 38/68/22 47/69/4 39/70/4
f 37/55/12 48/71/22 38/68/22
f 50/72/17 52/73/17 54/74/17
f 49/75/23 56/76/24 50/77/24
f 49/78/23 57/79/19 55/80/23
f 53/81/25 57/79/19 54/82/19
f 52/83/26 58/84/25 53/85/25
f 51/86/18 59/87/26 52/88/26
f 51/86/18 56/89/24 60/90/18
f 55/91/21 58/92/21 60/93/21
f 61/94/19 62/95/19 63/96/19
f 62/95/19 61/94/19 64/97/19
f 64/97/19 61/94/19 65/98/19
f 67/99/17 61/100/12 66/101/12
f 69/102/18 71/103/18 73/104/18
f 68/105/13 65/106/17 67/99/17
f 73/107/20 74/108/13 68/109/13
f 72/110/15 75/111/20 73/107/20
f 71/112/21 76/113/15 72/110/15
f 70/114/4 77/115/21 71/112/21
f 69/116/22 78/117/4 70/118/4
f 66/101/12 63/119/22 69/116/22
f 62/95/19 78/120/19 63/96/19
f 78/120/19 62/95/19 79/121/19
f 62/122/20 81/123/13 79/124/13
f 64/125/15 80/126/20 62/122/20
f 83/127/21 82/128/15 64/125/15
f 64/97/19 65/98/19 83/129/19
f 83/129/19 65/98/19 74/130/19
f 83/129/19 74/130/19 85/131/19
f 85/131/19 74/130/19 86/132/19
f 86/132/19 74/130/19 75/133/19
f 76/134/19 86/132/19 75/133/19
f 76/134/19 87/135/19 86/132/19
f 77/136/19 87/135/19 76/134/19
f 77/136/19 88/137/19 87/135/19
f 77/136/19 79/121/19 88/137/19
f 78/120/19 79/121/19 77/136/19
f 79/138/13 89/139/17 88/140/17
f 80/141/19 84/142/19 89/143/19
f 87/144/12 89/139/17 90/145/12
f 87/144/12 92/146/22 86/147/22
f 86/147/22 91/148/4 85/149/4
f 85/150/4 84/151/21 83/127/21
f 94/152/13 96/153/17 93/154/17
f 98/155/18 100/156/18 93/157/18
f 93/154/17 103/158/12 97/159/12
f 105/160/19 108/161/19 103/162/19
f 102/163/20 95/164/13 94/165/13
f 101/166/15 104/167/20 102/163/20
f 100/168/21 105/169/15 101/166/15
f 99/170/4 106/171/21 100/168/21
f 99/172/4 108/173/22 107/174/4
f 98/175/22 103/158/12 108/173/22
f 110/176/13 112/177/17 109/178/17
f 114/179/18 116/180/18 109/181/18
f 109/178/17 119/182/12 113/183/12
f 121/184/19 124/185/19 119/186/19
f 118/187/20 111/188/13 110/189/13
f 117/190/15 120/191/20 118/187/20
f 116/192/21 121/193/15 117/190/15
f 115/194/4 122/195/21 116/192/21
f 114/196/22 123/197/4 115/198/4
f 114/196/22 119/182/12 124/199/22
f 126/200/13 128/201/17 125/202/17
f 130/203/18 132/204/18 125/205/18
f 125/202/17 135/206/12 129/207/12
f 137/208/19 140/209/19 135/210/19
f 134/211/20 127/212/13 126/213/13
f 133/214/15 136/215/20 134/211/20
f 132/216/21 137/217/15 133/214/15
f 131/218/4 138/219/21 132/216/21
f 130/220/22 139/221/4 131/222/4
f 130/220/22 135/206/12 140/223/22
f 142/224/13 144/225/17 141/226/17
f 146/227/18 148/228/18 141/229/18
f 141/226/17 151/230/12 145/231/12
f 153/232/19 156/233/19 151/234/19
f 150/235/20 143/236/13 142/237/13
f 149/238/15 152/239/20 150/235/20
f 148/240/21 153/241/15 149/238/15
f 147/242/4 154/243/21 148/240/21
f 146/244/22 155/245/4 147/246/4
f 145/231/12 156/247/22 146/244/22
f 157/248/19 158/249/19 159/250/19
f 1/5/1 7/251/8 8/9/7
f 3/3/3 9/12/10 7/10/8
f 10/11/9 11/252/16 9/12/10
f 6/8/6 8/9/7 11/20/16
f 9/21/10 11/253/16 8/22/7
f 18/24/13 19/254/13 20/25/17
f 26/255/18 18/256/18 17/29/18
f 17/29/18 21/257/18 22/27/18
f 22/27/18 23/258/18 24/28/18
f 24/28/18 25/259/18 26/255/18
f 26/255/18 17/29/18 24/28/18
f 17/26/17 20/25/17 27/30/12
f 27/34/19 20/260/19 19/261/19
f 19/261/19 28/262/19 27/34/19
f 29/32/19 30/263/19 31/264/19
f 31/264/19 32/33/19 29/32/19
f 27/34/19 28/262/19 29/32/19
f 26/35/20 28/39/20 19/36/13
f 25/38/15 29/41/15 28/39/20
f 24/40/21 30/43/21 29/41/15
f 23/42/4 31/265/4 30/43/21
f 22/44/22 32/47/22 31/45/4
f 21/31/12 27/30/12 32/47/22
f 33/48/17 34/266/13 35/49/13
f 42/267/18 34/268/18 33/53/18
f 33/53/18 37/269/18 38/51/18
f 38/51/18 39/270/18 40/52/18
f 40/52/18 41/271/18 42/267/18
f 42/267/18 33/53/18 40/52/18
f 33/48/17 36/50/17 43/54/12
f 43/58/19 36/272/19 35/273/19
f 35/273/19 44/274/19 43/58/19
f 45/56/19 46/275/19 47/276/19
f 47/276/19 48/57/19 45/56/19
f 43/58/19 44/274/19 45/56/19
f 42/59/20 44/63/20 35/60/13
f 41/62/15 45/65/15 44/63/20
f 40/64/21 46/67/21 45/65/15
f 39/66/4 47/277/4 46/67/21
f 38/68/22 48/71/22 47/69/4
f 37/55/12 43/54/12 48/71/22
f 54/74/17 49/278/17 50/72/17
f 50/72/17 51/279/17 52/73/17
f 52/73/17 53/280/17 54/74/17
f 49/75/23 55/281/23 56/76/24
f 49/78/23 54/82/19 57/79/19
f 53/81/25 58/282/25 57/79/19
f 52/83/26 59/283/26 58/84/25
f 51/86/18 60/90/18 59/87/26
f 51/86/18 50/284/24 56/89/24
f 60/93/21 56/285/21 55/91/21
f 55/91/21 57/286/21 58/92/21
f 58/92/21 59/287/21 60/93/21
f 67/99/17 65/106/17 61/100/12
f 73/104/18 68/288/18 67/289/18
f 67/289/18 66/290/18 69/102/18
f 69/102/18 70/291/18 71/103/18
f 71/103/18 72/292/18 73/104/18
f 73/104/18 67/289/18 69/102/18
f 68/105/13 74/293/13 65/106/17
f 73/107/20 75/111/20 74/108/13
f 72/110/15 76/113/15 75/111/20
f 71/112/21 77/115/21 76/113/15
f 70/114/4 78/294/4 77/115/21
f 69/116/22 63/119/22 78/117/4
f 66/101/12 61/100/12 63/119/22
f 62/122/20 80/126/20 81/123/13
f 64/125/15 82/128/15 80/126/20
f 83/127/21 84/151/21 82/128/15
f 79/138/13 81/295/13 89/139/17
f 92/296/19 90/297/19 89/143/19
f 89/143/19 81/298/19 80/141/19
f 80/141/19 82/299/19 84/142/19
f 84/142/19 91/300/19 92/296/19
f 92/296/19 89/143/19 84/142/19
f 87/144/12 88/140/17 89/139/17
f 87/144/12 90/145/12 92/146/22
f 86/147/22 92/146/22 91/148/4
f 85/150/4 91/301/4 84/151/21
f 94/152/13 95/302/13 96/153/17
f 102/303/18 94/304/18 93/157/18
f 93/157/18 97/305/18 98/155/18
f 98/155/18 99/306/18 100/156/18
f 100/156/18 101/307/18 102/303/18
f 102/303/18 93/157/18 100/156/18
f 93/154/17 96/153/17 103/158/12
f 103/162/19 96/308/19 95/309/19
f 95/309/19 104/310/19 103/162/19
f 105/160/19 106/311/19 107/312/19
f 107/312/19 108/161/19 105/160/19
f 103/162/19 104/310/19 105/160/19
f 102/163/20 104/167/20 95/164/13
f 101/166/15 105/169/15 104/167/20
f 100/168/21 106/171/21 105/169/15
f 99/170/4 107/313/4 106/171/21
f 99/172/4 98/175/22 108/173/22
f 98/175/22 97/159/12 103/158/12
f 110/176/13 111/314/13 112/177/17
f 118/315/18 110/316/18 109/181/18
f 109/181/18 113/317/18 114/179/18
f 114/179/18 115/318/18 116/180/18
f 116/180/18 117/319/18 118/315/18
f 118/315/18 109/181/18 116/180/18
f 109/178/17 112/177/17 119/182/12
f 119/186/19 112/320/19 111/321/19
f 111/321/19 120/322/19 119/186/19
f 121/184/19 122/323/19 123/324/19
f 123/324/19 124/185/19 121/184/19
f 119/186/19 120/322/19 121/184/19
f 118/187/20 120/191/20 111/188/13
f 117/190/15 121/193/15 120/191/20
f 116/192/21 122/195/21 121/193/15
f 115/194/4 123/325/4 122/195/21
f 114/196/22 124/199/22 123/197/4
f 114/196/22 113/183/12 119/182/12
f 126/200/13 127/326/13 128/201/17
f 134/327/18 126/328/18 125/205/18
f 125/205/18 129/329/18 130/203/18
f 130/203/18 131/330/18 132/204/18
f 132/204/18 133/331/18 134/327/18
f 134/327/18 125/205/18 132/204/18
f 125/202/17 128/201/17 135/206/12
f 135/210/19 128/332/19 127/333/19
f 127/333/19 136/334/19 135/210/19
f 137/208/19 138/335/19 139/336/19
f 139/336/19 140/209/19 137/208/19
f 135/210/19 136/334/19 137/208/19
f 134/211/20 136/215/20 127/212/13
f 133/214/15 137/217/15 136/215/20
f 132/216/21 138/219/21 137/217/15
f 131/218/4 139/337/4 138/219/21
f 130/220/22 140/223/22 139/221/4
f 130/220/22 129/207/12 135/206/12
f 142/224/13 143/338/13 144/225/17
f 150/339/18 142/340/18 141/229/18
f 141/229/18 145/341/18 146/227/18
f 146/227/18 147/342/18 148/228/18
f 148/228/18 149/343/18 150/339/18
f 150/339/18 141/229/18 148/228/18
f 141/226/17 144/225/17 151/230/12
f 151/234/19 144/344/19 143/345/19
f 143/345/19 152/346/19 151/234/19
f 153/232/19 154/347/19 155/348/19
f 155/348/19 156/233/19 153/232/19
f 151/234/19 152/346/19 153/232/19
f 150/235/20 152/239/20 143/236/13
f 149/238/15 153/241/15 152/239/20
f 148/240/21 154/243/21 153/241/15
f 147/242/4 155/349/4 154/243/21
f 146/244/22 156/247/22 155/245/4
f 145/231/12 151/230/12 156/247/22
