# Blender v2.77 (sub 0) OBJ File: 'LED button switch.blend'
# www.blender.org
mtllib mjm_LED_on.mtl
o body
v -0.250000 0.000000 -0.590000
v -0.176777 0.176777 -0.590000
v 0.000000 0.250000 -0.590000
v 0.176777 0.176777 -0.590000
v 0.250000 0.000000 -0.590000
v 0.176777 -0.176777 -0.590000
v 0.000000 -0.250000 -0.590000
v -0.176777 -0.176777 -0.590000
v -0.250000 0.000000 -0.500000
v -0.176777 0.176777 -0.500000
v -0.176777 -0.176777 -0.500000
v 0.000000 -0.250000 -0.500000
v 0.176777 -0.176777 -0.500000
v 0.250000 0.000000 -0.500000
v 0.176777 0.176777 -0.500000
v 0.000000 0.250000 -0.500000
v -0.171810 0.000000 -0.453578
v -0.121488 0.121488 -0.453578
v 0.000000 0.171810 -0.453578
v 0.121488 0.121488 -0.453578
v 0.171810 0.000000 -0.453578
v 0.121488 -0.121488 -0.453578
v 0.000000 -0.171809 -0.453578
v -0.121488 -0.121488 -0.453578
v -0.171810 0.000000 -0.446422
v -0.121488 0.121488 -0.446422
v -0.121488 -0.121488 -0.446422
v 0.000000 -0.171809 -0.446422
v 0.121488 -0.121488 -0.446422
v 0.171810 0.000000 -0.446422
v 0.121488 0.121488 -0.446422
v 0.000000 0.171810 -0.446422
v -0.250000 0.000000 -0.500000
v -0.176777 0.176777 -0.500000
v 0.000000 0.250000 -0.500000
v 0.176777 0.176777 -0.500000
v 0.250000 0.000000 -0.500000
v 0.176777 -0.176777 -0.500000
v 0.000000 -0.250000 -0.500000
v -0.176777 -0.176777 -0.500000
v -0.250000 0.000000 -0.400000
v -0.176777 0.176777 -0.400000
v -0.176777 -0.176777 -0.400000
v 0.000000 -0.250000 -0.400000
v 0.176777 -0.176777 -0.400000
v 0.250000 0.000000 -0.400000
v 0.176777 0.176777 -0.400000
v 0.000000 0.250000 -0.400000
vt 0.9648 0.5826
vt 0.9160 0.5338
vt 0.8815 0.5481
vt 0.9118 0.6238
vt 0.9196 0.6282
vt 0.9196 0.6238
vt 0.9119 0.6238
vt 0.9196 0.6282
vt 0.9196 0.6238
vt 0.9196 0.6238
vt 0.9119 0.6282
vt 0.9196 0.6238
vt 0.9118 0.6282
vt 0.9118 0.6238
vt 0.9119 0.6238
vt 0.9196 0.6282
vt 0.9119 0.6282
vt 0.9196 0.6238
vt 0.9118 0.6282
vt 0.9118 0.6238
vt 0.9118 0.6238
vt 0.9196 0.6282
vt 0.9119 0.6238
vt 0.9196 0.6282
vt 0.9196 0.6238
vt 0.9160 0.5338
vt 0.9648 0.5826
vt 0.9160 0.6314
vt 0.8672 0.5826
vt 0.9505 0.6171
vt 0.8815 0.6171
vt 0.9160 0.6314
vt 0.9505 0.5481
vt 0.9118 0.6282
vt 0.9196 0.6282
vt 0.9196 0.6282
vt 0.9196 0.6238
vt 0.9118 0.6282
vt 0.9119 0.6282
vt 0.8815 0.6171
vt 0.8672 0.5826
vt 0.8815 0.5481
vt 0.9505 0.5481
vt 0.9505 0.6171
vt 0.8257 0.5841
vt 0.7513 0.5097
vt 0.6987 0.5315
vt 0.7449 0.6471
vt 0.7567 0.6537
vt 0.7567 0.6471
vt 0.7450 0.6471
vt 0.7567 0.6537
vt 0.7567 0.6471
vt 0.7567 0.6471
vt 0.7450 0.6537
vt 0.7567 0.6471
vt 0.7449 0.6537
vt 0.7449 0.6471
vt 0.7450 0.6471
vt 0.7567 0.6537
vt 0.7450 0.6537
vt 0.7567 0.6471
vt 0.7449 0.6537
vt 0.7449 0.6471
vt 0.7449 0.6471
vt 0.7567 0.6537
vt 0.7450 0.6471
vt 0.7567 0.6537
vt 0.7567 0.6471
vt 0.7513 0.5097
vt 0.8257 0.5841
vt 0.7513 0.6585
vt 0.6769 0.5841
vt 0.8039 0.6367
vt 0.6987 0.6367
vt 0.7513 0.6585
vt 0.8039 0.5315
vt 0.7449 0.6537
vt 0.7567 0.6537
vt 0.7567 0.6537
vt 0.7567 0.6471
vt 0.7449 0.6537
vt 0.7450 0.6537
vt 0.6987 0.6367
vt 0.6769 0.5841
vt 0.6987 0.5315
vt 0.8039 0.5315
vt 0.8039 0.6367
vt 0.6587 0.5841
vt 0.5843 0.5097
vt 0.5317 0.5315
vt 0.5779 0.6471
vt 0.5897 0.6537
vt 0.5897 0.6471
vt 0.5780 0.6471
vt 0.5897 0.6537
vt 0.5897 0.6471
vt 0.5897 0.6471
vt 0.5780 0.6537
vt 0.5897 0.6471
vt 0.5779 0.6537
vt 0.5779 0.6471
vt 0.5780 0.6471
vt 0.5897 0.6537
vt 0.5780 0.6537
vt 0.5897 0.6471
vt 0.5779 0.6537
vt 0.5779 0.6471
vt 0.5779 0.6471
vt 0.5897 0.6537
vt 0.5780 0.6471
vt 0.5897 0.6537
vt 0.5897 0.6471
vt 0.5843 0.5097
vt 0.6587 0.5841
vt 0.5843 0.6585
vt 0.5099 0.5841
vt 0.6369 0.6367
vt 0.5317 0.6367
vt 0.5843 0.6585
vt 0.6369 0.5315
vt 0.5779 0.6537
vt 0.5897 0.6537
vt 0.5897 0.6537
vt 0.5897 0.6471
vt 0.5779 0.6537
vt 0.5780 0.6537
vt 0.5317 0.6367
vt 0.5099 0.5841
vt 0.5317 0.5315
vt 0.6369 0.5315
vt 0.6369 0.6367
vn 0.0000 0.0000 -1.0000
vn -1.0000 0.0000 0.0000
vn -0.7071 0.7071 0.0000
vn -0.7071 -0.7071 -0.0000
vn 0.0000 -1.0000 -0.0000
vn 0.7071 -0.7071 -0.0000
vn 1.0000 -0.0000 -0.0000
vn 0.7071 0.7071 0.0000
vn 0.0000 1.0000 0.0000
vn 0.0000 -0.0000 1.0000
usemtl Material
s 1
f 5/1/1 7/2/1 8/3/1
f 1/4/2 10/5/3 2/6/3
f 8/7/4 9/8/2 1/9/2
f 7/10/5 11/11/4 8/7/4
f 6/12/6 12/13/5 7/14/5
f 6/15/6 14/16/7 13/17/6
f 4/18/8 14/19/7 5/20/7
f 3/21/9 15/22/8 4/18/8
f 2/23/3 16/24/9 3/25/9
f 12/26/10 14/27/10 16/28/10
f 8/3/1 1/29/1 4/30/1
f 2/31/1 3/32/1 1/29/1
f 4/30/1 5/1/1 8/3/1
f 6/33/1 7/2/1 5/1/1
f 1/29/1 3/32/1 4/30/1
f 1/4/2 9/34/2 10/5/3
f 8/7/4 11/11/4 9/8/2
f 7/10/5 12/35/5 11/11/4
f 6/12/6 13/36/6 12/13/5
f 6/15/6 5/37/7 14/16/7
f 4/18/8 15/22/8 14/19/7
f 3/21/9 16/38/9 15/22/8
f 2/23/3 10/39/3 16/24/9
f 16/28/10 10/40/10 9/41/10
f 9/41/10 11/42/10 12/26/10
f 12/26/10 13/43/10 14/27/10
f 14/27/10 15/44/10 16/28/10
f 16/28/10 9/41/10 12/26/10
f 21/45/1 23/46/1 24/47/1
f 17/48/2 26/49/3 18/50/3
f 24/51/4 25/52/2 17/53/2
f 23/54/5 27/55/4 24/51/4
f 22/56/6 28/57/5 23/58/5
f 22/59/6 30/60/7 29/61/6
f 20/62/8 30/63/7 21/64/7
f 19/65/9 31/66/8 20/62/8
f 18/67/3 32/68/9 19/69/9
f 28/70/10 30/71/10 32/72/10
f 24/47/1 17/73/1 20/74/1
f 18/75/1 19/76/1 17/73/1
f 20/74/1 21/45/1 24/47/1
f 22/77/1 23/46/1 21/45/1
f 17/73/1 19/76/1 20/74/1
f 17/48/2 25/78/2 26/49/3
f 24/51/4 27/55/4 25/52/2
f 23/54/5 28/79/5 27/55/4
f 22/56/6 29/80/6 28/57/5
f 22/59/6 21/81/7 30/60/7
f 20/62/8 31/66/8 30/63/7
f 19/65/9 32/82/9 31/66/8
f 18/67/3 26/83/3 32/68/9
f 32/72/10 26/84/10 25/85/10
f 25/85/10 27/86/10 28/70/10
f 28/70/10 29/87/10 30/71/10
f 30/71/10 31/88/10 32/72/10
f 32/72/10 25/85/10 28/70/10
f 37/89/1 39/90/1 40/91/1
f 33/92/2 42/93/3 34/94/3
f 40/95/4 41/96/2 33/97/2
f 39/98/5 43/99/4 40/95/4
f 38/100/6 44/101/5 39/102/5
f 38/103/6 46/104/7 45/105/6
f 36/106/8 46/107/7 37/108/7
f 35/109/9 47/110/8 36/106/8
f 34/111/3 48/112/9 35/113/9
f 44/114/10 46/115/10 48/116/10
f 40/91/1 33/117/1 36/118/1
f 34/119/1 35/120/1 33/117/1
f 36/118/1 37/89/1 40/91/1
f 38/121/1 39/90/1 37/89/1
f 33/117/1 35/120/1 36/118/1
f 33/92/2 41/122/2 42/93/3
f 40/95/4 43/99/4 41/96/2
f 39/98/5 44/123/5 43/99/4
f 38/100/6 45/124/6 44/101/5
f 38/103/6 37/125/7 46/104/7
f 36/106/8 47/110/8 46/107/7
f 35/109/9 48/126/9 47/110/8
f 34/111/3 42/127/3 48/112/9
f 48/116/10 42/128/10 41/129/10
f 41/129/10 43/130/10 44/114/10
f 44/114/10 45/131/10 46/115/10
f 46/115/10 47/132/10 48/116/10
f 48/116/10 41/129/10 44/114/10
