# Blender v2.79 (sub 0) OBJ File: 'MotorcycleWingshield.blend'
# www.blender.org
mtllib MotorcycleWindshield.mtl
o Mesh2_Group3_Group1_Model.002
v 0.500000 -0.450000 0.500000
v 0.250000 -0.156712 0.627445
v 0.250000 -0.450000 1.000000
v 0.500000 -0.100000 -0.625000
v 0.250000 0.250000 -0.500000
v 0.500000 -0.100000 -1.000000
v 0.250000 0.250000 -1.000000
v 0.500000 -0.450000 -1.000000
v 0.480000 -0.106409 -1.000000
v 0.264558 0.195209 -1.000000
v 0.240000 0.230000 -1.000000
v 0.239708 0.230000 -1.000000
v -0.239708 0.230000 -1.000000
v -0.240000 0.230000 -1.000000
v -0.264558 0.195209 -1.000000
v -0.480000 -0.106409 -1.000000
v -0.480000 -0.110000 -1.000000
v -0.480000 -0.450000 -1.000000
v -0.500000 -0.450000 -1.000000
v -0.500000 -0.100000 -1.000000
v -0.250000 0.250000 -1.000000
v 0.480000 -0.450000 -1.000000
v 0.480000 -0.110000 -1.000000
v 0.480000 -0.110000 -0.628750
v 0.240000 0.230000 -0.505000
v 0.240000 -0.165091 0.611170
v 0.480000 -0.450000 0.485000
v 0.240000 -0.450000 0.980000
v -0.240000 -0.165091 0.611170
v -0.240000 -0.450000 0.980000
v -0.240000 0.230000 -0.505000
v -0.480000 -0.110000 -0.628750
v -0.480000 -0.450000 0.485000
v -0.500000 -0.450000 0.500000
v -0.500000 -0.100000 -0.625000
v -0.250000 -0.156712 0.627445
v -0.250000 0.250000 -0.500000
v -0.250000 -0.450000 1.000000
vt 0.405040 0.539114
vt 0.401832 0.537365
vt 0.405040 0.532250
vt 0.401211 0.554560
vt 0.397383 0.552844
vt 0.401211 0.559709
vt 0.397383 0.559709
vt 0.405040 0.559709
vt 0.416597 0.559709
vt 0.413297 0.562667
vt 0.412917 0.563004
vt 0.412917 0.563008
vt 0.412917 0.569590
vt 0.412917 0.569594
vt 0.413297 0.569931
vt 0.416597 0.572889
vt 0.416636 0.572889
vt 0.420356 0.572889
vt 0.420356 0.573164
vt 0.416527 0.573164
vt 0.412698 0.569731
vt 0.412698 0.562866
vt 0.416527 0.559434
vt 0.420356 0.559434
vt 0.420356 0.559709
vt 0.416636 0.559709
vt 0.423856 0.537347
vt 0.420137 0.539046
vt 0.420137 0.532250
vt 0.420518 0.532250
vt 0.423856 0.532250
vt 0.424459 0.554370
vt 0.427576 0.552638
vt 0.427576 0.532250
vt 0.427576 0.559434
vt 0.438297 0.538314
vt 0.433046 0.538314
vt 0.433046 0.532250
vt 0.438297 0.532250
vt 0.438297 0.554569
vt 0.433046 0.554569
vt 0.438297 0.560993
vt 0.438293 0.560993
vt 0.433049 0.560993
vt 0.433046 0.560993
vt 0.420137 0.539046
vt 0.416417 0.537347
vt 0.416417 0.532250
vt 0.419756 0.532250
vt 0.420137 0.532250
vt 0.415815 0.554370
vt 0.412698 0.552638
vt 0.412698 0.559434
vt 0.412698 0.532250
vt 0.412698 0.552844
vt 0.408869 0.537398
vt 0.408869 0.532250
vt 0.412698 0.532250
vt 0.409490 0.554594
vt 0.405040 0.539114
vt 0.427576 0.538726
vt 0.433046 0.538726
vt 0.433046 0.555181
vt 0.427576 0.555181
vt 0.427576 0.532250
vt 0.433046 0.532250
vt 0.405040 0.532250
vt 0.433046 0.561342
vt 0.427576 0.561342
vt 0.412698 0.559709
vn 0.9022 0.3815 0.2014
vn 0.5377 0.7494 0.3864
vn 0.4309 0.7090 0.5582
vn 0.8921 0.4413 0.0970
vn 0.4693 0.8700 0.1510
vn 0.9523 0.3052 -0.0000
vn 0.4576 0.8892 -0.0000
vn 1.0000 0.0000 -0.0000
vn -0.0000 -0.0000 -1.0000
vn -0.8942 -0.4377 -0.0945
vn -0.4718 -0.8692 -0.1481
vn -0.4601 -0.8879 0.0000
vn -0.8170 -0.5767 0.0000
vn -0.9531 -0.3025 0.0000
vn -0.5416 -0.7500 -0.3798
vn -0.9044 -0.3788 -0.1964
vn -1.0000 -0.0000 0.0000
vn -0.4351 -0.7126 -0.5504
vn 0.5416 -0.7500 -0.3799
vn 0.4351 -0.7126 -0.5504
vn 0.4718 -0.8692 -0.1481
vn 0.4601 -0.8879 0.0000
vn 0.0000 -1.0000 0.0000
vn 0.8942 -0.4377 -0.0945
vn 0.9531 -0.3025 0.0000
vn 0.8170 -0.5767 0.0000
vn 0.9044 -0.3788 -0.1964
vn -0.9022 0.3815 0.2014
vn -0.8921 0.4413 0.0970
vn -0.9523 0.3052 -0.0000
vn -0.5377 0.7494 0.3864
vn -0.4693 0.8700 0.1510
vn -0.4576 0.8892 -0.0000
vn -0.4309 0.7090 0.5582
usemtl Color_H01.004
s 1
f 1/1/1 2/2/2 3/3/3
f 4/4/4 2/2/2 1/1/1
f 2/2/2 4/4/4 5/5/5
f 5/5/5 4/4/4 6/6/6 7/7/7
f 4/4/4 1/1/1 8/8/8 6/6/6
f 9/9/9 10/10/9 11/11/9 12/12/9 13/13/9 14/14/9 15/15/9 16/16/9 17/17/9 18/18/9 19/19/9 20/20/9 21/21/9 7/22/9 6/23/9 8/24/9 22/25/9 23/26/9
f 24/27/10 25/28/11 11/29/12 10/30/13 23/31/14
f 24/27/10 26/32/15 25/28/11
f 26/32/15 24/27/10 27/33/16
f 27/33/16 24/27/10 23/31/14 22/34/17
f 26/32/15 27/33/16 28/35/18
f 29/36/19 26/37/15 28/38/18 30/39/20
f 31/40/21 25/41/11 26/37/15 29/36/19
f 25/41/11 31/40/21 14/42/22 13/43/23 12/44/23 11/45/12
f 31/46/21 32/47/24 17/48/25 15/49/26 14/50/22
f 29/51/19 32/47/24 31/46/21
f 32/47/24 29/51/19 33/52/27
f 33/52/27 29/51/19 30/53/20
f 32/47/24 33/52/27 18/54/8 17/48/25
f 13/13/9 15/15/9 14/14/9
f 10/10/9 12/12/9 11/11/9
f 34/55/28 35/56/29 20/57/30 19/58/17
f 36/59/31 35/56/29 34/55/28
f 35/56/29 36/59/31 37/60/32
f 5/61/5 37/62/32 36/63/31 2/64/2
f 37/62/32 5/61/5 7/65/7 21/66/33
f 35/56/29 37/60/32 21/67/33 20/57/30
f 2/64/2 36/63/31 38/68/34 3/69/3
f 36/59/31 34/55/28 38/70/34
o Mesh1_Group2_Group1_Model.002
v -0.500000 -0.500000 -1.000000
v -0.450000 -0.500000 -1.000000
v -0.450000 -0.500000 0.488197
v -0.219098 -0.500000 0.950000
v 0.219098 -0.500000 0.950000
v 0.450000 -0.500000 0.488197
v 0.450000 -0.500000 -1.000000
v 0.500000 -0.500000 -1.000000
v 0.500000 -0.500000 0.500000
v 0.250000 -0.500000 1.000000
v -0.250000 -0.500000 1.000000
v -0.500000 -0.500000 0.500000
v -0.500000 -0.450000 -1.000000
v -0.450000 -0.450000 -1.000000
v -0.500000 -0.450000 0.500000
v -0.250000 -0.450000 1.000000
v 0.250000 -0.450000 1.000000
v 0.500000 -0.450000 0.500000
v 0.500000 -0.450000 -1.000000
v 0.450000 -0.450000 -1.000000
v 0.450000 -0.450000 0.488197
v 0.219098 -0.450000 0.950000
v -0.219098 -0.450000 0.950000
v -0.450000 -0.450000 0.488197
vt 0.080048 0.974998
vt 0.077628 0.974998
vt 0.077628 0.895941
vt 0.066452 0.871409
vt 0.045243 0.871409
vt 0.034067 0.895941
vt 0.034067 0.974998
vt 0.031647 0.974998
vt 0.031647 0.895314
vt 0.043747 0.868753
vt 0.067947 0.868753
vt 0.080048 0.895314
vt 0.034067 0.974998
vt 0.036487 0.974998
vt 0.036487 0.977654
vt 0.034067 0.977654
vt 0.138128 0.868753
vt 0.138128 0.947502
vt 0.135708 0.947502
vt 0.135708 0.868753
vt 0.138128 0.971724
vt 0.135708 0.971724
vt 0.138128 0.895314
vt 0.138128 0.868753
vt 0.140548 0.868753
vt 0.140548 0.895314
vt 0.133288 0.971724
vt 0.133288 0.947502
vt 0.135708 0.947502
vt 0.135708 0.971724
vt 0.133288 0.868753
vt 0.135708 0.868753
vt 0.034067 0.974998
vt 0.034067 0.977654
vt 0.031647 0.977654
vt 0.031647 0.974998
vt 0.133288 0.868753
vt 0.133288 0.946883
vt 0.130868 0.946883
vt 0.130868 0.868753
vt 0.133288 0.973000
vt 0.130868 0.973000
vt 0.140548 0.895314
vt 0.140548 0.918592
vt 0.138128 0.918592
vt 0.138128 0.895314
vt 0.128448 0.973000
vt 0.128448 0.946883
vt 0.130868 0.946883
vt 0.130868 0.973000
vt 0.128448 0.868753
vt 0.130868 0.868753
vt 0.126028 0.868753
vt 0.128448 0.868753
vt 0.128448 0.948437
vt 0.116348 0.974998
vt 0.092148 0.974998
vt 0.080048 0.948437
vt 0.080048 0.868753
vt 0.082468 0.868753
vt 0.082468 0.947810
vt 0.093643 0.972342
vt 0.114852 0.972342
vt 0.126028 0.947810
vn 0.0000 -1.0000 0.0000
vn 0.0000 0.0000 -1.0000
vn -1.0000 0.0000 0.0000
vn -0.8944 0.0000 0.4472
vn 0.0000 0.0000 1.0000
vn 0.8944 0.0000 0.4472
vn 1.0000 0.0000 -0.0000
vn -0.8944 -0.0000 -0.4472
vn 0.8944 0.0000 -0.4472
vn -0.0000 1.0000 -0.0000
usemtl Color_M05.004
s 1
f 39/71/35 40/72/35 41/73/35 42/74/35 43/75/35 44/76/35 45/77/35 46/78/35 47/79/35 48/80/35 49/81/35 50/82/35
f 40/83/36 39/84/36 51/85/36 52/86/36
f 39/87/37 50/88/37 53/89/37 51/90/37
f 50/88/38 49/91/38 54/92/38 53/89/38
f 49/93/39 48/94/39 55/95/39 54/96/39
f 48/97/40 47/98/40 56/99/40 55/100/40
f 47/98/41 46/101/41 57/102/41 56/99/41
f 46/103/36 45/104/36 58/105/36 57/106/36
f 45/107/37 44/108/37 59/109/37 58/110/37
f 44/108/42 43/111/42 60/112/42 59/109/42
f 43/113/36 42/114/36 61/115/36 60/116/36
f 42/117/43 41/118/43 62/119/43 61/120/43
f 41/118/41 40/121/41 52/122/41 62/119/41
f 52/123/44 51/124/44 53/125/44 54/126/44 55/127/44 56/128/44 57/129/44 58/130/44 59/131/44 60/132/44 61/133/44 62/134/44
