# Blender v2.77 (sub 0) OBJ File: 'mjm_Rim1_sm.blend'
# www.blender.org
mtllib mjm_Rim1_sm.mtl
o Mesh1_Group1_Model.005
v 1.100000 0.218804 -0.500000
v 0.450565 0.218804 -0.500000
v 0.423880 0.283227 -0.500000
v 0.283227 0.423880 -0.500000
v 0.099456 0.500000 -0.500000
v -0.099456 0.500000 -0.500000
v -0.283227 0.423880 -0.500000
v -0.423880 0.283227 -0.500000
v -0.450565 0.218804 -0.500000
v -1.100000 0.218804 -0.500000
v -1.100000 0.000000 -0.500000
v -1.100000 -0.218804 -0.500000
v -0.450565 -0.218804 -0.500000
v -0.423880 -0.283227 -0.500000
v -0.283227 -0.423880 -0.500000
v -0.099456 -0.500000 -0.500000
v 0.099456 -0.500000 -0.500000
v 0.283227 -0.423880 -0.500000
v 0.423880 -0.283227 -0.500000
v 0.450565 -0.218804 -0.500000
v 1.100000 -0.218804 -0.500000
v 1.100000 -0.000000 -0.500000
v 1.100000 0.218804 -0.600000
v 0.450565 0.218804 -0.600000
v 1.100000 -0.000000 -1.300000
v 1.100000 0.218804 -1.300000
v 1.100000 -0.218804 -0.600000
v 1.100000 -0.218804 -1.300000
v 0.450565 -0.218804 -0.600000
v 0.423880 -0.283227 -0.600000
v 0.283227 -0.423880 -0.600000
v 0.099456 -0.500000 -0.600000
v -0.099456 -0.500000 -0.600000
v -0.283227 -0.423880 -0.600000
v -0.423880 -0.283227 -0.600000
v -0.450565 -0.218804 -0.600000
v -1.100000 -0.218804 -0.600000
v -1.100000 0.000000 -1.300000
v -1.100000 -0.218804 -1.300000
v -1.100000 0.218804 -0.600000
v -1.100000 0.218804 -1.300000
v -0.450565 0.218804 -0.600000
v -0.423880 0.283227 -0.600000
v -0.283227 0.423880 -0.600000
v -0.099456 0.500000 -0.600000
v 0.099456 0.500000 -0.600000
v 0.283227 0.423880 -0.600000
v 0.423880 0.283227 -0.600000
v -0.932535 0.623100 -0.600000
v 0.932535 0.623100 -0.600000
v 0.623100 0.932535 -0.600000
v 0.218804 1.100000 -0.600000
v -0.218804 1.100000 -0.600000
v -0.623100 0.932535 -0.600000
v -0.932535 0.623100 -1.300000
v -0.623100 0.932535 -1.300000
v -0.218804 1.100000 -1.300000
v 0.218804 1.100000 -1.300000
v 0.623100 0.932535 -1.300000
v 0.932535 0.623100 -1.300000
v 0.099456 0.500000 -1.300000
v -0.099456 0.500000 -1.300000
v -0.283227 0.423880 -1.300000
v -0.099456 0.500000 -1.500000
v -0.283227 0.423880 -1.500000
v 0.500000 -0.099456 -1.500000
v 0.423880 -0.283227 -1.500000
v 0.283227 -0.423880 -1.500000
v 0.099456 -0.500000 -1.500000
v -0.099456 -0.500000 -1.500000
v -0.283227 -0.423880 -1.500000
v -0.423880 -0.283227 -1.500000
v -0.500000 -0.099456 -1.500000
v -0.500000 0.099456 -1.500000
v -0.423880 0.283227 -1.500000
v 0.099456 0.500000 -1.500000
v 0.283227 0.423880 -1.500000
v 0.423880 0.283227 -1.500000
v 0.500000 0.099456 -1.500000
v 0.500000 -0.099456 -1.300000
v 0.423880 -0.283227 -1.300000
v 0.500000 0.099456 -1.300000
v 0.423880 0.283227 -1.300000
v 0.283227 0.423880 -1.300000
v 0.932535 -0.623100 -1.300000
v 0.932535 -0.623100 -0.600000
v -0.932535 -0.623100 -0.600000
v -0.623100 -0.932535 -0.600000
v -0.218804 -1.100000 -0.600000
v 0.218804 -1.100000 -0.600000
v 0.623100 -0.932535 -0.600000
v -0.932535 -0.623100 -1.300000
v -0.623100 -0.932535 -1.300000
v -0.218804 -1.100000 -1.300000
v 0.218804 -1.100000 -1.300000
v 0.623100 -0.932535 -1.300000
v -0.099456 -0.500000 -1.300000
v -0.283227 -0.423880 -1.300000
v -0.423880 -0.283227 -1.300000
v -0.500000 -0.099456 -1.300000
v -0.500000 0.099456 -1.300000
v -0.423880 0.283227 -1.300000
v 0.099456 -0.500000 -1.300000
v 0.283227 -0.423880 -1.300000
vt 0.0898 0.9228
vt 0.0898 0.9093
vt 0.0883 0.9088
vt 0.0851 0.9058
vt 0.0834 0.9020
vt 0.0834 0.8979
vt 0.0851 0.8941
vt 0.0883 0.8912
vt 0.0898 0.8906
vt 0.0898 0.8772
vt 0.0947 0.8772
vt 0.0997 0.8772
vt 0.0997 0.8906
vt 0.1012 0.8912
vt 0.1044 0.8941
vt 0.1061 0.8979
vt 0.1061 0.9020
vt 0.1044 0.9058
vt 0.1012 0.9088
vt 0.0997 0.9093
vt 0.0997 0.9228
vt 0.0947 0.9228
vt 0.1261 0.8900
vt 0.1261 0.8772
vt 0.1284 0.8772
vt 0.1284 0.8900
vt 0.0716 0.9486
vt 0.0716 0.9518
vt 0.0534 0.9518
vt 0.0534 0.9486
vt 0.0693 0.9486
vt 0.0716 0.9550
vt 0.0693 0.9550
vt 0.0534 0.9550
vt 0.1261 0.9027
vt 0.1261 0.8900
vt 0.1284 0.8900
vt 0.1284 0.9027
vt 0.0534 0.9643
vt 0.0534 0.9630
vt 0.0557 0.9630
vt 0.0557 0.9643
vt 0.0534 0.9589
vt 0.0557 0.9589
vt 0.0534 0.9550
vt 0.0557 0.9550
vt 0.1306 0.8910
vt 0.1306 0.8949
vt 0.1284 0.8949
vt 0.1284 0.8910
vt 0.1306 0.8991
vt 0.1284 0.8991
vt 0.1306 0.9027
vt 0.1284 0.9027
vt 0.0935 0.9477
vt 0.0920 0.9477
vt 0.0920 0.9456
vt 0.0935 0.9456
vt 0.1284 0.8900
vt 0.1284 0.8772
vt 0.1306 0.8772
vt 0.1306 0.8900
vt 0.0943 0.9402
vt 0.0943 0.9357
vt 0.1125 0.9357
vt 0.1125 0.9402
vt 0.0966 0.9402
vt 0.0943 0.9312
vt 0.0966 0.9312
vt 0.1125 0.9312
vt 0.1261 0.9155
vt 0.1261 0.9027
vt 0.1284 0.9027
vt 0.1284 0.9155
vt 0.0935 0.9456
vt 0.0920 0.9456
vt 0.0920 0.9435
vt 0.0935 0.9435
vt 0.1284 0.9145
vt 0.1284 0.9108
vt 0.1306 0.9108
vt 0.1306 0.9145
vt 0.1284 0.9067
vt 0.1306 0.9067
vt 0.1284 0.9027
vt 0.1306 0.9027
vt 0.0557 0.9643
vt 0.0557 0.9605
vt 0.0580 0.9605
vt 0.0580 0.9643
vt 0.0557 0.9564
vt 0.0580 0.9564
vt 0.0557 0.9550
vt 0.0580 0.9550
vt 0.2125 0.9669
vt 0.2033 0.9704
vt 0.2033 0.9569
vt 0.2048 0.9563
vt 0.2080 0.9534
vt 0.2097 0.9496
vt 0.2097 0.9455
vt 0.2080 0.9417
vt 0.2048 0.9388
vt 0.2033 0.9382
vt 0.2033 0.9247
vt 0.2125 0.9282
vt 0.2195 0.9346
vt 0.2234 0.9430
vt 0.2234 0.9521
vt 0.2195 0.9605
vt 0.0966 0.9228
vt 0.1125 0.9228
vt 0.0875 0.9693
vt 0.0716 0.9693
vt 0.0716 0.9612
vt 0.0875 0.9612
vt 0.0716 0.9521
vt 0.0875 0.9521
vt 0.0716 0.9435
vt 0.0875 0.9435
vt 0.0534 0.9228
vt 0.0693 0.9228
vt 0.0693 0.9312
vt 0.0534 0.9312
vt 0.0693 0.9402
vt 0.0534 0.9402
vt 0.2345 0.9194
vt 0.2317 0.9021
vt 0.2409 0.8987
vt 0.2317 0.9408
vt 0.2247 0.9344
vt 0.2247 0.9085
vt 0.2209 0.9260
vt 0.2209 0.9169
vt 0.2345 0.9235
vt 0.2409 0.9443
vt 0.2363 0.9273
vt 0.1284 0.9525
vt 0.1284 0.9567
vt 0.1238 0.9567
vt 0.1238 0.9525
vt 0.0852 0.9228
vt 0.0894 0.9244
vt 0.0926 0.9273
vt 0.0943 0.9311
vt 0.0943 0.9352
vt 0.0926 0.9390
vt 0.0894 0.9419
vt 0.0852 0.9435
vt 0.0807 0.9435
vt 0.0765 0.9419
vt 0.0733 0.9390
vt 0.0716 0.9352
vt 0.0716 0.9311
vt 0.0733 0.9273
vt 0.0765 0.9244
vt 0.0807 0.9228
vt 0.1102 0.9524
vt 0.1102 0.9486
vt 0.1147 0.9486
vt 0.1147 0.9524
vt 0.0920 0.9435
vt 0.0920 0.9464
vt 0.0875 0.9464
vt 0.0875 0.9435
vt 0.0920 0.9502
vt 0.0875 0.9502
vt 0.0920 0.9544
vt 0.0875 0.9544
vt 0.0920 0.9582
vt 0.0875 0.9582
vt 0.1284 0.9486
vt 0.1238 0.9486
vt 0.2363 0.9156
vt 0.2395 0.9127
vt 0.2436 0.9111
vt 0.2459 0.8987
vt 0.2482 0.9111
vt 0.2509 0.8987
vt 0.2523 0.9127
vt 0.2600 0.9021
vt 0.1125 0.9228
vt 0.1284 0.9228
vt 0.1284 0.9312
vt 0.1125 0.9312
vt 0.2775 0.8931
vt 0.2760 0.8926
vt 0.2760 0.8791
vt 0.2852 0.8826
vt 0.2922 0.8890
vt 0.2960 0.8974
vt 0.2960 0.9065
vt 0.2922 0.9148
vt 0.2852 0.9213
vt 0.2760 0.9247
vt 0.2760 0.9113
vt 0.2775 0.9107
vt 0.2807 0.9078
vt 0.2824 0.9040
vt 0.2824 0.8999
vt 0.2807 0.8961
vt 0.1125 0.9486
vt 0.0966 0.9486
vt 0.1102 0.9567
vt 0.0943 0.9567
vt 0.0943 0.9486
vt 0.1102 0.9486
vt 0.1102 0.9658
vt 0.0943 0.9658
vt 0.1102 0.9744
vt 0.0943 0.9744
vt 0.1125 0.9402
vt 0.1284 0.9402
vt 0.1284 0.9486
vt 0.1125 0.9486
vt 0.2600 0.9408
vt 0.2671 0.9085
vt 0.2573 0.9235
vt 0.2555 0.9273
vt 0.2523 0.9302
vt 0.2509 0.9443
vt 0.2482 0.9318
vt 0.2459 0.9443
vt 0.2436 0.9318
vt 0.2395 0.9302
vt 0.1284 0.9603
vt 0.1238 0.9603
vt 0.1193 0.9486
vt 0.1193 0.9524
vt 0.1147 0.9524
vt 0.1147 0.9486
vt 0.1193 0.9566
vt 0.1147 0.9566
vt 0.1193 0.9604
vt 0.1147 0.9604
vt 0.1238 0.9486
vt 0.1238 0.9523
vt 0.1193 0.9523
vt 0.1193 0.9486
vt 0.1238 0.9564
vt 0.1193 0.9564
vt 0.1238 0.9603
vt 0.1193 0.9603
vt 0.1102 0.9604
vt 0.1102 0.9566
vt 0.1147 0.9566
vt 0.1147 0.9604
vt 0.2555 0.9156
vt 0.2573 0.9194
vt 0.2671 0.9344
vt 0.2709 0.9169
vt 0.2709 0.9260
vn -0.0000 0.0000 1.0000
vn 0.0000 1.0000 0.0000
vn 1.0000 0.0000 0.0000
vn -0.0000 -1.0000 0.0000
vn 0.9239 -0.3827 0.0000
vn 0.8315 -0.5556 0.0000
vn 0.5556 -0.8315 0.0000
vn 0.1951 -0.9808 0.0000
vn -0.1951 -0.9808 -0.0000
vn -0.5556 -0.8315 -0.0000
vn -0.8315 -0.5556 0.0000
vn -0.9239 -0.3827 0.0000
vn -1.0000 0.0000 -0.0000
vn -0.9239 0.3827 0.0000
vn -0.8315 0.5556 0.0000
vn -0.5556 0.8315 0.0000
vn -0.1951 0.9808 0.0000
vn 0.1951 0.9808 0.0000
vn 0.5556 0.8315 0.0000
vn 0.8315 0.5556 0.0000
vn 0.9239 0.3827 0.0000
vn -0.7071 0.7071 -0.0000
vn -0.3827 0.9239 -0.0000
vn 0.3827 0.9239 0.0000
vn 0.7071 0.7071 0.0000
vn 0.0000 -0.0000 -1.0000
vn 0.9808 -0.1951 0.0000
vn 0.9808 0.1951 0.0000
vn -0.7071 -0.7071 -0.0000
vn -0.3827 -0.9239 -0.0000
vn 0.3827 -0.9239 0.0000
vn 0.7071 -0.7071 0.0000
vn -0.9808 0.1951 -0.0000
vn -0.9808 -0.1951 -0.0000
usemtl Material
s 1
f 1/1/1 2/2/1 3/3/1 4/4/1 5/5/1 6/6/1 7/7/1 8/8/1 9/9/1 10/10/1 11/11/1 12/12/1 13/13/1 14/14/1 15/15/1 16/16/1 17/17/1 18/18/1 19/19/1 20/20/1 21/21/1 22/22/1
f 2/23/2 1/24/2 23/25/2 24/26/2
f 1/27/3 22/28/3 25/29/3 26/30/3 23/31/3
f 22/28/3 21/32/3 27/33/3 28/34/3 25/29/3
f 21/35/4 20/36/4 29/37/4 27/38/4
f 20/39/5 19/40/6 30/41/6 29/42/5
f 19/40/6 18/43/7 31/44/7 30/41/6
f 18/43/7 17/45/8 32/46/8 31/44/7
f 17/47/8 16/48/9 33/49/9 32/50/8
f 16/48/9 15/51/10 34/52/10 33/49/9
f 15/51/10 14/53/11 35/54/11 34/52/10
f 14/55/11 13/56/12 36/57/12 35/58/11
f 13/59/4 12/60/4 37/61/4 36/62/4
f 12/63/13 11/64/13 38/65/13 39/66/13 37/67/13
f 11/64/13 10/68/13 40/69/13 41/70/13 38/65/13
f 10/71/2 9/72/2 42/73/2 40/74/2
f 9/75/14 8/76/15 43/77/15 42/78/14
f 8/79/15 7/80/16 44/81/16 43/82/15
f 7/80/16 6/83/17 45/84/17 44/81/16
f 6/83/17 5/85/18 46/86/18 45/84/17
f 5/87/18 4/88/19 47/89/19 46/90/18
f 4/88/19 3/91/20 48/92/20 47/89/19
f 3/91/20 2/93/21 24/94/21 48/92/20
f 49/95/1 40/96/1 42/97/1 43/98/1 44/99/1 45/100/1 46/101/1 47/102/1 48/103/1 24/104/1 23/105/1 50/106/1 51/107/1 52/108/1 53/109/1 54/110/1
f 41/70/14 40/69/14 49/111/14 55/112/14
f 55/113/22 49/114/22 54/115/22 56/116/22
f 56/116/23 54/115/23 53/117/23 57/118/23
f 57/118/2 53/117/2 52/119/2 58/120/2
f 58/121/24 52/122/24 51/123/24 59/124/24
f 59/124/25 51/123/25 50/125/25 60/126/25
f 60/126/21 50/125/21 23/31/21 26/30/21
f 61/127/26 60/128/26 26/129/26
f 55/130/26 60/128/26 61/127/26
f 56/131/26 60/128/26 55/130/26
f 56/131/26 59/132/26 60/128/26
f 57/133/26 59/132/26 56/131/26
f 59/132/26 57/133/26 58/134/26
f 62/135/26 55/130/26 61/127/26
f 55/130/26 62/135/26 41/136/26
f 41/136/26 62/135/26 63/137/26
f 64/138/17 65/139/16 63/140/16 62/141/17
f 66/142/26 67/143/26 68/144/26 69/145/26 70/146/26 71/147/26 72/148/26 73/149/26 74/150/26 75/151/26 65/152/26 64/153/26 76/154/26 77/155/26 78/156/26 79/157/26
f 67/158/6 66/159/27 80/160/27 81/161/6
f 66/162/27 79/163/28 82/164/28 80/165/27
f 79/163/28 78/166/20 83/167/20 82/164/28
f 78/166/20 77/168/19 84/169/19 83/167/20
f 77/168/19 76/170/18 61/171/18 84/169/19
f 76/172/18 64/138/17 62/141/17 61/173/18
f 61/127/26 26/129/26 84/174/26
f 84/174/26 26/129/26 83/175/26
f 83/175/26 26/129/26 82/176/26
f 82/176/26 26/129/26 25/177/26
f 82/176/26 25/177/26 80/178/26
f 80/178/26 25/177/26 28/179/26
f 80/178/26 28/179/26 81/180/26
f 81/180/26 28/179/26 85/181/26
f 28/182/5 27/183/5 86/184/5 85/185/5
f 35/186/1 36/187/1 37/188/1 87/189/1 88/190/1 89/191/1 90/192/1 91/193/1 86/194/1 27/195/1 29/196/1 30/197/1 31/198/1 32/199/1 33/200/1 34/201/1
f 92/202/12 87/203/12 37/67/12 39/66/12
f 93/204/29 88/205/29 87/206/29 92/207/29
f 94/208/30 89/209/30 88/205/30 93/204/30
f 95/210/4 90/211/4 89/209/4 94/208/4
f 96/212/31 91/213/31 90/214/31 95/215/31
f 85/185/32 86/184/32 91/213/32 96/212/32
f 92/216/26 85/181/26 96/217/26
f 92/216/26 97/218/26 85/181/26
f 92/216/26 98/219/26 97/218/26
f 92/216/26 99/220/26 98/219/26
f 39/221/26 99/220/26 92/216/26
f 39/221/26 100/222/26 99/220/26
f 38/223/26 100/222/26 39/221/26
f 38/223/26 101/224/26 100/222/26
f 41/136/26 101/224/26 38/223/26
f 41/136/26 102/225/26 101/224/26
f 41/136/26 63/137/26 102/225/26
f 65/139/16 75/226/15 102/227/15 63/140/16
f 75/228/15 74/229/33 101/230/33 102/231/15
f 74/229/33 73/232/34 100/233/34 101/230/33
f 73/232/34 72/234/11 99/235/11 100/233/34
f 72/236/11 71/237/10 98/238/10 99/239/11
f 71/237/10 70/240/9 97/241/9 98/238/10
f 70/240/9 69/242/8 103/243/8 97/241/9
f 69/244/8 68/245/7 104/246/7 103/247/8
f 68/245/7 67/158/6 81/161/6 104/246/7
f 81/180/26 85/181/26 104/248/26
f 104/248/26 85/181/26 103/249/26
f 103/249/26 85/181/26 97/218/26
f 92/216/26 96/217/26 93/250/26
f 93/250/26 96/217/26 95/251/26
f 93/250/26 95/251/26 94/252/26
