# Blender v2.79 (sub 0) OBJ File: ''
# www.blender.org
mtllib robotJoint2.mtl
o Mesh1_Group1_Model.001
v -0.353553 1.500000 -0.353553
v -0.000000 1.500000 -0.500000
v -0.000000 1.400000 -0.500000
v -0.353553 1.400000 -0.353553
v -0.500000 1.500000 -0.000000
v -0.353553 1.500000 0.353553
v -0.000000 1.500000 0.500000
v 0.353553 1.500000 0.353553
v 0.500000 1.500000 0.000000
v 0.353553 1.500000 -0.353553
v -0.500000 1.400000 -0.000000
v -0.500000 0.792893 -0.300000
v -0.500000 0.792893 -0.000000
v -0.707107 0.707107 -0.300000
v -0.707107 0.707107 0.000000
v -0.000000 0.800000 -0.500000
v -0.565685 0.565685 -0.500000
v 0.353553 1.400000 -0.353553
v 0.500000 0.792893 -0.300000
v 0.500000 1.400000 0.000000
v 0.500000 0.792893 0.000000
v 0.353553 1.400000 0.353553
v 0.353553 0.353553 0.500000
v 0.176777 1.400000 0.426777
v -0.000000 1.400000 0.500000
v -0.353553 1.400000 0.353553
v -0.176777 1.400000 0.426777
v -0.353553 0.353553 0.500000
v -0.500000 0.000000 0.500000
v -1.000000 -0.000000 0.000000
v -0.353553 -0.353553 0.500000
v -0.707107 -0.707107 0.000000
v 0.000000 -1.000000 0.000000
v -0.707107 -0.707107 -0.300000
v 0.000000 -1.000000 -0.300000
v 0.000000 -0.800000 -0.500000
v -0.565685 -0.565685 -0.500000
v 0.565685 0.565685 -0.500000
v 0.800000 0.000000 -0.500000
v 0.565685 -0.565685 -0.500000
v -0.800000 -0.000000 -0.500000
v 0.707107 0.707107 -0.300000
v 0.707107 0.707107 0.000000
v 1.000000 0.000000 0.000000
v 0.500000 0.000000 0.500000
v 0.707107 -0.707107 0.000000
v 0.353553 -0.353553 0.500000
v 0.000000 -0.500000 0.500000
v 0.707107 -0.707107 -0.300000
v 1.000000 0.000000 -0.300000
v -1.000000 -0.000000 -0.300000
vt 0.726736 0.890333
vt 0.733548 0.887400
vt 0.734345 0.889408
vt 0.727534 0.892340
vt 0.447276 0.934068
vt 0.455253 0.934068
vt 0.460894 0.939947
vt 0.460894 0.948261
vt 0.455253 0.954140
vt 0.447276 0.954140
vt 0.441635 0.948261
vt 0.441635 0.939947
vt 0.772828 0.964641
vt 0.765698 0.965927
vt 0.765434 0.963782
vt 0.772564 0.962496
vt 0.069457 0.940560
vt 0.077252 0.952730
vt 0.070121 0.954016
vt 0.075651 0.939705
vt 0.290916 0.903453
vt 0.295234 0.903453
vt 0.295234 0.909971
vt 0.290916 0.909971
vt 0.733461 0.901835
vt 0.743038 0.897545
vt 0.734013 0.906951
vt 0.730157 0.905278
vt 0.053774 0.903788
vt 0.051752 0.890387
vt 0.063351 0.899498
vt 0.058564 0.887455
vt 0.065371 0.884508
vt 0.073033 0.895474
vt 0.059540 0.930627
vt 0.051785 0.942920
vt 0.052627 0.929956
vt 0.057947 0.943688
vt 0.086684 0.939580
vt 0.077478 0.951501
vt 0.079071 0.938439
vt 0.086946 0.962469
vt 0.253803 0.934309
vt 0.250154 0.934851
vt 0.246505 0.935393
vt 0.250306 0.911747
vt 0.787338 0.936452
vt 0.780040 0.937535
vt 0.779708 0.935393
vt 0.783357 0.934851
vt 0.787006 0.934309
vt 0.772786 0.938902
vt 0.772454 0.936759
vt 0.776081 0.936076
vt 0.780297 0.963914
vt 0.780033 0.961769
vt 0.096783 0.960543
vt 0.104516 0.936949
vt 0.104252 0.959816
vt 0.095182 0.947518
vt 0.108331 0.936949
vt 0.109188 0.947429
vt 0.104516 0.947429
vt 0.128807 0.936839
vt 0.118071 0.943807
vt 0.128673 0.928892
vt 0.117804 0.927914
vt 0.128807 0.921545
vt 0.118071 0.913219
vt 0.060893 0.935618
vt 0.060893 0.952246
vt 0.050470 0.939775
vt 0.229256 0.925852
vt 0.229256 0.942480
vt 0.223002 0.942480
vt 0.223002 0.925852
vt 0.746834 0.950293
vt 0.746834 0.933664
vt 0.751003 0.948630
vt 0.751003 0.935327
vt 0.384403 0.899138
vt 0.393429 0.889732
vt 0.406193 0.889732
vt 0.415218 0.899138
vt 0.415218 0.912441
vt 0.406193 0.921847
vt 0.393429 0.921847
vt 0.384403 0.912441
vt 0.752721 0.893521
vt 0.757394 0.893520
vt 0.755802 0.897545
vt 0.270942 0.955390
vt 0.266625 0.955390
vt 0.266625 0.948872
vt 0.270942 0.948872
vt 0.104516 0.956910
vt 0.108884 0.947429
vt 0.108884 0.958638
vt 0.118514 0.882501
vt 0.129764 0.890542
vt 0.117763 0.897461
vt 0.129389 0.898022
vt 0.118514 0.913171
vt 0.129764 0.905877
vt 0.105380 0.894643
vt 0.097618 0.892730
vt 0.111557 0.886327
vt 0.252146 0.903664
vt 0.235754 0.914196
vt 0.231566 0.907128
vt 0.233406 0.899046
vt 0.240196 0.894683
vt 0.247958 0.896596
vt 0.239251 0.936759
vt 0.242878 0.936076
vt 0.050470 0.948089
vt 0.096032 0.882501
vt 0.229256 0.954238
vt 0.223002 0.954238
vt 0.768676 0.921907
vt 0.757394 0.933664
vt 0.764828 0.920253
vt 0.755802 0.929660
vt 0.768676 0.905278
vt 0.764828 0.906951
vt 0.273666 0.887743
vt 0.274417 0.872783
vt 0.280623 0.872735
vt 0.279872 0.887695
vt 0.274417 0.903453
vt 0.280623 0.903406
vt 0.743038 0.929660
vt 0.741439 0.933665
vt 0.734013 0.920253
vt 0.730157 0.921907
vt 0.273933 0.934068
vt 0.273666 0.918175
vt 0.279914 0.918148
vt 0.280181 0.934042
vt 0.273933 0.903480
vt 0.280181 0.903453
vt 0.755115 0.938241
vt 0.762727 0.939382
vt 0.762465 0.941533
vt 0.754853 0.940392
vt 0.748202 0.937571
vt 0.747940 0.939722
vt 0.740354 0.884454
vt 0.741152 0.886461
vn -0.7071 0.0000 -0.7071
vn 0.0000 0.0000 -1.0000
vn 0.0000 1.0000 0.0000
vn -1.0000 0.0000 0.0000
vn -0.6701 0.4382 -0.5991
vn -0.9869 0.1563 0.0405
vn -0.6599 0.0900 -0.7459
vn -0.8631 0.2766 0.4225
vn -0.3827 0.9239 0.0000
vn -0.7071 0.7071 0.0000
vn 0.0000 0.2617 -0.9651
vn -0.5663 0.4289 -0.7038
vn -0.5000 0.5000 -0.7071
vn 0.5699 0.0577 -0.8197
vn 0.6817 0.3254 -0.6553
vn 0.9876 0.1058 0.1161
vn 0.8780 0.1999 0.4349
vn 0.9365 0.0222 0.3499
vn 0.6943 0.3450 0.6316
vn 0.3795 0.1282 0.9163
vn 0.0000 0.0902 0.9959
vn 0.1289 0.0436 0.9907
vn 0.7071 0.0000 0.7071
vn -0.0000 0.0000 1.0000
vn 0.3827 0.0000 0.9239
vn -0.7071 0.0000 0.7071
vn -0.3827 0.0000 0.9239
vn -0.7826 0.2790 0.5564
vn -0.9226 0.0535 0.3821
vn -0.5663 0.4289 0.7038
vn -0.7038 0.0972 0.7038
vn -0.7038 -0.0972 0.7038
vn -0.5000 -0.5000 0.7071
vn -0.0972 -0.7038 0.7038
vn -0.7071 -0.7071 0.0000
vn 0.0000 -1.0000 0.0000
vn 0.0972 -0.7038 -0.7038
vn -0.5000 -0.5000 -0.7071
vn -0.0972 -0.7038 -0.7038
vn 0.5664 0.4289 -0.7038
vn 0.5000 0.5000 -0.7071
vn 0.7071 0.7071 0.0000
vn 0.3827 0.9239 0.0000
vn 0.5000 0.5000 0.7071
vn 0.7038 0.0972 0.7038
vn 0.7038 -0.0972 0.7038
vn 0.5000 -0.5000 0.7071
vn 0.0972 -0.7038 0.7038
vn -0.1289 0.0436 0.9907
vn -0.3795 0.1282 0.9163
vn 0.7071 -0.7071 0.0000
vn 0.5000 -0.5000 -0.7071
vn 0.7038 -0.0972 -0.7038
vn 0.7038 0.0972 -0.7038
vn 1.0000 0.0000 0.0000
vn -0.7038 -0.0972 -0.7038
vn -0.7038 0.0972 -0.7038
vn 0.9239 0.0000 -0.3827
vn 0.3827 0.0000 -0.9239
usemtl FrontColor.001
s 1
f 1/1/1 2/2/2 3/3/2 4/4/1
f 2/5/3 1/6/3 5/7/3 6/8/3 7/9/3 8/10/3 9/11/3 10/12/3
f 5/13/4 1/14/1 4/15/1 11/16/4
f 12/17/5 11/18/6 4/19/7
f 11/18/6 12/17/5 13/20/8
f 12/21/9 14/22/10 15/23/10 13/24/9
f 12/25/5 16/26/11 17/27/12 14/28/13
f 12/29/5 4/30/7 16/31/11
f 16/31/11 4/30/7 3/32/2
f 18/33/14 16/31/11 3/32/2
f 18/33/14 19/34/15 16/31/11
f 20/35/16 19/36/15 18/37/14
f 19/36/15 20/35/16 21/38/17
f 22/39/18 21/40/17 20/41/16
f 21/40/17 22/39/18 23/42/19
f 22/43/20 24/44/20 25/45/21 23/46/22
f 8/47/23 7/48/24 25/49/24 24/50/25 22/51/23
f 7/48/24 6/52/26 26/53/26 27/54/27 25/49/24
f 6/55/26 5/13/4 11/16/4 26/56/26
f 11/57/6 28/58/28 26/59/29
f 28/58/28 11/57/6 13/60/8
f 28/61/28 13/62/8 15/63/30
f 28/64/28 15/65/30 29/66/31
f 30/67/32 29/66/31 15/65/30
f 29/66/31 30/67/32 31/68/33
f 32/69/33 31/68/33 30/67/32
f 32/70/33 33/71/34 31/72/33
f 34/73/35 35/74/36 33/75/36 32/76/35
f 35/77/37 34/78/38 36/79/39
f 37/80/38 36/79/39 34/78/38
f 17/81/2 16/82/2 38/83/2 39/84/2 40/85/2 36/86/2 37/87/2 41/88/2
f 16/26/11 19/89/15 42/90/40 38/91/41
f 42/92/42 19/93/43 21/94/43 43/95/42
f 21/96/17 23/97/19 43/98/44
f 43/99/44 23/100/19 44/101/45
f 45/102/46 44/101/45 23/100/19
f 44/101/45 45/102/46 46/103/47
f 47/104/47 46/103/47 45/102/46
f 47/105/47 48/106/48 46/107/47
f 45/108/24 23/46/22 28/109/49 29/110/24 31/111/24 48/112/24 47/113/24
f 25/45/21 28/109/49 23/46/22
f 26/114/50 28/109/49 25/45/21 27/115/50
f 48/116/48 31/72/33 33/71/34
f 33/117/34 46/107/47 48/106/48
f 35/74/36 49/118/51 46/119/51 33/75/36
f 49/120/52 35/121/37 40/122/52
f 36/123/39 40/122/52 35/121/37
f 49/120/52 40/122/52 50/124/53
f 39/125/54 50/124/53 40/122/52
f 50/124/53 39/125/54 42/90/40
f 38/91/41 42/90/40 39/125/54
f 50/126/55 42/127/42 43/128/42 44/129/55
f 49/130/51 50/126/55 44/129/55 46/131/51
f 37/132/38 34/133/38 41/134/56
f 51/135/57 41/134/56 34/133/38
f 41/134/56 51/135/57 17/27/12
f 14/28/13 17/27/12 51/135/57
f 14/136/10 51/137/4 30/138/4 15/139/10
f 51/137/4 34/140/35 32/141/35 30/138/4
f 9/142/55 8/143/23 22/144/23 20/145/55
f 10/146/58 9/142/55 20/145/55 18/147/58
f 2/2/2 10/148/59 18/149/14 3/3/2
