# Blender v2.79 (sub 0) OBJ File: ''
# www.blender.org
mtllib robotJoint4.mtl
o Mesh6_Group4_Group1_Model
v -0.500000 0.350000 -0.400000
v -0.500000 -0.350000 -0.400000
v -0.500000 0.000000 0.365000
v 0.350000 -0.500000 -0.400000
v -0.350000 -0.500000 -0.400000
v -0.353553 -0.395980 -0.400000
v -0.395980 -0.353553 -0.400000
v -0.395980 0.353553 -0.400000
v -0.353553 0.395980 -0.400000
v -0.350000 0.500000 -0.400000
v 0.350000 0.500000 -0.400000
v 0.353553 0.395980 -0.400000
v 0.395980 0.353553 -0.400000
v 0.500000 0.350000 -0.400000
v 0.500000 -0.350000 -0.400000
v 0.395980 -0.353553 -0.400000
v 0.353553 -0.395980 -0.400000
v 0.000000 -0.500000 0.365000
v 0.353553 -0.395980 0.143759
v 0.395980 -0.353553 0.143759
v 0.374767 -0.374767 0.208559
v 0.500000 0.000000 0.365000
v 0.395980 0.353553 0.143759
v 0.353553 0.395980 0.143759
v 0.374767 0.374767 0.208559
v 0.000000 0.500000 0.365000
v -0.353553 0.395980 0.143759
v -0.395980 0.353553 0.143759
v -0.374767 0.374767 0.208559
v -0.353553 0.353553 0.365000
v -0.500000 0.000000 0.500000
v -0.353553 0.353553 0.500000
v 0.353553 0.353553 0.500000
v 0.000000 0.500000 0.500000
v -0.353553 -0.353553 0.500000
v 0.000000 -0.500000 0.500000
v 0.353553 -0.353553 0.500000
v 0.500000 0.000000 0.500000
v 0.353553 0.353553 0.365000
v 0.353553 -0.353553 0.365000
v -0.353553 -0.353553 0.365000
v -0.374767 -0.374767 0.208559
v -0.395980 -0.353553 0.143759
v -0.353553 -0.395980 0.143759
v -0.500000 -0.500000 -0.500000
v 0.500000 -0.500000 -0.500000
v 0.500000 -0.500000 -0.400000
v -0.500000 -0.500000 -0.400000
v -0.500000 0.500000 -0.500000
v 0.500000 0.500000 -0.500000
v -0.500000 0.500000 -0.400000
v 0.500000 0.500000 -0.400000
v -0.465355 -0.465355 -0.350000
v -0.417059 -0.478296 -0.350000
v -0.381704 -0.442941 -0.350000
v -0.394645 -0.394645 -0.350000
v -0.442941 -0.381704 -0.350000
v -0.478296 -0.417059 -0.350000
v -0.465355 -0.465355 -0.400000
v -0.417059 -0.478296 -0.400000
v -0.478296 -0.417059 -0.400000
v -0.442941 -0.381704 -0.400000
v -0.394645 -0.394645 -0.400000
v -0.381704 -0.442941 -0.400000
v -0.381704 0.442941 -0.400000
v -0.417059 0.478296 -0.400000
v -0.417059 0.478296 -0.350000
v -0.381704 0.442941 -0.350000
v -0.394645 0.394645 -0.400000
v -0.442941 0.381704 -0.400000
v -0.478296 0.417059 -0.400000
v -0.465355 0.465355 -0.400000
v -0.394645 0.394645 -0.350000
v -0.465355 0.465355 -0.350000
v -0.478296 0.417059 -0.350000
v -0.442941 0.381704 -0.350000
v 0.394645 0.394645 -0.400000
v 0.442941 0.381704 -0.400000
v 0.442941 0.381704 -0.350000
v 0.394645 0.394645 -0.350000
v 0.381704 0.442941 -0.400000
v 0.417059 0.478296 -0.400000
v 0.465355 0.465355 -0.400000
v 0.478296 0.417059 -0.400000
v 0.381704 0.442941 -0.350000
v 0.417059 0.478296 -0.350000
v 0.478296 0.417059 -0.350000
v 0.465355 0.465355 -0.350000
v 0.465355 -0.465355 -0.400000
v 0.478296 -0.417059 -0.400000
v 0.478296 -0.417059 -0.350000
v 0.465355 -0.465355 -0.350000
v 0.394645 -0.394645 -0.400000
v 0.442941 -0.381704 -0.400000
v 0.417059 -0.478296 -0.400000
v 0.381704 -0.442941 -0.400000
v 0.394645 -0.394645 -0.350000
v 0.442941 -0.381704 -0.350000
v 0.381704 -0.442941 -0.350000
v 0.417059 -0.478296 -0.350000
vt 0.098609 0.936099
vt 0.118090 0.936099
vt 0.108350 0.957327
vt 0.100038 0.887206
vt 0.100038 0.906675
vt 0.097143 0.906774
vt 0.095962 0.907954
vt 0.095864 0.910847
vt 0.076382 0.910847
vt 0.076284 0.907954
vt 0.075103 0.906774
vt 0.072208 0.906675
vt 0.072208 0.887206
vt 0.075103 0.887107
vt 0.076284 0.885927
vt 0.076382 0.883034
vt 0.095864 0.883034
vt 0.095962 0.885927
vt 0.097143 0.887107
vt 0.098609 0.910847
vt 0.118090 0.910847
vt 0.108350 0.932074
vt 0.118189 0.926134
vt 0.221745 0.927809
vt 0.224605 0.942897
vt 0.221710 0.942897
vt 0.285241 0.900275
vt 0.285241 0.915363
vt 0.284650 0.917121
vt 0.284060 0.915282
vt 0.284060 0.900194
vt 0.288136 0.900281
vt 0.100629 0.898320
vt 0.100727 0.883034
vt 0.110468 0.904261
vt 0.120209 0.883034
vt 0.120308 0.898320
vt 0.218850 0.927809
vt 0.221710 0.942897
vt 0.218815 0.942897
vt 0.287359 0.872461
vt 0.287359 0.887550
vt 0.286769 0.889307
vt 0.286179 0.887469
vt 0.286179 0.872380
vt 0.290254 0.872468
vt 0.072798 0.951830
vt 0.072897 0.936543
vt 0.082638 0.957771
vt 0.092378 0.936543
vt 0.092477 0.951830
vt 0.213060 0.927809
vt 0.215920 0.942897
vt 0.213025 0.942897
vt 0.259529 0.925971
vt 0.259529 0.941059
vt 0.258939 0.942817
vt 0.258348 0.940978
vt 0.258348 0.925890
vt 0.262424 0.925978
vt 0.098510 0.951386
vt 0.097920 0.953224
vt 0.098510 0.957606
vt 0.748581 0.956422
vt 0.738741 0.956701
vt 0.738741 0.952955
vt 0.748581 0.952676
vt 0.842655 0.755395
vt 0.842655 0.744751
vt 0.850186 0.737225
vt 0.860836 0.737225
vt 0.868367 0.744751
vt 0.868367 0.755395
vt 0.860836 0.762921
vt 0.850186 0.762921
vt 0.722869 0.956866
vt 0.713029 0.957145
vt 0.713029 0.953399
vt 0.722869 0.953120
vt 0.760539 0.903635
vt 0.750699 0.903356
vt 0.750699 0.899610
vt 0.760539 0.899889
vt 0.740860 0.903635
vt 0.740860 0.899889
vt 0.758420 0.931449
vt 0.748581 0.931170
vt 0.748581 0.927424
vt 0.758420 0.927703
vt 0.738741 0.931449
vt 0.738741 0.927703
vt 0.758420 0.956701
vt 0.758420 0.952955
vt 0.118779 0.953224
vt 0.118189 0.957606
vt 0.118189 0.951386
vt 0.215955 0.927809
vt 0.218815 0.942897
vt 0.215920 0.942897
vt 0.285241 0.925527
vt 0.285241 0.940615
vt 0.284650 0.942373
vt 0.284060 0.940534
vt 0.284060 0.925446
vt 0.288136 0.925534
vt 0.098510 0.926134
vt 0.097920 0.927972
vt 0.098510 0.932353
vt 0.118779 0.927972
vt 0.118189 0.932353
vt 0.100038 0.900159
vt 0.100629 0.904540
vt 0.120898 0.900159
vt 0.120308 0.904540
vt 0.072208 0.953668
vt 0.072798 0.958050
vt 0.732708 0.957145
vt 0.732708 0.953399
vt 0.093068 0.953668
vt 0.092477 0.958050
vt 0.301764 0.937110
vt 0.301764 0.909297
vt 0.304540 0.909297
vt 0.304540 0.937110
vt 0.221100 0.909297
vt 0.248930 0.909297
vt 0.248930 0.937110
vt 0.221100 0.937110
vt 0.223876 0.937110
vt 0.223876 0.964924
vt 0.221100 0.964924
vt 0.221100 0.937110
vt 0.303882 0.881483
vt 0.303882 0.909297
vt 0.301106 0.909297
vt 0.301106 0.881483
vt 0.221100 0.881483
vt 0.248930 0.881483
vt 0.248930 0.909297
vt 0.221100 0.909297
vt 0.301764 0.937110
vt 0.298987 0.937110
vt 0.298987 0.909297
vt 0.732724 0.924390
vt 0.733929 0.925085
vt 0.733929 0.926476
vt 0.732724 0.927171
vt 0.731519 0.926476
vt 0.731519 0.925085
vt 0.777185 0.893586
vt 0.777135 0.892244
vt 0.778523 0.892218
vt 0.778573 0.893561
vt 0.736339 0.926476
vt 0.735134 0.927171
vt 0.733929 0.926476
vt 0.733929 0.925085
vt 0.735134 0.924390
vt 0.736339 0.925085
vt 0.769338 0.925139
vt 0.770682 0.925164
vt 0.770682 0.926551
vt 0.769338 0.926527
vt 0.774261 0.892244
vt 0.774310 0.891259
vt 0.775698 0.891234
vt 0.775649 0.892218
vt 0.774310 0.893586
vt 0.775698 0.893561
vt 0.769338 0.920903
vt 0.770682 0.920928
vt 0.770682 0.922315
vt 0.769338 0.922291
vt 0.777185 0.891259
vt 0.778573 0.891234
vt 0.737312 0.925400
vt 0.737361 0.924415
vt 0.738749 0.924390
vt 0.738700 0.925374
vt 0.738749 0.922304
vt 0.739954 0.921608
vt 0.741159 0.922304
vt 0.741159 0.923694
vt 0.739954 0.924390
vt 0.738749 0.923694
vt 0.737361 0.926742
vt 0.738749 0.926717
vt 0.733929 0.923694
vt 0.733929 0.922304
vt 0.735134 0.921608
vt 0.736339 0.922304
vt 0.736339 0.923694
vt 0.735134 0.924390
vt 0.744993 0.925844
vt 0.743649 0.925820
vt 0.743649 0.924432
vt 0.744993 0.924457
vt 0.742182 0.926742
vt 0.742132 0.925400
vt 0.743520 0.925374
vt 0.743570 0.926717
vt 0.742182 0.924415
vt 0.743570 0.924390
vt 0.744993 0.924432
vt 0.743649 0.924408
vt 0.743649 0.923020
vt 0.744993 0.923045
vt 0.772873 0.893586
vt 0.772823 0.892244
vt 0.774211 0.892218
vt 0.774261 0.893561
vt 0.742365 0.924390
vt 0.741159 0.923694
vt 0.741159 0.922304
vt 0.742365 0.921608
vt 0.743570 0.922304
vt 0.743570 0.923694
vt 0.737312 0.927752
vt 0.737361 0.926768
vt 0.738749 0.926742
vt 0.738700 0.927727
vt 0.743649 0.921608
vt 0.744993 0.921633
vt 0.744993 0.923020
vt 0.743649 0.922996
vt 0.738749 0.926476
vt 0.738749 0.925085
vt 0.739954 0.924390
vt 0.741159 0.925085
vt 0.741159 0.926476
vt 0.739954 0.927171
vt 0.772873 0.891259
vt 0.774261 0.891234
vt 0.769338 0.919491
vt 0.770682 0.919516
vt 0.770682 0.920903
vt 0.769338 0.920879
vt 0.737361 0.929095
vt 0.738749 0.929069
vt 0.778622 0.893586
vt 0.778573 0.892244
vt 0.779961 0.892218
vt 0.780010 0.893561
vt 0.738749 0.923694
vt 0.737544 0.924390
vt 0.736339 0.923694
vt 0.736339 0.922304
vt 0.737544 0.921608
vt 0.738749 0.922304
vt 0.770682 0.923727
vt 0.769338 0.923703
vt 0.769338 0.922315
vt 0.770682 0.922340
vt 0.775747 0.893586
vt 0.775698 0.892244
vt 0.777086 0.892218
vt 0.777135 0.893561
vt 0.775747 0.891259
vt 0.777135 0.891234
vt 0.770682 0.925139
vt 0.769338 0.925115
vt 0.769338 0.923727
vt 0.770682 0.923752
vt 0.731519 0.922304
vt 0.732724 0.921608
vt 0.733929 0.922304
vt 0.733929 0.923694
vt 0.732724 0.924390
vt 0.731519 0.923694
vt 0.778622 0.891259
vt 0.780010 0.891234
vn -0.9774 0.1921 0.0879
vn -0.9774 -0.1921 0.0879
vn -0.9873 -0.0000 0.1591
vn -0.0000 0.0000 -1.0000
vn -0.1921 -0.9774 0.0879
vn 0.1921 -0.9774 0.0879
vn 0.0000 -0.9873 0.1591
vn 0.3760 -0.9103 0.1729
vn 0.9172 -0.3984 0.0000
vn 0.9994 -0.0341 0.0000
vn 0.3984 -0.9172 -0.0000
vn 0.7071 -0.7071 -0.0000
vn 0.0341 -0.9994 0.0000
vn 0.9103 -0.3760 0.1729
vn 0.9774 -0.1921 0.0879
vn 0.9873 0.0000 0.1591
vn 0.9774 0.1921 0.0879
vn 0.9103 0.3760 0.1729
vn 0.3984 0.9172 0.0000
vn 0.0341 0.9994 0.0000
vn 0.9172 0.3984 -0.0000
vn 0.7071 0.7071 -0.0000
vn 0.9994 0.0341 0.0000
vn 0.3760 0.9103 0.1729
vn 0.1921 0.9774 0.0879
vn -0.0000 0.9873 0.1591
vn -0.1921 0.9774 0.0879
vn -0.3760 0.9103 0.1729
vn -0.9172 0.3984 0.0000
vn -0.9994 0.0341 0.0000
vn -0.3984 0.9172 -0.0000
vn -0.7071 0.7071 -0.0000
vn -0.0341 0.9994 0.0000
vn -0.9103 0.3760 0.1729
vn -0.6945 0.6945 0.1883
vn -1.0000 0.0000 0.0000
vn 0.0000 0.0000 1.0000
vn 0.0000 1.0000 0.0000
vn 1.0000 0.0000 0.0000
vn 0.0000 -1.0000 0.0000
vn -0.7071 -0.7071 0.0000
vn -0.6945 -0.6945 0.1883
vn -0.9103 -0.3760 0.1729
vn -0.3984 -0.9172 0.0000
vn -0.0341 -0.9994 0.0000
vn -0.9172 -0.3984 -0.0000
vn -0.9994 -0.0341 0.0000
vn -0.3760 -0.9103 0.1729
vn 0.6945 -0.6945 0.1883
vn 0.6945 0.6945 0.1883
vn -0.2588 -0.9659 0.0000
vn -0.9659 -0.2588 0.0000
vn 0.2588 0.9659 0.0000
vn 0.9659 0.2588 0.0000
vn 0.9659 -0.2588 0.0000
vn -0.2588 0.9659 0.0000
vn -0.9659 0.2588 0.0000
vn 0.2588 -0.9659 0.0000
usemtl FrontColor.003
s 1
f 1/1/1 2/2/2 3/3/3
f 4/4/4 5/5/4 6/6/4 7/7/4 2/8/4 1/9/4 8/10/4 9/11/4 10/12/4 11/13/4 12/14/4 13/15/4 14/16/4 15/17/4 16/18/4 17/19/4
f 5/20/5 4/21/6 18/22/7
f 4/21/6 19/23/8 18/22/7
f 19/24/9 4/25/10 17/26/9
f 16/27/11 20/28/11 21/29/12 19/30/9 17/31/9
f 15/32/13 20/28/11 16/27/11
f 20/33/14 15/34/15 22/35/16
f 15/34/15 14/36/17 22/35/16
f 14/36/17 23/37/18 22/35/16
f 23/38/19 14/39/20 13/40/19
f 12/41/21 24/42/21 25/43/22 23/44/19 13/45/19
f 11/46/23 24/42/21 12/41/21
f 24/47/24 11/48/25 26/49/26
f 11/48/25 10/50/27 26/49/26
f 10/50/27 27/51/28 26/49/26
f 27/52/29 10/53/30 9/54/29
f 8/55/31 28/56/31 29/57/32 27/58/29 9/59/29
f 1/60/33 28/56/31 8/55/31
f 28/61/34 1/1/1 3/3/3
f 28/61/34 3/3/3 29/62/35
f 29/62/35 3/3/3 30/63/35
f 31/64/36 32/65/32 30/66/32 3/67/36
f 33/68/37 34/69/37 32/70/37 31/71/37 35/72/37 36/73/37 37/74/37 38/75/37
f 34/76/38 33/77/22 39/78/22 26/79/38
f 33/80/22 38/81/39 22/82/39 39/83/22
f 38/81/39 37/84/12 40/85/12 22/82/39
f 37/86/12 36/87/40 18/88/40 40/89/12
f 36/87/40 35/90/41 41/91/41 18/88/40
f 35/92/41 31/64/36 3/67/36 41/93/41
f 3/3/3 42/94/42 41/95/42
f 3/3/3 43/96/43 42/94/42
f 2/2/2 43/96/43 3/3/3
f 43/97/44 2/98/45 7/99/44
f 6/100/46 44/101/46 42/102/41 43/103/44 7/104/44
f 5/105/47 44/101/46 6/100/46
f 44/106/48 5/20/5 18/22/7
f 44/106/48 18/22/7 42/107/42
f 42/107/42 18/22/7 41/108/42
f 18/22/7 21/109/49 40/110/49
f 18/22/7 19/23/8 21/109/49
f 21/111/49 22/35/16 40/112/49
f 20/33/14 22/35/16 21/111/49
f 22/35/16 25/113/50 39/114/50
f 22/35/16 23/37/18 25/113/50
f 25/115/50 26/49/26 39/116/50
f 24/47/24 26/49/26 25/115/50
f 32/117/32 34/76/38 26/79/38 30/118/32
f 26/49/26 29/119/35 30/120/35
f 26/49/26 27/51/28 29/119/35
f 45/121/40 46/122/40 47/123/40 48/124/40
f 49/125/4 50/126/4 46/127/4 45/128/4
f 50/129/38 49/130/38 51/131/38 52/132/38
f 49/133/36 45/134/36 48/135/36 51/136/36
f 52/137/37 51/138/37 48/139/37 47/140/37
f 46/122/39 50/141/39 52/142/39 47/143/39
f 53/144/37 54/145/37 55/146/37 56/147/37 57/148/37 58/149/37
f 59/150/51 60/151/51 54/152/51 53/153/51
f 60/154/4 59/155/4 61/156/4 62/157/4 63/158/4 64/159/4
f 61/160/52 59/161/52 53/162/52 58/163/52
f 62/164/32 61/165/32 58/166/32 57/167/32
f 63/168/53 62/164/53 57/167/53 56/169/53
f 64/170/54 63/171/54 56/172/54 55/173/54
f 60/151/12 64/174/12 55/175/12 54/152/12
f 65/176/22 66/177/22 67/178/22 68/179/22
f 66/180/4 65/181/4 69/182/4 70/183/4 71/184/4 72/185/4
f 69/186/55 65/176/55 68/179/55 73/187/55
f 68/188/37 67/189/37 74/190/37 75/191/37 76/192/37 73/193/37
f 66/194/56 72/195/56 74/196/56 67/197/56
f 72/198/57 71/199/57 75/200/57 74/201/57
f 71/199/41 70/202/41 76/203/41 75/200/41
f 70/204/58 69/205/58 73/206/58 76/207/58
f 77/208/51 78/209/51 79/210/51 80/211/51
f 81/212/4 82/213/4 83/214/4 84/215/4 78/216/4 77/217/4
f 82/218/32 81/219/32 85/220/32 86/221/32
f 81/222/52 77/223/52 80/224/52 85/225/52
f 86/226/37 85/227/37 80/228/37 79/229/37 87/230/37 88/231/37
f 78/209/12 84/232/12 87/233/12 79/210/12
f 84/234/54 83/235/54 88/236/54 87/237/54
f 83/238/53 82/218/53 86/221/53 88/239/53
f 89/240/55 90/241/55 91/242/55 92/243/55
f 93/244/4 94/245/4 90/246/4 89/247/4 95/248/4 96/249/4
f 94/250/56 93/251/56 97/252/56 98/253/56
f 93/254/57 96/255/57 99/256/57 97/257/57
f 96/255/41 95/258/41 100/259/41 99/256/41
f 95/260/58 89/261/58 92/262/58 100/263/58
f 98/264/37 97/265/37 99/266/37 100/267/37 92/268/37 91/269/37
f 90/241/22 94/270/22 98/271/22 91/242/22
