# Blender v2.79 (sub 0) OBJ File: ''
# www.blender.org
mtllib robotJoint5.mtl
o Mesh3_Group3_Group1_Model
v 0.500000 0.092047 -0.000000
v 0.353553 -0.740692 0.353553
v 0.500000 -0.740692 -0.000000
v 0.250000 -0.324322 0.250000
v -0.000000 -0.740692 0.500000
v -0.250000 -0.324322 0.250000
v 0.250000 -0.324322 -0.000000
v -0.250000 -0.324322 -0.000000
v 0.250000 0.092047 -0.000000
v -0.250000 0.092047 -0.000000
v -0.500000 0.625000 -0.320000
v -0.500000 0.092047 -0.000000
v 0.500000 0.625000 -0.320000
v 0.400000 0.625000 -0.320000
v 0.400000 0.375000 -0.169893
v -0.400000 0.375000 -0.169893
v -0.400000 0.625000 -0.320000
v -0.500000 -0.740692 -0.000000
v -0.500000 0.625000 -0.500000
v -0.500000 0.375000 -0.500000
v -0.500000 0.009308 -0.250000
v -0.353553 -0.740692 0.353553
v -0.353553 -0.875000 0.353553
v -0.000000 -0.875000 0.500000
v -0.500000 -0.875000 -0.000000
v -0.353553 -0.740692 -0.353553
v -0.353553 -0.875000 -0.353553
v -0.000000 -0.740692 -0.500000
v 0.500000 0.009308 -0.250000
v 0.353553 -0.740692 -0.353553
v 0.500000 0.375000 -0.500000
v 0.500000 0.625000 -0.500000
v -0.400000 0.375000 -0.320000
v 0.400000 0.375000 -0.320000
v 0.500000 -0.875000 -0.000000
v 0.353553 -0.875000 -0.353553
v 0.353553 -0.875000 0.353553
v -0.000000 -1.000000 0.500000
v 0.353553 -1.000000 0.353553
v -0.353553 -1.000000 0.353553
v -0.500000 -1.000000 -0.000000
v -0.353553 -1.000000 -0.353553
v -0.000000 -0.875000 -0.500000
v -0.000000 -1.000000 -0.500000
v 0.353553 -1.000000 -0.353553
v 0.500000 -1.000000 -0.000000
v 0.250000 0.400000 -0.320000
v 0.336603 0.450000 -0.320000
v 0.336603 0.450000 -0.270000
v 0.250000 0.400000 -0.270000
v 0.336603 0.550000 -0.320000
v 0.336603 0.550000 -0.270000
v 0.250000 0.600000 -0.320000
v 0.250000 0.600000 -0.270000
v 0.163397 0.550000 -0.320000
v 0.163397 0.550000 -0.270000
v 0.163397 0.450000 -0.320000
v 0.163397 0.450000 -0.270000
v -0.000000 -0.324322 0.230000
v 0.162635 -0.324322 0.162635
v 0.162635 -0.224322 0.162635
v -0.000000 -0.224322 0.230000
v 0.230000 -0.324322 -0.000000
v 0.230000 -0.224322 -0.000000
v -0.230000 -0.224322 -0.000000
v -0.162635 -0.224322 0.162635
v -0.230000 -0.324322 -0.000000
v -0.162635 -0.324322 0.162635
v -0.163397 0.450000 -0.320000
v -0.163397 0.550000 -0.320000
v -0.163397 0.550000 -0.270000
v -0.163397 0.450000 -0.270000
v -0.250000 0.600000 -0.320000
v -0.250000 0.600000 -0.270000
v -0.336603 0.550000 -0.320000
v -0.336603 0.550000 -0.270000
v -0.336603 0.450000 -0.320000
v -0.336603 0.450000 -0.270000
v -0.250000 0.400000 -0.320000
v -0.250000 0.400000 -0.270000
vt 0.075395 0.966194
vt 0.067120 0.943170
vt 0.078236 0.944247
vt 0.059314 0.911924
vt 0.051508 0.900138
vt 0.062548 0.900626
vt 0.067120 0.923709
vt 0.043702 0.911924
vt 0.283653 0.944109
vt 0.283653 0.930851
vt 0.291460 0.930851
vt 0.291460 0.944109
vt 0.223389 0.904944
vt 0.239002 0.904944
vt 0.239002 0.915896
vt 0.223389 0.915896
vt 0.302837 0.930851
vt 0.302837 0.943724
vt 0.296147 0.934259
vt 0.035895 0.938794
vt 0.035895 0.923709
vt 0.043702 0.923709
vt 0.059314 0.923709
vt 0.067120 0.938794
vt 0.063998 0.938794
vt 0.063998 0.931718
vt 0.039018 0.931718
vt 0.039018 0.938794
vt 0.109461 0.930753
vt 0.106620 0.908806
vt 0.114729 0.893836
vt 0.120313 0.893317
vt 0.121166 0.899906
vt 0.114658 0.910265
vt 0.098345 0.931830
vt 0.040468 0.900626
vt 0.040468 0.897093
vt 0.051508 0.896605
vt 0.109919 0.934292
vt 0.098804 0.935369
vt 0.120281 0.929789
vt 0.120739 0.933329
vt 0.098345 0.920410
vt 0.082733 0.900182
vt 0.093773 0.900400
vt 0.067120 0.920410
vt 0.071693 0.900400
vt 0.083433 0.964735
vt 0.089056 0.945211
vt 0.089941 0.975094
vt 0.089088 0.981683
vt 0.083504 0.981163
vt 0.098345 0.929718
vt 0.067120 0.929718
vt 0.215558 0.917999
vt 0.246783 0.917999
vt 0.246783 0.924618
vt 0.215558 0.924618
vt 0.103966 0.962527
vt 0.103966 0.965179
vt 0.098345 0.965179
vt 0.098345 0.938664
vt 0.103966 0.938664
vt 0.103966 0.941315
vt 0.255888 0.922392
vt 0.248144 0.922392
vt 0.248144 0.901180
vt 0.255888 0.901180
vt 0.273993 0.924720
vt 0.273993 0.932449
vt 0.269975 0.930403
vt 0.274662 0.924720
vt 0.269975 0.924720
vt 0.269975 0.903507
vt 0.274662 0.903507
vt 0.248144 0.929021
vt 0.252825 0.922392
vt 0.252828 0.929021
vt 0.078694 0.940708
vt 0.089514 0.941671
vt 0.067578 0.939631
vt 0.062548 0.897093
vt 0.718797 0.900999
vt 0.707758 0.900512
vt 0.707758 0.897223
vt 0.718797 0.897711
vt 0.696718 0.900999
vt 0.696718 0.897711
vt 0.755053 0.939276
vt 0.766169 0.938199
vt 0.766595 0.941493
vt 0.755480 0.942570
vt 0.776989 0.937235
vt 0.777416 0.940530
vt 0.750022 0.900751
vt 0.738983 0.900532
vt 0.738983 0.897223
vt 0.750022 0.897442
vt 0.082733 0.896626
vt 0.093773 0.896845
vt 0.071693 0.896845
vt 0.727943 0.900751
vt 0.727943 0.897442
vt 0.745764 0.945577
vt 0.734944 0.944614
vt 0.735370 0.941320
vt 0.746191 0.942283
vt 0.723828 0.943537
vt 0.724255 0.940243
vt 0.935837 0.742844
vt 0.935837 0.752991
vt 0.927388 0.760166
vt 0.915438 0.760166
vt 0.906989 0.752991
vt 0.906989 0.742844
vt 0.915438 0.735669
vt 0.927388 0.735669
vt 0.303949 0.954763
vt 0.296147 0.943726
vt 0.303949 0.943724
vt 0.732712 0.920292
vt 0.732712 0.917996
vt 0.734273 0.917996
vt 0.734273 0.920292
vt 0.732712 0.939729
vt 0.732712 0.937078
vt 0.734272 0.937077
vt 0.734272 0.939729
vt 0.732712 0.927181
vt 0.732712 0.924885
vt 0.734273 0.924885
vt 0.734273 0.927181
vt 0.732712 0.922588
vt 0.734273 0.922588
vt 0.734272 0.934426
vt 0.734272 0.937077
vt 0.732712 0.937077
vt 0.732712 0.934426
vt 0.732712 0.922588
vt 0.734273 0.922588
vt 0.703864 0.939215
vt 0.706568 0.937900
vt 0.709272 0.939215
vt 0.709272 0.941846
vt 0.706568 0.943161
vt 0.703864 0.941846
vt 0.762594 0.936470
vt 0.762858 0.932158
vt 0.765956 0.932158
vt 0.765692 0.936470
vt 0.715517 0.937900
vt 0.715517 0.942270
vt 0.712395 0.942281
vt 0.712395 0.937911
vt 0.774038 0.928317
vt 0.779116 0.926531
vt 0.779116 0.938728
vt 0.774038 0.936941
vt 0.771935 0.932629
vt 0.712395 0.937911
vt 0.712395 0.942281
vt 0.709272 0.942270
vt 0.709272 0.937900
vt 0.762858 0.940782
vt 0.765956 0.940782
vt 0.715517 0.940552
vt 0.715517 0.937901
vt 0.717077 0.937900
vt 0.717077 0.940552
vt 0.732712 0.931774
vt 0.732712 0.929477
vt 0.734273 0.929477
vt 0.734273 0.931774
vt 0.732712 0.927181
vt 0.734273 0.927181
vt 0.732712 0.934425
vt 0.732712 0.931774
vt 0.734273 0.931774
vt 0.734272 0.934426
vt 0.732712 0.917996
vt 0.732712 0.915700
vt 0.734273 0.915700
vt 0.734273 0.917996
vt 0.732712 0.913403
vt 0.734273 0.913403
vt 0.787132 0.942446
vt 0.784428 0.941131
vt 0.784428 0.938500
vt 0.787132 0.937185
vt 0.789836 0.938500
vt 0.789836 0.941131
vn 0.4929 0.3153 0.8109
vn 0.7082 0.0844 0.7010
vn 0.9994 -0.0343 0.0009
vn 0.1238 0.4551 0.8818
vn 0.0000 0.2460 0.9693
vn -0.1238 0.4551 0.8818
vn 0.0000 1.0000 0.0000
vn 0.0000 0.0000 1.0000
vn -1.0000 0.0000 0.0000
vn 0.0000 0.5148 0.8573
vn -0.4929 0.3153 0.8109
vn -0.7082 0.0844 0.7010
vn -0.9994 -0.0343 0.0009
vn -0.7071 0.0000 0.7071
vn -0.7065 -0.0200 -0.7075
vn -0.7071 0.0000 -0.7071
vn -0.4976 0.0929 -0.8624
vn 0.0000 0.0905 -0.9959
vn 0.4976 0.0929 -0.8624
vn 0.7065 -0.0200 -0.7075
vn 1.0000 0.0000 0.0000
vn 0.0000 -0.5644 -0.8255
vn 0.0000 0.0000 -1.0000
vn 0.7071 0.0000 -0.7071
vn 0.7071 0.0000 0.7071
vn 0.0000 -1.0000 0.0000
vn 0.5000 -0.8660 0.0000
vn 0.5000 0.8660 0.0000
vn -0.5000 0.8660 0.0000
vn -0.5000 -0.8660 0.0000
vn 0.9239 0.0000 0.3827
vn -0.9239 0.0000 0.3827
usemtl FrontColor
s 1
f 1/1/1 2/2/2 3/3/3
f 4/4/4 5/5/5 2/6/2 1/7/1
f 5/5/5 4/4/4 6/8/6
f 7/9/7 8/10/7 6/11/7 4/12/7
f 8/13/8 7/14/8 9/15/8 10/16/8
f 4/17/9 9/18/9 7/19/9
f 11/20/10 12/21/11 6/8/6 10/22/10 9/23/10 4/4/4 1/7/1 13/24/10 14/25/10 15/26/10 16/27/10 17/28/10
f 18/29/9 12/30/9 11/31/9 19/32/9 20/33/9 21/34/9
f 22/35/12 12/30/11 18/29/13
f 5/5/5 6/8/6 12/21/11 22/36/12
f 5/5/5 22/36/12 23/37/14 24/38/8
f 22/35/12 18/29/13 25/39/9 23/40/14
f 18/29/13 26/41/15 27/42/16 25/39/9
f 21/34/17 26/41/15 18/29/13
f 21/43/17 28/44/18 26/45/15
f 29/46/19 28/44/18 21/43/17
f 29/46/19 30/47/20 28/44/18
f 29/48/19 3/3/3 30/49/20
f 3/3/21 29/48/21 31/50/21 32/51/21 13/52/21 1/1/21
f 29/46/22 21/43/22 20/53/22 31/54/22
f 31/55/23 20/56/23 19/57/23 32/58/23
f 14/59/7 13/60/7 32/61/7 19/62/7 11/63/7 17/64/7
f 17/65/8 33/66/8 34/67/8 14/68/8
f 17/69/21 16/70/21 33/71/21
f 33/72/7 16/73/7 15/74/7 34/75/7
f 15/76/9 14/77/9 34/78/9
f 30/49/20 3/3/3 35/79/21 36/80/24
f 3/3/3 2/2/2 37/81/25 35/79/21
f 2/6/2 5/5/5 24/38/8 37/82/25
f 37/83/25 24/84/8 38/85/8 39/86/25
f 24/84/8 23/87/14 40/88/14 38/85/8
f 23/89/14 25/90/9 41/91/9 40/92/14
f 25/90/9 27/93/16 42/94/16 41/91/9
f 27/95/16 43/96/23 44/97/23 42/98/16
f 26/45/15 28/44/18 43/99/23 27/100/16
f 28/44/18 30/47/20 36/101/24 43/99/23
f 43/96/23 36/102/24 45/103/24 44/97/23
f 36/104/24 35/105/21 46/106/21 45/107/24
f 35/105/21 37/108/25 39/109/25 46/106/21
f 42/110/26 44/111/26 45/112/26 46/113/26 39/114/26 38/115/26 40/116/26 41/117/26
f 10/118/21 6/119/21 8/120/21
f 47/121/27 48/122/27 49/123/27 50/124/27
f 48/125/21 51/126/21 52/127/21 49/128/21
f 51/129/28 53/130/28 54/131/28 52/132/28
f 53/130/29 55/133/29 56/134/29 54/131/29
f 55/135/9 57/136/9 58/137/9 56/138/9
f 57/139/30 47/121/30 50/124/30 58/140/30
f 52/141/8 54/142/8 56/143/8 58/144/8 50/145/8 49/146/8
f 59/147/8 60/148/25 61/149/25 62/150/8
f 60/151/25 63/152/31 64/153/31 61/154/25
f 61/155/7 64/156/7 65/157/7 66/158/7 62/159/7
f 67/160/32 68/161/14 66/162/14 65/163/32
f 68/164/14 59/147/8 62/150/8 66/165/14
f 69/166/21 70/167/21 71/168/21 72/169/21
f 70/170/28 73/171/28 74/172/28 71/173/28
f 73/171/29 75/174/29 76/175/29 74/172/29
f 75/176/9 77/177/9 78/178/9 76/179/9
f 77/180/30 79/181/30 80/182/30 78/183/30
f 79/181/27 69/184/27 72/185/27 80/182/27
f 80/186/8 72/187/8 71/188/8 74/189/8 76/190/8 78/191/8
