# Blender v2.79 (sub 0) OBJ File: ''
# www.blender.org
mtllib ScifiLogic2.mtl
o Mesh11_Group13_Group1_Model
v 0.415746 0.172208 -0.400000
v 0.172208 0.415746 -0.400000
v 0.172208 0.415746 0.000000
v 0.415746 0.172208 0.000000
v -0.415746 -0.172208 -0.400000
v -0.415746 0.172208 -0.400000
v -0.172208 0.415746 -0.400000
v 0.415746 -0.172208 -0.400000
v 0.172208 -0.415746 -0.400000
v -0.172208 -0.415746 -0.400000
v -0.415746 -0.172208 0.000000
v -0.415746 0.172208 0.000000
v -0.172208 -0.415746 0.000000
v 0.172208 -0.415746 0.000000
v 0.415746 -0.172208 0.000000
v 0.295180 0.122267 0.353553
v 0.295180 -0.122267 0.353553
v 0.122267 0.295180 0.353553
v -0.172208 0.415746 0.000000
v -0.122267 0.295180 0.353553
v -0.295180 0.122267 0.353553
v -0.295180 -0.122267 0.353553
v -0.122267 -0.295180 0.353553
v -0.176777 -0.176777 0.440350
v -0.000000 -0.250000 0.440350
v 0.122267 -0.295180 0.353553
v 0.176777 -0.176777 0.440350
v 0.250000 -0.000000 0.440350
v 0.250000 -0.000000 0.500000
v 0.176777 -0.176777 0.500000
v 0.176777 0.176777 0.440350
v 0.176777 0.176777 0.500000
v 0.000000 0.250000 0.440350
v 0.000000 0.250000 0.500000
v -0.176777 0.176777 0.440350
v -0.176777 0.176777 0.500000
v -0.250000 -0.000000 0.440350
v -0.250000 -0.000000 0.500000
v -0.176777 -0.176777 0.500000
v -0.000000 -0.250000 0.500000
v 0.389645 -0.389645 -0.400000
v 0.376704 -0.437941 -0.400000
v 0.376704 -0.437941 -0.360000
v 0.389645 -0.389645 -0.360000
v 0.412059 -0.473296 -0.400000
v 0.412059 -0.473296 -0.360000
v 0.460355 -0.460355 -0.400000
v 0.460355 -0.460355 -0.360000
v 0.473296 -0.412059 -0.400000
v 0.473296 -0.412059 -0.360000
v 0.437941 -0.376704 -0.400000
v 0.437941 -0.376704 -0.360000
v 0.450000 -0.120000 -0.400000
v -0.450000 -0.120000 -0.400000
v -0.450000 -0.120000 0.000000
v -0.319500 -0.120000 0.353553
v -0.225000 -0.120000 0.440350
v 0.225000 -0.120000 0.440350
v 0.319500 -0.120000 0.353553
v 0.450000 -0.120000 0.000000
v -0.450000 -0.180000 -0.400000
v -0.450000 -0.180000 0.000000
v 0.225000 -0.180000 0.440350
v -0.225000 -0.180000 0.440350
v -0.319500 -0.180000 0.353553
v 0.450000 -0.180000 -0.400000
v 0.450000 -0.180000 0.000000
v 0.319500 -0.180000 0.353553
v -0.389645 0.389645 -0.400000
v -0.376704 0.437941 -0.400000
v -0.376704 0.437941 -0.360000
v -0.389645 0.389645 -0.360000
v -0.412059 0.473296 -0.400000
v -0.412059 0.473296 -0.360000
v -0.460355 0.460355 -0.400000
v -0.460355 0.460355 -0.360000
v -0.473296 0.412059 -0.400000
v -0.473296 0.412059 -0.360000
v -0.437941 0.376704 -0.400000
v -0.437941 0.376704 -0.360000
v 0.319500 0.180000 0.353553
v 0.225000 0.180000 0.440350
v 0.225000 0.120000 0.440350
v 0.319500 0.120000 0.353553
v 0.450000 0.180000 -0.400000
v -0.450000 0.180000 -0.400000
v -0.450000 0.180000 0.000000
v -0.319500 0.180000 0.353553
v -0.225000 0.180000 0.440350
v 0.450000 0.180000 0.000000
v -0.450000 0.120000 -0.400000
v -0.450000 0.120000 0.000000
v -0.225000 0.120000 0.440350
v -0.319500 0.120000 0.353553
v 0.450000 0.120000 -0.400000
v 0.450000 0.120000 0.000000
v 0.389645 0.389645 -0.400000
v 0.437941 0.376704 -0.400000
v 0.437941 0.376704 -0.360000
v 0.389645 0.389645 -0.360000
v 0.473296 0.412059 -0.400000
v 0.473296 0.412059 -0.360000
v 0.460355 0.460355 -0.400000
v 0.460355 0.460355 -0.360000
v 0.412059 0.473296 -0.400000
v 0.412059 0.473296 -0.360000
v 0.376704 0.437941 -0.400000
v 0.376704 0.437941 -0.360000
v -0.500000 -0.500000 -0.500000
v 0.500000 -0.500000 -0.500000
v 0.500000 -0.500000 -0.400000
v -0.500000 -0.500000 -0.400000
v -0.500000 0.500000 -0.500000
v 0.500000 0.500000 -0.500000
v -0.500000 0.500000 -0.400000
v 0.500000 0.500000 -0.400000
v 0.460000 0.030000 -0.400000
v 0.460000 0.030000 0.000000
v 0.460000 -0.030000 0.000000
v 0.460000 -0.030000 -0.400000
v -0.460000 0.030000 -0.400000
v -0.460000 0.030000 0.000000
v -0.326600 0.030000 0.353553
v -0.250000 0.030000 0.440350
v 0.250000 0.030000 0.440350
v 0.326600 0.030000 0.353553
v -0.460000 -0.030000 -0.400000
v -0.460000 -0.030000 0.000000
v 0.326600 -0.030000 0.353553
v 0.250000 -0.030000 0.440350
v -0.250000 -0.030000 0.440350
v -0.326600 -0.030000 0.353553
v 0.208827 0.476145 0.017653
v -0.208827 0.476145 0.017653
v -0.208827 0.428685 0.017653
v 0.208827 0.428685 0.017653
v 0.189842 0.476145 -0.001331
v 0.189842 0.476145 -0.381016
v 0.208827 0.476145 -0.400000
v -0.208827 0.476145 -0.400000
v 0.208827 0.428685 -0.400000
v -0.208827 0.428685 -0.400000
v 0.189842 0.428685 -0.001331
v -0.189842 0.428685 -0.001331
v -0.189842 0.428685 -0.381016
v 0.189842 0.428685 -0.381016
v -0.189842 0.476145 -0.381016
v -0.189842 0.476145 -0.001331
v -0.389645 -0.389645 -0.400000
v -0.437941 -0.376704 -0.400000
v -0.437941 -0.376704 -0.360000
v -0.389645 -0.389645 -0.360000
v -0.473296 -0.412059 -0.400000
v -0.473296 -0.412059 -0.360000
v -0.460355 -0.460355 -0.400000
v -0.460355 -0.460355 -0.360000
v -0.412059 -0.473296 -0.400000
v -0.412059 -0.473296 -0.360000
v -0.376704 -0.437941 -0.400000
v -0.376704 -0.437941 -0.360000
v 0.189842 0.466653 -0.381016
v -0.189842 0.466653 -0.381016
v -0.189842 0.466653 -0.001331
v 0.189842 0.466653 -0.001331
v 0.189842 0.332053 -0.381016
v -0.189842 0.332053 -0.381016
v 0.189842 0.332053 -0.001331
v -0.189842 0.332053 -0.001331
vt 0.958988 0.696759
vt 0.969555 0.696759
vt 0.969555 0.709235
vt 0.958988 0.709235
vt 0.923215 0.749556
vt 0.912648 0.749556
vt 0.905176 0.741938
vt 0.905176 0.731164
vt 0.912648 0.723545
vt 0.923215 0.723545
vt 0.930688 0.731164
vt 0.930688 0.741938
vt 0.905176 0.697346
vt 0.912648 0.696759
vt 0.912648 0.709235
vt 0.905176 0.709822
vt 0.923215 0.696759
vt 0.923215 0.709235
vt 0.930688 0.697346
vt 0.930688 0.709822
vt 0.894019 0.759323
vt 0.904587 0.759323
vt 0.904587 0.771799
vt 0.894019 0.771799
vt 0.951515 0.697346
vt 0.951515 0.709822
vt 0.109378 0.886969
vt 0.110911 0.898287
vt 0.105605 0.898704
vt 0.101906 0.887556
vt 0.119946 0.886969
vt 0.118414 0.898287
vt 0.119078 0.915577
vt 0.111606 0.916165
vt 0.110073 0.904847
vt 0.115379 0.904430
vt 0.968687 0.750319
vt 0.961215 0.750906
vt 0.961215 0.738430
vt 0.968687 0.737843
vt 0.950648 0.750906
vt 0.950648 0.738430
vt 0.101038 0.916165
vt 0.102570 0.904847
vt 0.063039 0.886969
vt 0.064571 0.898287
vt 0.059266 0.898704
vt 0.055566 0.887556
vt 0.072074 0.898287
vt 0.073606 0.886969
vt 0.921683 0.720552
vt 0.917932 0.723369
vt 0.914180 0.720552
vt 0.881382 0.792670
vt 0.878666 0.789677
vt 0.881382 0.786684
vt 0.926988 0.720969
vt 0.923356 0.723545
vt 0.077379 0.898704
vt 0.081078 0.887556
vt 0.054978 0.949533
vt 0.053445 0.960851
vt 0.045942 0.960851
vt 0.044410 0.949533
vt 0.895552 0.783117
vt 0.903055 0.783117
vt 0.899303 0.785933
vt 0.886815 0.786684
vt 0.886815 0.792670
vt 0.884099 0.789677
vt 0.894282 0.602339
vt 0.896107 0.602339
vt 0.895934 0.607869
vt 0.894109 0.607869
vt 0.892111 0.607869
vt 0.893936 0.607869
vt 0.894109 0.613399
vt 0.892284 0.613399
vt 0.892284 0.602339
vt 0.894109 0.602339
vt 0.884099 0.792670
vt 0.881382 0.789677
vt 0.884099 0.786684
vt 0.968023 0.720552
vt 0.964271 0.723369
vt 0.960520 0.720552
vt 0.889531 0.786684
vt 0.889531 0.792670
vt 0.886815 0.789677
vt 0.955215 0.720969
vt 0.958848 0.723545
vt 0.964988 0.726696
vt 0.959683 0.727113
vt 0.961355 0.724120
vt 0.922065 0.789427
vt 0.922065 0.795412
vt 0.919349 0.792419
vt 0.963876 0.606367
vt 0.963703 0.600837
vt 0.965528 0.600837
vt 0.965701 0.606367
vt 0.963876 0.595307
vt 0.965701 0.595307
vt 0.890113 0.607869
vt 0.891938 0.607869
vt 0.892111 0.613399
vt 0.890286 0.613399
vt 0.892111 0.602339
vt 0.890286 0.602339
vt 0.911291 0.606545
vt 0.905421 0.606545
vt 0.901269 0.602312
vt 0.901269 0.596327
vt 0.905421 0.592094
vt 0.911291 0.592094
vt 0.915443 0.596327
vt 0.915443 0.602312
vt 0.896107 0.613399
vt 0.894282 0.613399
vt 0.924782 0.789427
vt 0.924782 0.795412
vt 0.922065 0.792419
vt 0.892247 0.792670
vt 0.889531 0.789677
vt 0.892247 0.786684
vt 0.912508 0.723545
vt 0.908875 0.720969
vt 0.878666 0.792670
vt 0.875950 0.789677
vt 0.878666 0.786684
vt 0.952180 0.727113
vt 0.955931 0.724296
vt 0.900088 0.920399
vt 0.900028 0.921754
vt 0.898805 0.921754
vt 0.898864 0.920399
vt 0.936032 0.919685
vt 0.936032 0.921249
vt 0.934809 0.921249
vt 0.934809 0.919685
vt 0.901311 0.919045
vt 0.901370 0.920399
vt 0.900147 0.920399
vt 0.900088 0.919045
vt 0.901311 0.921754
vt 0.900088 0.921754
vt 0.938480 0.919685
vt 0.938480 0.921249
vt 0.937256 0.921249
vt 0.937256 0.919685
vt 0.900028 0.919045
vt 0.898805 0.919045
vt 0.889551 0.921391
vt 0.889551 0.919827
vt 0.890879 0.919045
vt 0.892208 0.919827
vt 0.892208 0.921391
vt 0.890879 0.922173
vt 0.752953 0.932763
vt 0.772479 0.931228
vt 0.772479 0.943703
vt 0.769648 0.954953
vt 0.767598 0.957821
vt 0.757835 0.958589
vt 0.755785 0.956043
vt 0.752953 0.945238
vt 0.754255 0.876447
vt 0.754255 0.888922
vt 0.752953 0.889024
vt 0.752953 0.876549
vt 0.768899 0.903807
vt 0.759136 0.903040
vt 0.757086 0.900172
vt 0.773781 0.877981
vt 0.773781 0.890457
vt 0.770950 0.901261
vt 0.784034 0.975622
vt 0.782193 0.975622
vt 0.782193 0.961545
vt 0.784034 0.961545
vt 0.782193 0.978578
vt 0.784034 0.978578
vt 0.796124 0.966096
vt 0.797602 0.977612
vt 0.796297 0.977553
vt 0.794819 0.966037
vt 0.797602 0.953712
vt 0.796297 0.953653
vt 0.784034 0.958589
vt 0.782193 0.958589
vt 0.755785 0.900274
vt 0.876622 0.916945
vt 0.876682 0.915590
vt 0.877905 0.915590
vt 0.877846 0.916945
vt 0.947367 0.921443
vt 0.947367 0.919879
vt 0.948591 0.919879
vt 0.948591 0.921443
vt 0.911873 0.921042
vt 0.911814 0.919687
vt 0.913037 0.919687
vt 0.913096 0.921042
vt 0.911873 0.918333
vt 0.913096 0.918333
vt 0.933585 0.919685
vt 0.933585 0.921249
vt 0.932361 0.921249
vt 0.932361 0.919685
vt 0.876682 0.918299
vt 0.877905 0.918299
vt 0.896194 0.919045
vt 0.897522 0.919827
vt 0.897522 0.921391
vt 0.896194 0.922173
vt 0.894865 0.921391
vt 0.894865 0.919827
vt 0.782193 0.958589
vt 0.782193 0.961545
vt 0.780352 0.961545
vt 0.780352 0.958589
vt 0.696759 0.940546
vt 0.716285 0.939011
vt 0.716285 0.951486
vt 0.713454 0.962736
vt 0.711404 0.965604
vt 0.701641 0.966372
vt 0.699590 0.963826
vt 0.696759 0.953021
vt 0.797837 0.929753
vt 0.796360 0.942137
vt 0.795055 0.942078
vt 0.796533 0.929694
vt 0.777361 0.931995
vt 0.787124 0.931228
vt 0.789174 0.933774
vt 0.792005 0.944578
vt 0.792005 0.957054
vt 0.772479 0.958589
vt 0.772479 0.946113
vt 0.775311 0.934863
vt 0.782193 0.975622
vt 0.780352 0.975622
vt 0.780352 0.978578
vt 0.782193 0.978578
vt 0.797837 0.953653
vt 0.796533 0.953594
vt 0.799335 0.876505
vt 0.797857 0.888890
vt 0.796552 0.888831
vt 0.798030 0.876447
vt 0.799335 0.900405
vt 0.798030 0.900347
vt 0.898805 0.920399
vt 0.898746 0.921754
vt 0.897522 0.921754
vt 0.897581 0.920399
vt 0.937256 0.919685
vt 0.937256 0.921249
vt 0.936032 0.921249
vt 0.936032 0.919685
vt 0.902594 0.919045
vt 0.902653 0.920399
vt 0.901429 0.920399
vt 0.901370 0.919045
vt 0.902594 0.921754
vt 0.901370 0.921754
vt 0.939703 0.919685
vt 0.939703 0.921249
vt 0.938480 0.921249
vt 0.938480 0.919685
vt 0.898746 0.919045
vt 0.897522 0.919045
vt 0.893536 0.919045
vt 0.894865 0.919827
vt 0.894865 0.921391
vt 0.893536 0.922173
vt 0.892208 0.921391
vt 0.892208 0.919827
vt 0.969555 0.718879
vt 0.971228 0.696759
vt 0.974287 0.696759
vt 0.972614 0.718879
vt 0.905176 0.759323
vt 0.874493 0.759323
vt 0.874493 0.728041
vt 0.905176 0.728041
vt 0.930476 0.749796
vt 0.930476 0.771981
vt 0.927426 0.771741
vt 0.927426 0.749556
vt 0.971228 0.740999
vt 0.974287 0.740999
vt 0.905176 0.696759
vt 0.905176 0.728041
vt 0.874493 0.728041
vt 0.874493 0.696759
vt 0.969740 0.773726
vt 0.969740 0.751540
vt 0.972790 0.751780
vt 0.972790 0.773965
vt 0.794819 0.953715
vt 0.793309 0.966095
vt 0.792005 0.966033
vt 0.793515 0.953653
vt 0.772913 0.929659
vt 0.752953 0.931228
vt 0.752953 0.918752
vt 0.755847 0.907498
vt 0.757509 0.904660
vt 0.768357 0.903807
vt 0.770019 0.906384
vt 0.772913 0.917183
vt 0.748401 0.955376
vt 0.747460 0.942937
vt 0.748751 0.942733
vt 0.749691 0.955172
vt 0.729513 0.931943
vt 0.730975 0.929243
vt 0.741855 0.929243
vt 0.743726 0.931943
vt 0.728382 0.955376
vt 0.727441 0.942937
vt 0.778512 0.960985
vt 0.778512 0.958589
vt 0.780352 0.958589
vt 0.780352 0.960985
vt 0.794819 0.977628
vt 0.793515 0.977566
vt 0.780352 0.976626
vt 0.778512 0.976626
vt 0.778512 0.979022
vt 0.780352 0.979022
vt 0.745016 0.931738
vt 0.911732 0.759935
vt 0.911732 0.746870
vt 0.913188 0.746870
vt 0.913188 0.759935
vt 0.942406 0.753577
vt 0.942818 0.752953
vt 0.951468 0.752865
vt 0.942818 0.741111
vt 0.942406 0.740551
vt 0.951468 0.739839
vt 0.914644 0.759935
vt 0.913188 0.759935
vt 0.913188 0.746870
vt 0.914644 0.746870
vt 0.941165 0.746026
vt 0.941165 0.733000
vt 0.942194 0.732919
vt 0.942194 0.745945
vt 0.941159 0.750364
vt 0.940747 0.749740
vt 0.941159 0.737338
vt 0.932097 0.749652
vt 0.932509 0.749092
vt 0.932097 0.736626
vt 0.932509 0.737250
vt 0.940747 0.737898
vt 0.939717 0.749820
vt 0.939717 0.737978
vt 0.886212 0.747622
vt 0.887668 0.747622
vt 0.887668 0.759499
vt 0.886212 0.759499
vt 0.951056 0.740463
vt 0.951056 0.752305
vt 0.914644 0.758748
vt 0.914644 0.746870
vt 0.916101 0.746870
vt 0.916101 0.758748
vt 0.942194 0.746026
vt 0.942194 0.757868
vt 0.941165 0.757949
vt 0.941165 0.746107
vt 0.931068 0.749733
vt 0.931068 0.736706
vt 0.913083 0.902242
vt 0.913024 0.903596
vt 0.911801 0.903596
vt 0.911860 0.902242
vt 0.933585 0.921249
vt 0.933585 0.919685
vt 0.934809 0.919685
vt 0.934809 0.921249
vt 0.876682 0.921009
vt 0.876622 0.919654
vt 0.877846 0.919654
vt 0.877905 0.921009
vt 0.876682 0.918299
vt 0.877905 0.918299
vt 0.947367 0.919879
vt 0.947367 0.921443
vt 0.946144 0.921443
vt 0.946144 0.919879
vt 0.913024 0.900887
vt 0.911801 0.900887
vt 0.910485 0.918333
vt 0.911814 0.919115
vt 0.911814 0.920679
vt 0.910485 0.921461
vt 0.909157 0.920679
vt 0.909157 0.919115
vt 0.578421 0.713142
vt 0.586658 0.712495
vt 0.586658 0.724337
vt 0.578421 0.724984
vt 0.918913 0.593513
vt 0.918913 0.581635
vt 0.923043 0.581635
vt 0.923043 0.593513
vt 0.918781 0.562104
vt 0.918781 0.573946
vt 0.915861 0.574176
vt 0.915861 0.562334
vt 0.903288 0.562104
vt 0.903288 0.573982
vt 0.899158 0.573982
vt 0.899158 0.562104
vt 0.912941 0.574176
vt 0.912941 0.562334
vt 0.915861 0.562104
vt 0.915861 0.573946
vn 0.9239 0.3827 0.0000
vn 0.3827 0.9239 0.0000
vn -0.0000 0.0000 -1.0000
vn -0.9239 0.3827 0.0000
vn -0.9239 -0.3827 0.0000
vn -0.3827 -0.9239 0.0000
vn 0.3827 -0.9239 0.0000
vn 0.9239 -0.3827 0.0000
vn 0.8667 0.3590 0.3463
vn 0.8667 -0.3590 0.3463
vn 0.3590 0.8667 0.3463
vn -0.3590 0.8667 0.3463
vn -0.3827 0.9239 0.0000
vn -0.8667 0.3590 0.3463
vn -0.8667 -0.3590 0.3463
vn -0.3590 -0.8667 0.3463
vn -0.3135 -0.7569 0.5735
vn -0.5343 -0.5343 0.6549
vn -0.7569 -0.3135 0.5735
vn 0.0000 -0.7557 0.6549
vn 0.3135 -0.7569 0.5735
vn 0.3590 -0.8667 0.3463
vn 0.7569 -0.3135 0.5735
vn 0.5343 -0.5343 0.6549
vn 0.7557 0.0000 0.6549
vn 1.0000 0.0000 0.0000
vn 0.7071 -0.7071 0.0000
vn 0.7071 0.7071 0.0000
vn 0.0000 1.0000 0.0000
vn 0.5343 0.5343 0.6549
vn 0.3135 0.7569 0.5735
vn -0.0000 0.7557 0.6549
vn 0.7569 0.3135 0.5735
vn -0.3135 0.7569 0.5735
vn -0.5343 0.5343 0.6549
vn -0.7071 0.7071 0.0000
vn -1.0000 0.0000 0.0000
vn -0.7071 -0.7071 0.0000
vn 0.0000 -1.0000 0.0000
vn 0.0000 0.0000 1.0000
vn -0.7557 -0.0000 0.6549
vn -0.7569 0.3135 0.5735
vn -0.9659 0.2588 0.0000
vn 0.2588 -0.9659 0.0000
vn 0.9659 -0.2588 0.0000
vn -0.2588 0.9659 0.0000
vn 0.5969 0.0000 0.8023
vn 0.9100 0.0000 0.4147
vn -0.5969 0.0000 0.8023
vn -0.9100 0.0000 0.4147
vn -0.2588 -0.9659 0.0000
vn 0.9659 0.2588 0.0000
vn 0.2588 0.9659 0.0000
vn -0.9659 -0.2588 0.0000
vn 0.7498 0.0000 0.6617
vn 0.9356 0.0000 0.3530
vn -0.7498 0.0000 0.6617
vn -0.9356 0.0000 0.3530
usemtl FrontColor
s 1
f 1/1/1 2/2/2 3/3/2 4/4/1
f 5/5/3 6/6/3 7/7/3 2/8/3 1/9/3 8/10/3 9/11/3 10/12/3
f 6/13/4 5/14/5 11/15/5 12/16/4
f 5/14/5 10/17/6 13/18/6 11/15/5
f 10/17/6 9/19/7 14/20/7 13/18/6
f 9/21/7 8/22/8 15/23/8 14/24/7
f 8/25/8 1/1/1 4/4/1 15/26/8
f 4/27/9 16/28/9 17/29/10 15/30/10
f 4/27/9 3/31/11 18/32/11 16/28/9
f 3/33/11 19/34/12 20/35/12 18/36/11
f 2/37/2 7/38/13 19/39/13 3/40/2
f 7/38/13 6/41/4 12/42/4 19/39/13
f 12/43/14 21/44/14 20/35/12 19/34/12
f 11/45/15 22/46/15 21/47/14 12/48/14
f 23/49/16 22/46/15 11/45/15 13/50/16
f 23/51/17 24/52/18 22/53/19
f 24/54/18 23/55/17 25/56/20
f 23/51/17 26/57/21 25/58/20
f 26/59/22 23/49/16 13/50/16 14/60/22
f 15/61/10 17/62/10 26/63/22 14/64/22
f 26/65/21 17/66/23 27/67/24
f 28/68/25 27/69/24 17/70/23
f 28/71/26 29/72/26 30/73/27 27/74/27
f 31/75/28 32/76/28 29/77/26 28/78/26
f 31/75/28 33/79/29 34/80/29 32/76/28
f 31/81/30 18/82/31 33/83/32
f 18/84/31 31/85/30 16/86/33
f 31/87/30 28/88/25 16/89/33
f 17/90/23 16/86/33 28/91/25
f 18/92/31 20/93/34 33/94/32
f 35/95/35 33/96/32 20/97/34
f 33/98/29 35/99/36 36/100/36 34/101/29
f 37/102/37 38/103/37 36/100/36 35/99/36
f 24/104/38 39/105/38 38/106/37 37/107/37
f 40/108/39 39/105/38 24/104/38 25/109/39
f 36/110/40 38/111/40 39/112/40 40/113/40 30/114/40 29/115/40 32/116/40 34/117/40
f 30/73/27 40/118/39 25/119/39 27/74/27
f 27/120/24 25/121/20 26/122/21
f 37/123/41 22/124/19 24/125/18
f 22/53/19 37/126/41 21/127/42
f 35/128/35 21/129/42 37/130/41
f 21/131/42 35/132/35 20/93/34
f 41/133/43 42/134/43 43/135/43 44/136/43
f 42/137/38 45/138/38 46/139/38 43/140/38
f 45/141/44 47/142/44 48/143/44 46/144/44
f 47/142/45 49/145/45 50/146/45 48/143/45
f 49/147/28 51/148/28 52/149/28 50/150/28
f 51/151/46 41/133/46 44/136/46 52/152/46
f 46/153/40 48/154/40 50/155/40 52/156/40 44/157/40 43/158/40
f 53/159/29 54/160/29 55/161/29 56/162/29 57/163/29 58/164/29 59/165/29 60/166/29
f 61/167/37 62/168/37 55/169/37 54/170/37
f 63/171/39 64/172/39 65/173/39 62/168/39 61/167/39 66/174/39 67/175/39 68/176/39
f 63/177/40 58/178/40 57/179/40 64/180/40
f 59/181/47 58/178/47 63/177/47 68/182/47
f 60/183/48 59/184/48 68/185/48 67/186/48
f 53/187/26 60/183/26 67/186/26 66/188/26
f 65/189/49 64/180/49 57/179/49 56/190/49
f 62/168/50 65/173/50 56/191/50 55/169/50
f 69/192/45 70/193/45 71/194/45 72/195/45
f 70/196/28 73/197/28 74/198/28 71/199/28
f 73/200/46 75/201/46 76/202/46 74/203/46
f 75/201/43 77/204/43 78/205/43 76/202/43
f 77/206/38 79/207/38 80/208/38 78/209/38
f 79/210/44 69/192/44 72/195/44 80/211/44
f 74/212/40 76/213/40 78/214/40 80/215/40 72/216/40 71/217/40
f 81/218/47 82/219/47 83/220/47 84/221/47
f 85/222/29 86/223/29 87/224/29 88/225/29 89/226/29 82/227/29 81/228/29 90/229/29
f 91/230/37 92/231/37 87/232/37 86/233/37
f 83/234/39 93/235/39 94/236/39 92/237/39 91/238/39 95/239/39 96/240/39 84/241/39
f 83/220/40 82/219/40 89/242/40 93/243/40
f 94/244/49 93/243/49 89/242/49 88/245/49
f 92/231/50 94/246/50 88/247/50 87/232/50
f 85/248/26 90/249/26 96/250/26 95/251/26
f 90/249/48 81/252/48 84/253/48 96/250/48
f 97/254/51 98/255/51 99/256/51 100/257/51
f 98/258/27 101/259/27 102/260/27 99/261/27
f 101/262/52 103/263/52 104/264/52 102/265/52
f 103/263/53 105/266/53 106/267/53 104/264/53
f 105/268/36 107/269/36 108/270/36 106/271/36
f 107/272/54 97/254/54 100/257/54 108/273/54
f 102/274/40 104/275/40 106/276/40 108/277/40 100/278/40 99/279/40
f 109/280/39 110/281/39 111/282/39 112/283/39
f 113/284/3 114/285/3 110/286/3 109/287/3
f 114/288/29 113/289/29 115/290/29 116/291/29
f 113/292/37 109/280/37 112/283/37 115/293/37
f 116/294/40 115/295/40 112/296/40 111/297/40
f 110/298/26 114/299/26 116/300/26 111/301/26
f 117/302/26 118/303/26 119/304/26 120/305/26
f 117/306/29 121/307/29 122/308/29 123/309/29 124/310/29 125/311/29 126/312/29 118/313/29
f 127/314/37 128/315/37 122/316/37 121/317/37
f 129/318/39 130/319/39 131/320/39 132/321/39 128/315/39 127/314/39 120/322/39 119/323/39
f 130/324/55 129/325/55 126/326/55 125/327/55
f 118/303/56 126/328/56 129/329/56 119/304/56
f 130/324/40 125/327/40 124/330/40 131/331/40
f 132/332/57 131/331/57 124/330/57 123/333/57
f 128/315/58 132/321/58 123/334/58 122/316/58
f 133/335/40 134/336/40 135/337/40 136/338/40
f 133/339/29 137/340/29 134/341/29
f 137/340/29 133/339/29 138/342/29
f 139/343/29 138/342/29 133/339/29
f 138/342/29 139/343/29 140/344/29
f 139/345/3 141/346/3 142/347/3 140/348/3
f 139/349/26 133/350/26 136/351/26 141/352/26
f 136/353/39 143/354/39 141/355/39
f 143/354/39 136/353/39 135/356/39
f 143/354/39 135/356/39 144/357/39
f 142/358/39 144/357/39 135/356/39
f 142/358/39 145/359/39 144/357/39
f 142/358/39 146/360/39 145/359/39
f 141/355/39 146/360/39 142/358/39
f 146/360/39 141/355/39 143/354/39
f 137/361/37 138/362/37 146/360/37 143/354/37
f 146/363/40 138/364/40 147/365/40 145/366/40
f 138/342/29 140/344/29 147/367/29
f 147/367/29 140/344/29 148/368/29
f 134/341/29 148/368/29 140/344/29
f 134/341/29 137/340/29 148/368/29
f 148/369/3 137/370/3 143/371/3 144/372/3
f 147/373/26 148/374/26 144/375/26 145/376/26
f 134/377/37 140/378/37 142/358/37 135/356/37
f 149/379/53 150/380/53 151/381/53 152/382/53
f 150/383/36 153/384/36 154/385/36 151/386/36
f 153/387/54 155/388/54 156/389/54 154/390/54
f 155/388/51 157/391/51 158/392/51 156/389/51
f 157/393/27 159/394/27 160/395/27 158/396/27
f 159/397/52 149/379/52 152/382/52 160/398/52
f 154/399/40 156/400/40 158/401/40 160/402/40 152/403/40 151/404/40
f 161/405/29 162/406/29 163/407/29 164/408/29
f 162/409/3 161/410/3 165/411/3 166/412/3
f 161/413/26 164/414/26 167/415/26 165/416/26
f 164/417/40 163/418/40 168/419/40 167/420/40
f 163/421/37 162/422/37 166/423/37 168/424/37
