# Blender v2.77 (sub 0) OBJ File: 'slim controller.blend'
# www.blender.org
mtllib mjm_slim_controller.mtl
o mjm_slim_controller
v -0.230000 0.480000 -0.590000
v -0.230000 -0.480000 -0.590000
v -0.230000 -0.480000 -0.500000
v -0.230000 0.480000 -0.500000
v 0.230000 0.480000 -0.590000
v 0.230000 -0.480000 -0.590000
v 0.230000 0.480000 -0.500000
v 0.230000 -0.480000 -0.500000
v 0.250000 -0.500000 -0.500000
v 0.250000 0.500000 -0.500000
v 0.230000 0.500000 -0.500000
v 0.230000 -0.500000 -0.500000
v 0.250000 -0.500000 -0.430000
v 0.250000 0.500000 -0.430000
v -0.250000 -0.500000 -0.430000
v -0.250000 -0.500000 -0.500000
v -0.230000 -0.500000 -0.500000
v -0.250000 0.500000 -0.430000
v -0.250000 0.500000 -0.500000
v -0.230000 0.500000 -0.500000
v -0.230000 0.480000 -0.430000
v -0.230000 -0.480000 -0.430000
v 0.230000 -0.480000 -0.430000
v 0.230000 0.480000 -0.430000
v -0.230000 0.480000 -0.450000
v 0.230000 0.480000 -0.450000
v -0.230000 -0.480000 -0.450000
v 0.230000 -0.480000 -0.450000
vt 0.4205 0.1281
vt 0.4130 0.0425
vt 0.4212 0.0426
vt 0.4260 0.1382
vt 0.3877 0.0613
vt 0.4254 0.0610
vt 0.4222 0.0640
vt 0.4316 0.1144
vt 0.4216 0.1143
vt 0.0565 0.1007
vt 0.1190 0.0700
vt 0.1191 0.1006
vt 0.4212 0.0426
vt 0.4286 0.1281
vt 0.4205 0.1281
vt 0.1264 0.0653
vt 0.0495 0.0651
vt 0.0479 0.0634
vt 0.0159 0.0971
vt 0.1541 0.1067
vt 0.0159 0.1067
vt 0.1295 0.0841
vt 0.1279 0.0841
vt 0.1279 0.0784
vt 0.1540 0.0708
vt 0.0162 0.0612
vt 0.1540 0.0612
vt 0.1046 0.0794
vt 0.1062 0.0794
vt 0.1061 0.0851
vt 0.0478 0.1026
vt 0.0479 0.0651
vt 0.0494 0.1027
vt 0.1262 0.1029
vt 0.1278 0.1045
vt 0.1280 0.0653
vt 0.1278 0.1029
vt 0.4216 0.1143
vt 0.4122 0.0639
vt 0.4222 0.0640
vt 0.0537 0.0653
vt 0.0552 0.0667
vt 0.0536 0.1018
vt 0.1239 0.0669
vt 0.1253 0.0654
vt 0.1252 0.1020
vt 0.1238 0.1005
vt 0.0551 0.1003
vt 0.1185 0.0886
vt 0.0435 0.0917
vt 0.0436 0.0884
vt 0.0229 0.1006
vt 0.1502 0.0978
vt 0.1502 0.1005
vt 0.1185 0.0919
vt 0.0435 0.0950
vt 0.0435 0.0917
vt 0.0229 0.0979
vt 0.1502 0.0951
vt 0.1502 0.0978
vt 0.8826 0.0478
vt 0.9519 0.1895
vt 0.8826 0.1895
vt 0.4123 0.1280
vt 0.3883 0.1384
vt 0.4323 0.0641
vt 0.0565 0.0701
vt 0.4293 0.0427
vt 0.1280 0.0637
vt 0.1541 0.0971
vt 0.0662 0.0735
vt 0.1062 0.0736
vt 0.1046 0.0794
vt 0.0677 0.0792
vt 0.1062 0.0794
vt 0.0162 0.0708
vt 0.0661 0.0850
vt 0.0677 0.0792
vt 0.1279 0.0898
vt 0.1279 0.0841
vt 0.1295 0.0841
vt 0.0478 0.1043
vt 0.4115 0.1142
vt 0.1185 0.0919
vt 0.0229 0.0979
vt 0.1185 0.0952
vt 0.0229 0.0952
vt 0.9519 0.0478
vn -1.0000 0.0000 0.0000
vn 0.0000 0.0000 -1.0000
vn 0.0000 1.0000 0.0000
vn 0.0000 -0.0000 1.0000
vn 1.0000 -0.0000 0.0000
vn 0.0000 -1.0000 -0.0000
usemtl Material
s 1
f 2/1/1 4/2/1 1/3/1
f 1/4/2 6/5/2 2/6/2
f 1/7/3 7/8/3 5/9/3
f 7/10/4 3/11/4 8/12/4
f 5/13/5 8/14/5 6/15/5
f 8/16/2 7/17/2 10/18/2
f 9/19/5 14/20/5 13/21/5
f 12/22/6 9/23/6 13/24/6
f 19/25/1 15/26/1 18/27/1
f 20/28/3 19/29/3 18/30/3
f 7/17/2 20/31/2 11/32/2
f 4/33/2 3/34/2 16/35/2
f 3/34/2 12/36/2 17/37/2
f 6/38/6 3/39/6 2/40/6
f 18/41/4 21/42/4 14/43/4
f 21/42/4 18/41/4 22/44/4
f 15/45/4 22/44/4 18/41/4
f 22/44/4 15/45/4 13/46/4
f 22/44/4 13/46/4 23/47/4
f 23/47/4 13/46/4 24/48/4
f 14/43/4 24/48/4 13/46/4
f 14/43/4 21/42/4 24/48/4
f 21/49/6 26/50/6 24/51/6
f 22/52/5 25/53/5 21/54/5
f 23/55/3 27/56/3 22/57/3
f 24/58/1 28/59/1 23/60/1
f 26/61/4 27/62/4 28/63/4
f 2/1/1 3/64/1 4/2/1
f 1/4/2 5/65/2 6/5/2
f 1/7/3 4/66/3 7/8/3
f 7/10/4 4/67/4 3/11/4
f 5/13/5 7/68/5 8/14/5
f 10/18/2 9/69/2 8/16/2
f 9/69/2 12/36/2 8/16/2
f 7/17/2 11/32/2 10/18/2
f 9/19/5 10/70/5 14/20/5
f 13/71/6 15/72/6 17/73/6
f 17/73/6 12/74/6 13/71/6
f 15/72/6 16/75/6 17/73/6
f 19/25/1 16/76/1 15/26/1
f 18/30/3 14/77/3 11/78/3
f 11/78/3 20/28/3 18/30/3
f 14/79/3 10/80/3 11/81/3
f 7/17/2 4/33/2 20/31/2
f 16/35/2 19/82/2 4/33/2
f 19/82/2 20/31/2 4/33/2
f 3/34/2 17/37/2 16/35/2
f 3/34/2 8/16/2 12/36/2
f 6/38/6 8/83/6 3/39/6
f 21/49/6 25/84/6 26/50/6
f 22/52/5 27/85/5 25/53/5
f 23/55/3 28/86/3 27/56/3
f 24/58/1 26/87/1 28/59/1
f 26/61/4 25/88/4 27/62/4
