# Blender v2.77 (sub 0) OBJ File: 'slim switch off.blend'
# www.blender.org
mtllib mjm_slim_switch_off.mtl
o Mesh1_Group2_Group1_Model
v -0.230000 -0.200000 -0.480000
v -0.230000 0.440000 -0.480000
v 0.230000 0.440000 -0.480000
v 0.230000 -0.200000 -0.480000
v -0.230000 -0.100000 -0.430000
v -0.230000 0.340000 -0.430000
v 0.230000 -0.100000 -0.430000
v 0.230000 0.340000 -0.430000
v 0.230000 -0.480000 -0.500000
v 0.230000 0.480000 -0.500000
v -0.230000 0.480000 -0.500000
v -0.230000 -0.480000 -0.500000
v 0.250000 -0.500000 -0.500000
v 0.250000 0.500000 -0.500000
v 0.230000 0.500000 -0.500000
v 0.230000 -0.500000 -0.500000
v 0.250000 -0.500000 -0.430000
v 0.250000 0.500000 -0.430000
v -0.250000 -0.500000 -0.430000
v -0.250000 -0.500000 -0.500000
v -0.230000 -0.500000 -0.500000
v -0.250000 0.500000 -0.430000
v -0.250000 0.500000 -0.500000
v -0.230000 0.500000 -0.500000
v -0.230000 -0.480000 -0.590000
v 0.230000 -0.480000 -0.590000
v -0.230000 0.480000 -0.590000
v 0.230000 0.480000 -0.590000
v -0.230000 0.480000 -0.430000
v -0.230000 -0.480000 -0.430000
v 0.230000 -0.480000 -0.430000
v 0.230000 0.480000 -0.430000
v -0.230000 0.480000 -0.480000
v -0.030000 0.480000 -0.480000
v 0.030000 0.480000 -0.480000
v 0.230000 0.480000 -0.480000
v -0.230000 -0.480000 -0.480000
v 0.230000 -0.480000 -0.480000
v 0.030000 -0.480000 -0.480000
v -0.030000 -0.480000 -0.480000
v 0.030000 0.460000 -0.480000
v 0.030000 -0.460000 -0.480000
v -0.030000 0.460000 -0.480000
v -0.030000 -0.460000 -0.480000
vt 0.4973 0.1254
vt 0.4920 0.1254
vt 0.4920 0.1097
vt 0.4973 0.1097
vt 0.4924 0.1246
vt 0.4924 0.1104
vt 0.4969 0.1127
vt 0.4969 0.1224
vt 0.4919 0.1253
vt 0.4919 0.1096
vt 0.4974 0.1096
vt 0.4974 0.1253
vt 0.4925 0.1248
vt 0.4925 0.1104
vt 0.4970 0.1126
vt 0.4970 0.1226
vt 0.4973 0.1098
vt 0.4973 0.1255
vt 0.4919 0.1255
vt 0.4919 0.1098
vt 0.3641 0.1528
vt 0.3641 0.0101
vt 0.4577 0.0101
vt 0.4577 0.1528
vt 0.1180 0.8637
vt 0.1487 0.9265
vt 0.1180 0.9265
vt 0.0525 0.9279
vt 0.0525 0.8650
vt 0.0538 0.8637
vt 0.1347 0.9920
vt 0.1393 0.9265
vt 0.1393 0.9920
vt 0.0324 0.9305
vt 0.0324 0.9292
vt 0.0371 0.9292
vt 0.1300 0.9920
vt 0.1347 0.9265
vt 0.1347 0.9920
vt 0.0371 0.9305
vt 0.0371 0.9292
vt 0.0418 0.9292
vt 0.0217 0.8637
vt 0.0525 0.8637
vt 0.0217 0.8650
vt 0.0217 0.9279
vt 0.0204 0.9292
vt 0.0525 0.9292
vt 0.0217 0.9292
vt 0.8635 0.5866
vt 0.8695 0.6167
vt 0.8635 0.6167
vt 0.9243 0.5211
vt 0.9551 0.5840
vt 0.9243 0.5840
vt 0.9611 0.5840
vt 0.9671 0.6468
vt 0.9611 0.6468
vt 0.8575 0.5866
vt 0.8635 0.6167
vt 0.8575 0.6167
vt 0.9611 0.6468
vt 0.9551 0.5840
vt 0.9611 0.5840
vt 0.0872 0.8637
vt 0.0859 0.8650
vt 0.0538 0.8637
vt 0.0859 0.9279
vt 0.0872 0.9292
vt 0.0538 0.9292
vt 0.0552 0.9279
vt 0.0552 0.8650
vt 0.2035 0.9314
vt 0.2002 0.9183
vt 0.2002 0.9143
vt 0.3010 0.9615
vt 0.2977 0.8986
vt 0.3010 0.8986
vt 0.2002 0.9314
vt 0.1968 0.9183
vt 0.1968 0.9143
vt 0.2977 0.9615
vt 0.2943 0.8986
vt 0.2977 0.8986
vt 0.4137 0.9571
vt 0.4137 0.9584
vt 0.4004 0.9584
vt 0.4177 0.8969
vt 0.4137 0.8955
vt 0.4177 0.8955
vt 0.4311 0.8955
vt 0.4177 0.9584
vt 0.9214 0.2164
vt 0.9227 0.2766
vt 0.9214 0.2766
vt 0.1487 0.8637
vt 0.0538 0.9292
vt 0.1347 0.9265
vt 0.0371 0.9619
vt 0.0324 0.9606
vt 0.0324 0.9619
vt 0.1300 0.9265
vt 0.0418 0.9619
vt 0.0371 0.9606
vt 0.0371 0.9619
vt 0.0204 0.8637
vt 0.8695 0.5866
vt 0.9551 0.5211
vt 0.9671 0.5840
vt 0.8635 0.5866
vt 0.9551 0.6468
vt 0.2002 0.9013
vt 0.2035 0.9013
vt 0.2002 0.9314
vt 0.2977 0.9615
vt 0.1968 0.9013
vt 0.2002 0.9013
vt 0.1968 0.9314
vt 0.2943 0.9615
vt 0.4004 0.8955
vt 0.4137 0.8969
vt 0.4311 0.9584
vt 0.4177 0.9571
vt 0.9227 0.2164
vn 0.0000 0.0000 -1.0000
vn -1.0000 0.0000 0.0000
vn 0.0000 -0.4472 0.8944
vn 1.0000 0.0000 0.0000
vn 0.0000 0.4472 0.8944
vn 0.0000 -0.0000 1.0000
vn 0.7071 0.0000 -0.7071
vn 0.0000 -1.0000 -0.0000
vn -0.7071 0.0000 -0.7071
vn 0.0000 1.0000 -0.0000
usemtl Material
s 1
f 1/1/1 2/2/1 3/3/1 4/4/1
f 2/5/2 1/6/2 5/7/2 6/8/2
f 1/9/3 4/10/3 7/11/3 5/12/3
f 4/13/4 3/14/4 8/15/4 7/16/4
f 3/17/5 2/18/5 6/19/5 8/20/5
f 6/21/6 5/22/6 7/23/6 8/24/6
f 10/25/6 12/26/6 9/27/6
f 9/28/1 10/29/1 14/30/7
f 13/31/7 18/32/4 17/33/4
f 16/34/8 13/35/8 17/36/8
f 23/37/9 19/38/2 22/39/2
f 24/40/10 23/41/10 22/42/10
f 10/29/1 24/43/1 15/44/1
f 11/45/1 12/46/1 20/47/9
f 12/46/1 16/48/1 21/49/1
f 26/50/8 12/51/8 25/52/8
f 27/53/1 26/54/1 25/55/1
f 25/56/2 11/57/2 27/58/2
f 27/59/10 10/60/10 28/61/10
f 28/62/4 9/63/4 26/64/4
f 22/65/6 29/66/6 18/67/6
f 29/66/6 22/65/6 30/68/6
f 19/69/6 30/68/6 22/65/6
f 30/68/6 19/69/6 17/70/6
f 30/68/6 17/70/6 31/71/6
f 31/71/6 17/70/6 32/72/6
f 18/67/6 32/72/6 17/70/6
f 18/67/6 29/66/6 32/72/6
f 29/73/8 34/74/8 35/75/8
f 30/76/4 33/77/4 29/78/4
f 31/79/10 39/80/10 40/81/10
f 32/82/2 38/83/2 31/84/2
f 42/85/6 39/86/6 38/87/6
f 43/88/6 35/89/6 34/90/6
f 43/88/6 34/90/6 33/91/6
f 42/85/6 40/92/6 39/86/6
f 41/93/6 44/94/6 42/95/6
f 10/25/6 11/96/6 12/26/6
f 14/30/7 13/97/7 9/28/1
f 13/97/7 16/48/1 9/28/1
f 10/29/1 15/44/1 14/30/7
f 13/31/7 14/98/7 18/32/4
f 17/36/8 19/99/8 21/100/8
f 21/100/8 16/34/8 17/36/8
f 19/99/8 20/101/8 21/100/8
f 23/37/9 20/102/9 19/38/2
f 22/42/10 18/103/10 15/104/10
f 15/104/10 24/40/10 22/42/10
f 18/103/10 14/105/10 15/104/10
f 10/29/1 11/45/1 24/43/1
f 20/47/9 23/106/9 11/45/1
f 23/106/9 24/43/1 11/45/1
f 12/46/1 21/49/1 20/47/9
f 12/46/1 9/28/1 16/48/1
f 26/50/8 9/107/8 12/51/8
f 27/53/1 28/108/1 26/54/1
f 25/56/2 12/109/2 11/57/2
f 27/59/10 11/110/10 10/60/10
f 28/62/4 10/111/4 9/63/4
f 36/112/8 32/113/8 35/75/8
f 29/73/8 33/114/8 34/74/8
f 35/75/8 32/113/8 29/73/8
f 30/76/4 37/115/4 33/77/4
f 37/116/10 30/117/10 40/81/10
f 31/79/10 38/118/10 39/80/10
f 40/81/10 30/117/10 31/79/10
f 32/82/2 36/119/2 38/83/2
f 38/87/6 36/120/6 41/121/6
f 41/121/6 42/85/6 38/87/6
f 36/120/6 35/89/6 41/121/6
f 43/88/6 41/121/6 35/89/6
f 33/91/6 37/122/6 44/123/6
f 44/123/6 43/88/6 33/91/6
f 37/122/6 40/92/6 44/123/6
f 42/85/6 44/123/6 40/92/6
f 41/93/6 43/124/6 44/94/6
