# Blender v2.79 (sub 0) OBJ File: ''
# www.blender.org
mtllib FatBearing.mtl
o Mesh2_Group3_Group1_Model
v 0.119313 0.445179 -0.250000
v 0.325970 0.325971 -0.250000
v 0.325970 0.325971 -0.420000
v 0.119313 0.445179 -0.420000
v 0.066815 0.249300 -0.000000
v 0.182543 0.182544 -0.000000
v -0.066815 0.249300 -0.000000
v -0.182543 0.182544 -0.000000
v -0.249300 0.066816 -0.000000
v -0.249300 -0.066816 0.000000
v -0.182543 -0.182543 0.000000
v -0.066816 -0.249300 0.000000
v 0.066816 -0.249300 0.000000
v 0.182543 -0.182543 0.000000
v 0.249300 -0.066816 0.000000
v 0.249300 0.066816 -0.000000
v -0.119313 0.445178 -0.250000
v -0.119313 0.445178 -0.420000
v 0.445179 0.119315 -0.420000
v 0.445179 -0.119314 -0.420000
v 0.325970 -0.325970 -0.420000
v 0.119314 -0.445178 -0.420000
v -0.119314 -0.445179 -0.420000
v -0.325970 -0.325970 -0.420000
v -0.445179 -0.119314 -0.420000
v -0.445179 0.119315 -0.420000
v -0.325970 0.325971 -0.420000
v 0.445179 0.119315 -0.250000
v 0.445179 -0.119314 -0.250000
v 0.325970 -0.325970 -0.250000
v 0.119314 -0.445178 -0.250000
v -0.119314 -0.445179 -0.250000
v -0.325970 -0.325970 -0.250000
v -0.445179 -0.119314 -0.250000
v -0.445179 0.119315 -0.250000
v -0.325970 0.325971 -0.250000
v 0.400661 0.107384 -0.300000
v 0.400661 -0.107383 -0.300000
v 0.400661 -0.107383 -0.700000
v 0.400661 0.107384 -0.700000
v 0.293373 0.293374 -0.300000
v 0.107382 0.400661 -0.300000
v -0.107382 0.400660 -0.300000
v -0.293373 0.293374 -0.300000
v -0.400661 0.107384 -0.300000
v -0.400661 -0.107383 -0.300000
v -0.293373 -0.293373 -0.300000
v -0.107383 -0.400661 -0.300000
v 0.107383 -0.400660 -0.300000
v 0.293373 -0.293373 -0.300000
v 0.293373 0.293374 -0.700000
v 0.107382 0.400661 -0.700000
v -0.293373 0.293374 -0.700000
v -0.107382 0.400661 -0.700000
v 0.293373 -0.293373 -0.700000
v 0.107383 -0.400660 -0.700000
v -0.107383 -0.400660 -0.700000
v -0.293373 -0.293373 -0.700000
v -0.400661 -0.107383 -0.700000
v -0.400661 0.107384 -0.700000
v -0.119313 0.445180 -0.750000
v -0.325970 0.325971 -0.750001
v -0.325970 0.325970 -0.580001
v -0.119313 0.445179 -0.580000
v -0.066814 0.249303 -1.000000
v -0.182542 0.182546 -1.000000
v 0.066816 0.249303 -1.000000
v 0.182544 0.182547 -1.000000
v 0.249302 0.066820 -1.000000
v 0.249302 -0.066812 -1.000000
v 0.182546 -0.182540 -1.000000
v 0.066819 -0.249297 -1.000000
v -0.066813 -0.249297 -1.000000
v -0.182541 -0.182541 -1.000000
v -0.249298 -0.066814 -1.000000
v -0.249299 0.066818 -1.000000
v 0.119313 0.445180 -0.750000
v 0.119313 0.445179 -0.580000
v -0.445178 0.119314 -0.580002
v -0.445177 -0.119315 -0.580003
v -0.325967 -0.325971 -0.580004
v -0.119310 -0.445178 -0.580005
v 0.119318 -0.445178 -0.580005
v 0.325973 -0.325968 -0.580004
v 0.445181 -0.119312 -0.580003
v 0.445180 0.119317 -0.580002
v 0.325970 0.325973 -0.580001
v -0.445178 0.119315 -0.750002
v -0.445177 -0.119314 -0.750003
v -0.325967 -0.325970 -0.750004
v -0.119310 -0.445177 -0.750005
v 0.119318 -0.445177 -0.750005
v 0.325973 -0.325967 -0.750004
v 0.445181 -0.119311 -0.750003
v 0.445180 0.119318 -0.750002
v 0.325970 0.325974 -0.750001
vt 0.114140 0.887254
vt 0.114140 0.880708
vt 0.119267 0.880708
vt 0.119267 0.887254
vt 0.106602 0.888917
vt 0.106602 0.885251
vt 0.111884 0.952328
vt 0.113897 0.955994
vt 0.113897 0.960227
vt 0.111884 0.963893
vt 0.108394 0.966007
vt 0.104364 0.966007
vt 0.100875 0.963893
vt 0.098861 0.960227
vt 0.098861 0.955994
vt 0.100875 0.952328
vt 0.104364 0.950213
vt 0.108394 0.950213
vt 0.106602 0.893150
vt 0.114140 0.894813
vt 0.119267 0.894813
vt 0.119033 0.612824
vt 0.112801 0.609048
vt 0.109206 0.602502
vt 0.109206 0.594943
vt 0.112801 0.588397
vt 0.119033 0.584621
vt 0.126229 0.584621
vt 0.132460 0.588397
vt 0.136055 0.594943
vt 0.136055 0.602502
vt 0.132460 0.609048
vt 0.126229 0.612824
vt 0.106358 0.929562
vt 0.106358 0.936108
vt 0.101232 0.936108
vt 0.101232 0.929562
vt 0.113897 0.937771
vt 0.113897 0.934106
vt 0.113897 0.942004
vt 0.106358 0.943667
vt 0.113897 0.945670
vt 0.106358 0.950213
vt 0.060442 0.948399
vt 0.060442 0.954945
vt 0.052903 0.950402
vt 0.052903 0.946736
vt 0.065569 0.948399
vt 0.065569 0.954945
vt 0.060442 0.940840
vt 0.065569 0.940840
vt 0.052903 0.942503
vt 0.060442 0.934294
vt 0.052903 0.938838
vt 0.065569 0.934294
vt 0.106358 0.908911
vt 0.106358 0.915457
vt 0.101232 0.915457
vt 0.101232 0.908911
vt 0.113897 0.917120
vt 0.113897 0.913455
vt 0.113897 0.921353
vt 0.106358 0.923016
vt 0.113897 0.925019
vt 0.106358 0.929562
vt 0.106602 0.896816
vt 0.114140 0.901359
vt 0.119267 0.901359
vt 0.101232 0.929562
vt 0.101232 0.923016
vt 0.101232 0.950213
vt 0.101232 0.943667
vt 0.761803 0.926153
vt 0.761803 0.932956
vt 0.749741 0.932956
vt 0.749741 0.926153
vt 0.679318 0.921595
vt 0.676082 0.915703
vt 0.676082 0.908900
vt 0.679318 0.903009
vt 0.684926 0.899610
vt 0.691403 0.899610
vt 0.697011 0.903009
vt 0.700246 0.908900
vt 0.700246 0.915703
vt 0.697011 0.921595
vt 0.691403 0.924993
vt 0.684926 0.924993
vt 0.764173 0.953607
vt 0.764173 0.959498
vt 0.752111 0.959498
vt 0.752111 0.953607
vt 0.761803 0.920261
vt 0.749741 0.920261
vt 0.703482 0.921595
vt 0.700246 0.915703
vt 0.700246 0.908900
vt 0.703482 0.903009
vt 0.709090 0.899610
vt 0.715567 0.899610
vt 0.721175 0.903009
vt 0.724411 0.908900
vt 0.724411 0.915703
vt 0.721175 0.921595
vt 0.715567 0.924993
vt 0.709090 0.924993
vt 0.764173 0.940912
vt 0.764173 0.946804
vt 0.752111 0.946804
vt 0.752111 0.940912
vt 0.742446 0.877298
vt 0.742446 0.871407
vt 0.754508 0.871407
vt 0.754508 0.877298
vt 0.742446 0.884102
vt 0.754508 0.884102
vt 0.742446 0.889993
vt 0.754508 0.889993
vt 0.761803 0.912305
vt 0.761803 0.918196
vt 0.749741 0.918196
vt 0.749741 0.912305
vt 0.761803 0.905502
vt 0.749741 0.905502
vt 0.761803 0.899610
vt 0.749741 0.899610
vt 0.761803 0.938847
vt 0.749741 0.938847
vt 0.070695 0.948399
vt 0.070695 0.954945
vt 0.065569 0.954945
vt 0.065569 0.948399
vt 0.078234 0.946736
vt 0.078234 0.950402
vt 0.115910 0.963893
vt 0.113897 0.960227
vt 0.113897 0.955994
vt 0.115910 0.952328
vt 0.119400 0.950213
vt 0.123429 0.950213
vt 0.126919 0.952328
vt 0.128932 0.955994
vt 0.128932 0.960227
vt 0.126919 0.963893
vt 0.123430 0.966007
vt 0.119400 0.966007
vt 0.078234 0.942503
vt 0.070695 0.940840
vt 0.065569 0.940840
vt 0.109206 0.602502
vt 0.105611 0.609048
vt 0.099380 0.612824
vt 0.092184 0.612824
vt 0.085952 0.609048
vt 0.082357 0.602502
vt 0.082357 0.594943
vt 0.085952 0.588397
vt 0.092184 0.584621
vt 0.099380 0.584621
vt 0.105612 0.588397
vt 0.109206 0.594943
vt 0.085773 0.954945
vt 0.085773 0.948399
vt 0.090899 0.948399
vt 0.090899 0.954945
vt 0.078234 0.946736
vt 0.078234 0.942503
vt 0.085773 0.940840
vt 0.078234 0.938838
vt 0.085773 0.934294
vt 0.121436 0.943667
vt 0.121436 0.950213
vt 0.113897 0.945670
vt 0.113897 0.942004
vt 0.126562 0.943667
vt 0.126562 0.950213
vt 0.121436 0.936108
vt 0.126562 0.936108
vt 0.113897 0.937771
vt 0.121436 0.929562
vt 0.113897 0.934106
vt 0.126562 0.929562
vt 0.121436 0.923016
vt 0.126562 0.923016
vt 0.113897 0.921353
vt 0.113897 0.925019
vt 0.113897 0.917120
vt 0.121436 0.915457
vt 0.113897 0.913455
vt 0.121436 0.908911
vt 0.078234 0.938838
vt 0.070695 0.934294
vt 0.065569 0.934294
vt 0.126562 0.908911
vt 0.126562 0.915457
vt 0.090899 0.934294
vt 0.090899 0.940840
vn 0.2586 0.9660 -0.0000
vn 0.7071 0.7071 -0.0000
vn 0.2008 0.7502 0.6300
vn 0.5491 0.5491 0.6301
vn 0.2009 0.7502 0.6300
vn -0.0000 0.0000 1.0000
vn -0.2008 0.7502 0.6300
vn -0.2009 0.7502 0.6300
vn -0.2586 0.9660 -0.0000
vn 0.0000 -0.0000 -1.0000
vn 0.9660 0.2586 -0.0000
vn 0.7502 0.2008 0.6300
vn 0.7502 0.2009 0.6300
vn 0.7502 -0.2008 0.6300
vn 0.7502 -0.2009 0.6300
vn 0.5491 -0.5491 0.6301
vn 0.2009 -0.7502 0.6300
vn 0.2008 -0.7502 0.6300
vn 0.7071 -0.7071 0.0000
vn 0.2586 -0.9660 0.0000
vn -0.2586 -0.9660 0.0000
vn -0.2009 -0.7502 0.6300
vn -0.2008 -0.7502 0.6300
vn -0.5491 -0.5491 0.6301
vn -0.7071 -0.7071 0.0000
vn -0.9660 -0.2586 0.0000
vn -0.7502 -0.2008 0.6300
vn -0.7502 -0.2009 0.6300
vn -0.7502 0.2008 0.6300
vn -0.7502 0.2009 0.6300
vn -0.5491 0.5491 0.6301
vn -0.7071 0.7071 -0.0000
vn -0.9660 0.2586 -0.0000
vn 0.9660 -0.2586 0.0000
vn -0.2008 0.7502 -0.6300
vn -0.5491 0.5491 -0.6301
vn -0.2009 0.7502 -0.6300
vn 0.2008 0.7502 -0.6300
vn 0.2009 0.7502 -0.6300
vn -0.7502 0.2008 -0.6300
vn -0.7502 0.2009 -0.6300
vn -0.7502 -0.2008 -0.6300
vn -0.7502 -0.2009 -0.6300
vn -0.5491 -0.5491 -0.6301
vn -0.2009 -0.7502 -0.6300
vn -0.2008 -0.7502 -0.6300
vn 0.2009 -0.7502 -0.6300
vn 0.2008 -0.7502 -0.6300
vn 0.5491 -0.5491 -0.6301
vn 0.7502 -0.2008 -0.6300
vn 0.7502 -0.2009 -0.6300
vn 0.7502 0.2008 -0.6300
vn 0.7502 0.2009 -0.6300
vn 0.5491 0.5491 -0.6301
usemtl Material
s 1
f 1/1/1 2/2/2 3/3/2 4/4/1
f 5/5/3 6/6/4 2/2/4 1/1/5
f 6/7/6 5/8/6 7/9/6 8/10/6 9/11/6 10/12/6 11/13/6 12/14/6 13/15/6 14/16/6 15/17/6 16/18/6
f 7/19/7 5/5/3 1/1/5 17/20/8
f 17/20/9 1/1/1 4/4/1 18/21/9
f 4/22/10 3/23/10 19/24/10 20/25/10 21/26/10 22/27/10 23/28/10 24/29/10 25/30/10 26/31/10 27/32/10 18/33/10
f 2/34/2 28/35/11 19/36/11 3/37/2
f 16/38/12 28/35/13 2/34/4 6/39/4
f 15/40/14 29/41/15 28/35/13 16/38/12
f 14/42/16 30/43/16 29/41/15 15/40/14
f 31/44/17 30/45/16 14/46/16 13/47/18
f 30/45/19 31/44/20 22/48/20 21/49/19
f 31/44/20 32/50/21 23/51/21 22/48/20
f 32/50/22 31/44/17 13/47/18 12/52/23
f 33/53/24 32/50/22 12/52/23 11/54/24
f 32/50/21 33/53/25 24/55/25 23/51/21
f 33/56/25 34/57/26 25/58/26 24/59/25
f 10/60/27 34/57/28 33/56/24 11/61/24
f 9/62/29 35/63/30 34/57/28 10/60/27
f 8/64/31 36/65/31 35/63/30 9/62/29
f 8/66/31 7/19/7 17/20/8 36/67/31
f 36/67/32 17/20/9 18/21/9 27/68/32
f 35/63/33 36/65/32 27/69/32 26/70/33
f 34/57/26 35/63/33 26/70/33 25/58/26
f 29/41/34 30/43/19 21/71/19 20/72/34
f 28/35/11 29/41/34 20/72/34 19/36/11
f 37/73/11 38/74/34 39/75/34 40/76/11
f 41/77/6 42/78/6 43/79/6 44/80/6 45/81/6 46/82/6 47/83/6 48/84/6 49/85/6 50/86/6 38/87/6 37/88/6
f 42/89/1 41/90/2 51/91/2 52/92/1
f 41/93/2 37/73/11 40/76/11 51/94/2
f 53/95/10 54/96/10 52/97/10 51/98/10 40/99/10 39/100/10 55/101/10 56/102/10 57/103/10 58/104/10 59/105/10 60/106/10
f 44/107/32 43/108/9 54/109/9 53/110/32
f 43/108/9 42/89/1 52/92/1 54/109/9
f 45/111/33 44/112/32 53/113/32 60/114/33
f 46/115/26 45/111/33 60/114/33 59/116/26
f 47/117/25 46/115/26 59/116/26 58/118/25
f 48/119/21 47/120/25 58/121/25 57/122/21
f 49/123/20 48/119/21 57/122/21 56/124/20
f 50/125/19 49/123/20 56/124/20 55/126/19
f 38/74/34 50/127/19 55/128/19 39/75/34
f 61/129/9 62/130/32 63/131/32 64/132/9
f 65/133/35 66/134/36 62/130/36 61/129/37
f 66/135/10 65/136/10 67/137/10 68/138/10 69/139/10 70/140/10 71/141/10 72/142/10 73/143/10 74/144/10 75/145/10 76/146/10
f 67/147/38 65/133/35 61/129/37 77/148/39
f 77/148/1 61/129/9 64/132/9 78/149/1
f 64/150/6 63/151/6 79/152/6 80/153/6 81/154/6 82/155/6 83/156/6 84/157/6 85/158/6 86/159/6 87/160/6 78/161/6
f 62/162/32 88/163/33 79/164/33 63/165/32
f 76/166/40 88/163/41 62/162/36 66/134/36
f 75/167/42 89/168/43 88/163/41 76/166/40
f 74/169/44 90/170/44 89/168/43 75/167/42
f 91/171/45 90/172/44 74/173/44 73/174/46
f 90/172/25 91/171/21 82/175/21 81/176/25
f 91/171/21 92/177/20 83/178/20 82/175/21
f 92/177/47 91/171/45 73/174/46 72/179/48
f 93/180/49 92/177/47 72/179/48 71/181/49
f 92/177/20 93/180/19 84/182/19 83/178/20
f 93/180/19 94/183/34 85/184/34 84/182/19
f 70/185/50 94/183/51 93/180/49 71/186/49
f 69/187/52 95/188/53 94/183/51 70/185/50
f 68/189/54 96/190/54 95/188/53 69/187/52
f 68/191/54 67/147/38 77/148/39 96/192/54
f 96/192/2 77/148/1 78/149/1 87/193/2
f 95/188/11 96/190/2 87/194/2 86/195/11
f 94/183/34 95/188/11 86/195/11 85/184/34
f 89/168/26 90/170/25 81/196/25 80/197/26
f 88/163/33 89/168/26 80/197/26 79/164/33
