# Blender v2.79 (sub 0) OBJ File: ''
# www.blender.org
mtllib winshield01R2.mtl
o Mesh1_Group1_Model.001
v -0.000000 0.250000 -1.618030
v -0.000000 -1.000000 0.881966
v -0.216506 -1.000000 1.161470
v -0.216506 0.375000 -1.588530
v 0.216506 0.375000 -1.588530
v 0.216506 -1.000000 1.161470
v 0.216506 1.000000 -2.000000
v 0.216506 -0.850929 1.701860
v 0.216506 -0.850929 1.478250
v 0.216506 -1.000000 1.776390
v 0.216506 0.625000 -1.473610
v 0.216506 0.888197 -2.000000
v 0.500000 -1.000000 2.000000
v 0.500000 -0.850929 1.701860
v 0.116506 1.000000 -2.000000
v -0.000000 0.750000 -1.500000
v -0.000000 -1.000000 2.000000
v 0.500000 -1.000000 1.776390
v 0.500000 -0.850929 1.478250
v -0.216506 -1.000000 1.720490
v -0.216506 0.625000 -1.529510
v -0.250000 0.500000 -2.000000
v -0.176777 0.676777 -2.000000
v -0.000000 0.750000 -2.000000
v 0.032845 0.731037 -1.685680
v 0.106086 0.888197 -2.000000
v 0.176777 0.676777 -2.000000
v 0.250000 0.500000 -2.000000
v 0.176777 0.323223 -2.000000
v -0.000000 0.250000 -2.000000
v -0.176777 0.323223 -2.000000
vt 0.084270 0.967534
vt 0.084270 0.898945
vt 0.092214 0.892514
vt 0.092214 0.967961
vt 0.076325 0.967961
vt 0.076325 0.892514
vt 0.114434 0.873220
vt 0.114434 0.975255
vt 0.110764 0.970324
vt 0.110764 0.978542
vt 0.100674 0.964983
vt 0.100674 0.889184
vt 0.110764 0.888962
vt 0.110764 0.874453
vt 0.039236 0.981902
vt 0.039236 0.973787
vt 0.049472 0.973983
vt 0.049472 0.873220
vt 0.053082 0.873289
vt 0.057289 0.886980
vt 0.057289 0.982248
vt 0.131314 0.921155
vt 0.131314 0.912938
vt 0.134983 0.917869
vt 0.134983 0.926086
vt 0.065923 0.886545
vt 0.065923 0.878365
vt 0.076325 0.878365
vt 0.076325 0.886545
vt 0.065923 0.873220
vt 0.084270 0.873220
vt 0.092214 0.879652
vt 0.065923 0.887371
vt 0.065923 0.975834
vt 0.131314 0.961044
vt 0.123395 0.973747
vt 0.114434 0.884444
vt 0.123732 0.885480
vt 0.125329 0.874976
vt 0.119347 0.873220
vt 0.065562 0.875907
vt 0.058751 0.875238
vt 0.056757 0.882738
vt 0.134983 0.900291
vt 0.134983 0.909021
vt 0.131314 0.912938
vt 0.131314 0.899050
vt 0.138053 0.884609
vt 0.138053 0.899050
vt 0.131314 0.893232
vt 0.134002 0.884609
vt 0.050126 0.888384
vt 0.052797 0.875663
vt 0.103817 0.876786
vt 0.098032 0.878731
vt 0.092214 0.880684
vt 0.077783 0.976971
vt 0.084270 0.976322
vt 0.090756 0.976971
vt 0.131314 0.876583
vt 0.136279 0.884609
vt 0.131314 0.881273
vt 0.131314 0.876556
vt 0.136279 0.873220
vt 0.143300 0.873220
vt 0.148264 0.876556
vt 0.148264 0.881273
vt 0.143300 0.884609
vt 0.131697 0.926086
vt 0.135366 0.926086
vt 0.135366 0.928843
vt 0.131314 0.928843
vt 0.039890 0.968536
vt 0.050126 0.968732
vn 0.0000 -0.9920 -0.1259
vn 0.0000 -0.8944 -0.4472
vn -0.8660 -0.4472 -0.2236
vn -0.8845 -0.4618 -0.0658
vn 0.8831 -0.4644 -0.0667
vn 0.8660 -0.4472 -0.2236
vn 1.0000 -0.0000 0.0000
vn 0.9383 0.3450 0.0257
vn -0.0000 0.8944 0.4472
vn -0.1972 0.9603 0.1971
vn -0.2588 0.8639 0.4320
vn 0.0000 -1.0000 0.0000
vn -0.8857 0.4515 0.1082
vn -0.8660 0.4472 0.2236
vn -1.0000 -0.0063 -0.0004
vn -0.6410 0.7675 0.0058
vn 0.1812 0.9834 0.0057
vn 0.4457 0.8949 0.0231
vn -0.9790 0.0912 -0.1825
vn 0.6249 0.7806 0.0132
vn 0.9999 -0.0115 -0.0007
vn 0.6374 -0.7705 0.0073
vn -0.6374 -0.7705 0.0073
vn 0.0000 0.0000 -1.0000
vn 0.0000 1.0000 0.0000
usemtl Color_M05.005
s 1
f 1/1/1 2/2/2 3/3/3 4/4/4
f 5/5/5 6/6/6 2/2/2 1/1/1
f 7/7/7 8/8/7 9/9/7 10/10/7 6/11/6 5/12/5 11/13/8 12/14/7
f 13/15/9 14/16/9 8/17/9 7/18/9 15/19/9 16/20/10 17/21/11
f 18/22/7 19/23/7 14/24/7 13/25/7
f 19/26/2 18/27/2 10/28/2 9/29/2
f 13/30/12 17/31/12 20/32/12 3/3/12 2/2/12 6/6/12 10/28/12 18/27/12
f 21/33/13 20/34/14 17/21/11 16/20/10
f 3/35/3 20/36/14 21/37/13 4/38/4
f 21/37/13 22/39/15 4/38/4
f 21/37/13 23/40/16 22/39/15
f 21/33/13 16/20/10 23/41/16
f 16/20/10 24/42/17 23/41/16
f 16/20/10 25/43/18 24/42/17
f 26/44/19 25/45/19 16/46/19 15/47/19
f 12/48/2 11/49/2 25/50/2 26/51/2
f 11/52/8 27/53/20 25/43/18
f 27/54/20 11/13/8 28/55/21
f 5/12/5 28/55/21 11/13/8
f 5/12/5 29/56/22 28/55/21
f 5/5/5 1/1/1 29/57/22
f 1/1/1 30/58/12 29/57/22
f 1/1/1 31/59/23 30/58/12
f 1/1/1 4/4/4 31/59/23
f 31/60/23 4/38/4 22/39/15
f 28/61/24 29/62/24 30/63/24 31/64/24 22/65/24 23/66/24 24/67/24 27/68/24
f 24/42/17 25/43/18 27/53/20
f 15/69/24 7/70/24 12/71/24 26/72/24
f 14/16/25 19/73/25 9/74/25 8/17/25
o Mesh2_Group3_Group1_Model
v 0.216506 1.000000 -2.000000
v 0.216506 -0.850929 1.701860
v 0.500000 -0.850929 1.701860
v 0.500000 1.000000 -2.000000
v 0.216506 -0.850929 1.601860
v 0.500000 -0.850929 1.601860
v 0.216506 0.950000 -2.000000
v 0.500000 0.950000 -2.000000
vt 0.389618 0.569366
vt 0.389619 0.532197
vt 0.406697 0.532197
vt 0.406697 0.569366
vt 0.423776 0.532197
vt 0.423776 0.533071
vt 0.406697 0.533071
vt 0.423776 0.568268
vt 0.406697 0.568268
vt 0.423776 0.532197
vt 0.426788 0.532197
vt 0.426788 0.534743
vt 0.423776 0.534743
vn 0.0000 0.8944 0.4472
vn 0.0000 -1.0000 0.0000
vn 0.0000 -0.8944 -0.4472
vn 0.0000 0.0000 -1.0000
usemtl Color_H01.003
s 1
f 32/75/26 33/76/26 34/77/26 35/78/26
f 33/79/27 36/80/27 37/81/27 34/77/27
f 36/80/28 38/82/28 39/83/28 37/81/28
f 38/84/29 32/85/29 35/86/29 39/87/29
