# Blender v2.79 (sub 0) OBJ File: ''
# www.blender.org
mtllib winshield01C.mtl
o Mesh1_Group2_Group1_Model
v -0.500000 0.950000 -2.000000
v -0.500000 1.000000 -2.000000
v 0.500000 1.000000 -2.000000
v 0.500000 0.950000 -2.000000
v 0.500000 -0.850929 1.601860
v -0.500000 -0.850929 1.601860
v -0.500000 -0.850929 1.701860
v 0.500000 -0.850929 1.701860
vt 0.431732 0.534217
vt 0.432580 0.534217
vt 0.432580 0.543165
vt 0.431732 0.543165
vt 0.429468 0.570158
vt 0.412507 0.570158
vt 0.412507 0.535088
vt 0.429468 0.535088
vt 0.412507 0.571251
vt 0.395545 0.571251
vt 0.395545 0.534217
vt 0.412507 0.534217
vn 0.0000 0.0000 -1.0000
vn 0.0000 -0.8944 -0.4472
vn 0.0000 0.8944 0.4472
usemtl Color_H01.003
s 1
f 1/1/1 2/2/1 3/3/1 4/4/1
f 1/5/2 4/6/2 5/7/2 6/8/2
f 3/9/3 2/10/3 7/11/3 8/12/3
o Mesh2_Group3_Group1_Model
v -0.500000 -1.000000 2.000000
v 0.500000 -1.000000 2.000000
v 0.500000 -0.850929 1.701860
v -0.500000 -0.850929 1.701860
v -0.500000 -1.000000 1.776390
v -0.500000 -0.850929 1.478250
v 0.500000 -0.850929 1.478250
v 0.500000 -1.000000 1.776390
vt 0.114824 0.892580
vt 0.114824 0.962157
vt 0.094491 0.962157
vt 0.094491 0.892580
vt 0.121092 0.915772
vt 0.114824 0.929687
vt 0.114824 0.906495
vt 0.121092 0.892580
vt 0.046877 0.962157
vt 0.046877 0.892580
vt 0.067210 0.892580
vt 0.067210 0.962157
vt 0.080850 0.892580
vt 0.080850 0.962157
vt 0.114824 0.952880
vt 0.114824 0.929687
vt 0.121092 0.943603
vt 0.121092 0.966795
vt 0.080850 0.962157
vt 0.080850 0.892580
vn 0.0000 0.8944 0.4472
vn -1.0000 0.0000 0.0000
vn 0.0000 -0.8944 -0.4472
vn 0.0000 -1.0000 0.0000
vn 1.0000 0.0000 0.0000
vn 0.0000 1.0000 0.0000
usemtl Color_M05.003
s 1
f 9/13/4 10/14/4 11/15/4 12/16/4
f 13/17/5 9/18/5 12/19/5 14/20/5
f 14/21/6 15/22/6 16/23/6 13/24/6
f 10/25/7 9/26/7 13/24/7 16/23/7
f 16/27/8 15/28/8 11/29/8 10/30/8
f 12/16/9 11/15/9 15/31/9 14/32/9
