# Blender v2.79 (sub 0) OBJ File: ''
# www.blender.org
mtllib winshield01R.mtl
o Mesh2_Group3_Group1_Model.002
v -0.450000 0.000000 -2.000000
v -0.450000 -0.850929 -0.321129
v -0.450000 -0.850929 -1.149070
v -0.500000 0.000000 -2.000000
v -0.500000 -0.850929 -1.149070
v -0.500000 -0.850929 -0.298142
v 0.500000 1.000000 -2.000000
v 0.500000 -0.850929 1.701860
v 0.500000 -0.850929 1.601860
v 0.500000 0.950000 -2.000000
vt 0.404730 0.531986
vt 0.404645 0.552661
vt 0.401560 0.544533
vt 0.440877 0.541861
vt 0.441432 0.541611
vt 0.446275 0.549926
vt 0.445721 0.550177
vt 0.424153 0.546723
vt 0.424153 0.567624
vt 0.420991 0.555083
vt 0.440877 0.572536
vt 0.440877 0.527073
vt 0.420618 0.571555
vt 0.420618 0.527319
vt 0.446275 0.527073
vt 0.446560 0.527561
vn 1.0000 0.0000 0.0000
vn 1.0000 -0.0016 -0.0013
vn 0.0000 -0.7071 -0.7071
vn -1.0000 0.0000 0.0000
vn -0.6667 0.6667 0.3333
vn 0.6711 -0.6631 -0.3315
vn 0.6692 -0.6635 -0.3346
vn 0.6693 -0.6638 -0.3338
vn 0.6656 -0.6656 -0.3374
vn 0.0000 0.0000 -1.0000
vn 0.0003 -0.0020 -1.0000
usemtl Color_H01.002
s 1
f 1/1/1 2/2/2 3/3/1
f 4/4/3 1/5/3 3/6/3 5/7/3
f 6/8/4 4/9/4 5/10/4
f 7/11/5 4/9/5 6/8/5 8/12/5
f 9/13/6 2/2/7 10/14/8
f 1/1/9 10/14/8 2/2/7
f 7/15/10 10/16/11 1/5/10 4/4/10
o Mesh1_Group2_Group1_Model.002
v -0.500000 -0.850929 -1.149070
v -0.400000 -0.850929 -1.149070
v -0.400000 -1.000000 -1.000000
v -0.500000 -1.000000 -1.000000
v -0.500000 -1.000000 0.000000
v -0.500000 -0.850929 -0.298142
v 0.500000 -0.850929 1.701860
v 0.500000 -0.850929 1.478250
v -0.400000 -0.850929 -0.321749
v -0.400000 -1.000000 -0.023607
v 0.500000 -1.000000 1.776390
v 0.500000 -1.000000 2.000000
vt 0.082870 0.884818
vt 0.090280 0.885998
vt 0.073559 0.890411
vt 0.066150 0.889231
vt 0.115660 0.979425
vt 0.090280 0.951823
vt 0.110784 0.960351
vt 0.132381 0.983838
vt 0.134114 0.893346
vt 0.139790 0.899518
vt 0.118792 0.959822
vt 0.139790 0.982658
vt 0.069282 0.908834
vt 0.048778 0.917362
vt 0.069776 0.977666
vt 0.064101 0.983838
vt 0.040769 0.916834
vt 0.113611 0.884818
vt 0.090280 0.969138
vt 0.084604 0.975311
vn 0.0000 -0.7071 -0.7071
vn -1.0000 0.0000 0.0000
vn 0.0000 1.0000 0.0000
vn 1.0000 0.0000 0.0000
vn 0.0000 -1.0000 0.0000
vn -0.6667 0.6667 0.3333
vn 0.6667 -0.6667 -0.3333
usemtl FrontColor.001
s 1
f 11/17/12 12/18/12 13/19/12 14/20/12
f 14/21/13 15/22/13 16/23/13 11/24/13
f 11/24/14 16/23/14 17/25/14 18/26/14 19/27/14 12/28/14
f 12/18/15 19/29/15 20/30/15 13/19/15
f 13/19/16 20/30/16 21/31/16 22/32/16 15/33/16 14/20/16
f 15/22/17 22/34/17 17/25/17 16/23/17
f 22/32/15 21/31/15 18/35/15 17/36/15
f 19/29/18 18/35/18 21/31/18 20/30/18
